<svg width="34" height="34" viewBox="0 0 34 34" fill="none" xmlns="http://www.w3.org/2000/svg">
<rect width="34" height="34" fill="white"/>
<path d="M10.25 12.875C10.25 18.8811 15.1189 23.75 21.125 23.75C21.6245 23.75 22.1162 23.7163 22.5978 23.6511C23.281 23.5586 23.75 22.9469 23.75 22.2575V20.3311C23.75 19.6855 23.3368 19.1123 22.7244 18.9081L20.3631 18.121C19.7627 17.9209 19.1189 18.2743 18.9655 18.8883C18.7606 19.7077 17.7402 19.9902 17.143 19.393L14.6069 16.857C14.0098 16.2598 14.2924 15.2394 15.1117 15.0346C15.7258 14.8811 16.0791 14.2373 15.879 13.6369L15.0919 11.2757C14.8877 10.6631 14.3145 10.25 13.6689 10.25H11.7425C11.0531 10.25 10.4414 10.719 10.3489 11.4022C10.2837 11.8838 10.25 12.3755 10.25 12.875Z" fill="white"/>
<path d="M10.25 12.875C10.25 18.8811 15.1189 23.75 21.125 23.75C21.6245 23.75 22.1162 23.7163 22.5978 23.6511C23.281 23.5586 23.75 22.9469 23.75 22.2575V20.3311C23.75 19.6855 23.3368 19.1123 22.7244 18.9081L20.3631 18.121C19.7627 17.9209 19.1189 18.2743 18.9655 18.8883C18.7606 19.7077 17.7402 19.9902 17.143 19.393L14.6069 16.857C14.0098 16.2598 14.2924 15.2394 15.1117 15.0346C15.7258 14.8811 16.0791 14.2373 15.879 13.6369L15.0919 11.2757C14.8877 10.6631 14.3145 10.25 13.6689 10.25H11.7425C11.0531 10.25 10.4414 10.719 10.3489 11.4022C10.2837 11.8838 10.25 12.3755 10.25 12.875Z" fill="url(#paint0_radial_68_289)"/>
<defs>
<radialGradient id="paint0_radial_68_289" cx="0" cy="0" r="1" gradientUnits="userSpaceOnUse" gradientTransform="translate(17 17) rotate(45) scale(9.54594 12.1557)">
<stop offset="0.435" stop-color="#F1D7A5"/>
<stop offset="1" stop-color="#E4BF78"/>
</radialGradient>
</defs>
</svg>
