<svg width="34" height="34" viewBox="0 0 34 34" fill="none" xmlns="http://www.w3.org/2000/svg">
<rect width="34" height="34" fill="white"/>
<path d="M17 8.75C13.6865 8.75 11 11.5205 11 14.9375C11 16.283 11.4278 17.5177 12.1388 18.5288C12.1515 18.5531 12.1535 18.5801 12.168 18.6033L16.168 24.7908C16.3535 25.0778 16.666 25.25 17 25.25C17.334 25.25 17.6465 25.0778 17.832 24.7908L21.832 18.6033C21.8467 18.5801 21.8485 18.5531 21.8612 18.5288C22.5723 17.5177 23 16.283 23 14.9375C23 11.5205 20.3135 8.75 17 8.75ZM17 17C15.8955 17 15 16.0765 15 14.9375C15 13.7985 15.8955 12.875 17 12.875C18.1045 12.875 19 13.7985 19 14.9375C19 16.0765 18.1045 17 17 17Z" fill="white"/>
<path d="M17 8.75C13.6865 8.75 11 11.5205 11 14.9375C11 16.283 11.4278 17.5177 12.1388 18.5288C12.1515 18.5531 12.1535 18.5801 12.168 18.6033L16.168 24.7908C16.3535 25.0778 16.666 25.25 17 25.25C17.334 25.25 17.6465 25.0778 17.832 24.7908L21.832 18.6033C21.8467 18.5801 21.8485 18.5531 21.8612 18.5288C22.5723 17.5177 23 16.283 23 14.9375C23 11.5205 20.3135 8.75 17 8.75ZM17 17C15.8955 17 15 16.0765 15 14.9375C15 13.7985 15.8955 12.875 17 12.875C18.1045 12.875 19 13.7985 19 14.9375C19 16.0765 18.1045 17 17 17Z" fill="url(#paint0_radial_68_280)"/>
<defs>
<radialGradient id="paint0_radial_68_280" cx="0" cy="0" r="1" gradientUnits="userSpaceOnUse" gradientTransform="translate(17 17) rotate(53.9726) scale(10.2011 12.3581)">
<stop offset="0.435" stop-color="#F1D7A5"/>
<stop offset="1" stop-color="#E4BF78"/>
</radialGradient>
</defs>
</svg>
