<svg width="195" height="56" viewBox="0 0 195 56" fill="none" xmlns="http://www.w3.org/2000/svg">
<g clip-path="url(#clip0_135_2179)">
<path fill-rule="evenodd" clip-rule="evenodd" d="M184.853 33.9623V16.459C183.157 17.3985 181.827 18.6647 180.864 20.2586C179.901 21.8525 179.419 23.5172 179.419 25.2535C179.419 27.1319 179.886 28.8395 180.821 30.3763C181.755 31.9132 183.099 33.1085 184.853 33.9623ZM192.444 25.2535C192.444 23.9728 192.214 22.7633 191.754 21.6247C190.892 19.4618 189.31 17.74 187.01 16.459V33.9623C188.735 33.1085 190.072 31.9132 191.021 30.3763C191.97 28.8395 192.444 27.1319 192.444 25.2535ZM194.601 25.2535C194.601 28.0994 193.738 30.5755 192.013 32.6816C190.69 34.2752 189.023 35.5276 187.01 36.4384V40.7074H184.853V36.4384C181.834 34.9869 179.721 33.1013 178.513 30.7677C177.68 29.181 177.263 27.3452 177.263 25.2746C177.263 22.2579 178.255 19.6609 180.239 17.4697C181.446 16.1389 182.985 15.0148 184.853 14.1042V10.8667H187.01V14.0686C188.821 14.9508 190.345 16.0749 191.581 17.441C193.594 19.6609 194.601 22.2652 194.601 25.2535ZM174.244 40.7074H172.044V17.8679L166.567 28.4554V40.7074H164.41V10.8239H166.567V24.1864L174.244 9.79958V40.7074ZM173.511 6C173.424 6.86799 173.137 7.57245 172.648 8.10615C171.987 8.83898 171.038 9.20192 169.801 9.20192C168.709 9.20192 167.817 8.89599 167.127 8.27691C166.437 7.65783 166.092 6.89636 166.092 6H167.559C167.559 6.58348 167.76 7.06017 168.163 7.42311C168.565 7.78604 169.111 7.96376 169.801 7.96376C170.492 7.96376 171.038 7.78604 171.44 7.42311C171.843 7.06017 172.044 6.58348 172.044 6H173.511ZM157.941 32.3401V14.8796C157.941 13.912 157.704 13.1792 157.229 12.6811C156.755 12.183 156.072 11.9338 155.181 11.9338C154.146 11.9338 153.398 12.2612 152.938 12.9158C152.593 13.4281 152.42 14.0828 152.42 14.8796V32.3401H157.941ZM160.097 40.7074H157.941V34.2185H152.42V40.7074H150.264V34.2185H147.59L145.994 32.3401H150.264V15.2637C150.264 13.471 150.659 12.1546 151.45 11.315C152.241 10.4754 153.441 10.0554 155.051 10.0554C157.15 10.0554 158.588 10.6818 159.364 11.9338C159.853 12.7025 160.097 13.8125 160.097 15.2637V40.7074ZM144.916 40.7074H142.76V14.0116C140.545 15.9826 139.007 18.3446 138.145 21.1054C137.541 23.0122 137.239 25.2605 137.239 27.8505V40.7074H135.083V27.9785C135.083 24.2787 135.729 21.0484 137.023 18.2876C138.605 14.901 141.236 12.0693 144.916 9.7854V40.7074ZM122.359 40.7074H120.203V17.8679L114.682 28.4554V40.7074H112.526V10.8239H114.682V24.1864L122.359 9.7854V40.7074ZM110.025 12.7451H106.315V40.7074H104.159V12.7451H100.45V10.8667H110.025V12.7451ZM96.0075 36.4812V15.0929C96.0075 13.8979 95.7201 13.0438 95.145 12.5318C94.685 12.1332 94.0523 11.9338 93.2473 11.9338C92.5286 11.9338 91.9534 12.1046 91.5221 12.4464C90.8321 12.987 90.487 13.8692 90.487 15.0929V36.4812C90.487 37.6195 90.7748 38.445 91.3496 38.957C91.8385 39.3842 92.471 39.5975 93.2473 39.5975C94.0236 39.5975 94.642 39.3842 95.102 38.957C95.7058 38.4163 96.0075 37.5912 96.0075 36.4812ZM98.164 36.3104C98.164 37.9894 97.747 39.2701 96.9134 40.1523C96.0795 41.0348 94.8575 41.4758 93.2473 41.4758C91.6373 41.4758 90.4151 41.0348 89.5815 40.1523C88.7476 39.2701 88.3306 37.9894 88.3306 36.3104V34.2185H84.406V40.7074H82.2496V34.2185H79.4031L77.9367 32.3401H82.2496V10.8239H84.406V32.3401H88.3306V15.2637C88.3306 13.5847 88.7403 12.2968 89.5598 11.4004C90.3792 10.5038 91.6084 10.0554 93.2473 10.0554C94.8575 10.0554 96.0795 10.4968 96.9134 11.379C97.747 12.2612 98.164 13.5563 98.164 15.2637V36.3104ZM75.5645 36.9507V36.0969C75.5645 35.5276 75.4495 35.1007 75.2194 34.8161C74.8744 34.4176 74.2563 34.2185 73.365 34.2185H70.044V38.829H73.365C74.3139 38.829 74.9463 38.6155 75.2624 38.1888C75.4639 37.9324 75.5645 37.5197 75.5645 36.9507ZM77.7209 37.164C77.7209 38.3596 77.3472 39.249 76.5995 39.8322C75.8522 40.4157 74.8025 40.7074 73.4513 40.7074H67.8875V34.2185H65.084L63.6179 32.3401H67.8875V10.8667H70.044V32.3401H73.4943C75.2194 32.3401 76.3984 32.6816 77.0308 33.3647C77.4908 33.877 77.7209 34.6879 77.7209 35.7979V37.164ZM61.2454 36.7371V36.3104C61.2454 35.428 61.0012 34.8303 60.5123 34.5172C60.1962 34.318 59.7217 34.2185 59.0892 34.2185H55.7252V38.829H59.0892C60.0091 38.829 60.6273 38.6013 60.9436 38.146C61.1451 37.8615 61.2454 37.3918 61.2454 36.7371ZM63.4021 36.9507C63.4021 37.9182 63.1863 38.6866 62.755 39.2559C62.0077 40.2235 60.6419 40.7074 58.6579 40.7074H53.5684V34.2185H50.7652L49.2988 32.3401H53.5684V10.8667H63.4021V12.7451H55.7252V32.3401H59.8223C60.8863 32.3401 61.6913 32.5392 62.2375 32.9378C63.0138 33.4784 63.4021 34.4318 63.4021 35.7979V36.9507Z" fill="#4F4F4F"/>
</g>
<path d="M50.1481 53.1968V47.7429H50.9194V52.5189H53.958V47.7429H54.7294V53.1968H50.1481ZM54.8462 54.4356V52.9942L55.0332 53.1968H53.958V52.5189H55.5708V54.4356H54.8462ZM58.2306 53.2435C57.7891 53.2435 57.3996 53.1526 57.0619 52.9708C56.7295 52.789 56.4698 52.5397 56.2828 52.2229C56.101 51.906 56.0101 51.5424 56.0101 51.1321C56.0101 50.7217 56.0984 50.3581 56.275 50.0413C56.4568 49.7245 56.7035 49.4777 57.0152 49.3011C57.332 49.1193 57.6878 49.0284 58.0826 49.0284C58.4826 49.0284 58.8358 49.1167 59.1422 49.2933C59.4487 49.4699 59.6876 49.7193 59.859 50.0413C60.0356 50.3581 60.1239 50.7295 60.1239 51.1555C60.1239 51.1866 60.1213 51.223 60.1161 51.2645C60.1161 51.3061 60.1135 51.345 60.1083 51.3814H56.5945V50.8438H59.7188L59.4149 51.0308C59.4201 50.7659 59.3656 50.5296 59.2513 50.3218C59.137 50.114 58.9786 49.953 58.776 49.8387C58.5787 49.7193 58.3475 49.6595 58.0826 49.6595C57.8229 49.6595 57.5918 49.7193 57.3892 49.8387C57.1866 49.953 57.0282 50.1166 56.9139 50.3296C56.7996 50.5373 56.7425 50.7763 56.7425 51.0464V51.171C56.7425 51.4463 56.8048 51.6931 56.9295 51.9112C57.0593 52.1242 57.2385 52.2904 57.4671 52.4099C57.6956 52.5293 57.9579 52.5891 58.254 52.5891C58.4981 52.5891 58.7189 52.5475 58.9163 52.4644C59.1188 52.3813 59.2955 52.2566 59.4461 52.0904L59.859 52.5735C59.672 52.7916 59.4383 52.9578 59.1578 53.0721C58.8825 53.1864 58.5735 53.2435 58.2306 53.2435ZM61.2843 53.1968V49.0674H62.0322V50.8204H64.3852V49.0674H65.1332V53.1968H64.3852V51.4671H62.0322V53.1968H61.2843ZM67.4056 53.1968V49.5271L67.5926 49.7219H65.8941V49.0674H69.6651V49.7219H67.9744L68.1536 49.5271V53.1968H67.4056ZM72.6193 53.2435C72.2765 53.2435 71.9622 53.1656 71.6765 53.0098C71.396 52.8488 71.1701 52.6124 70.9987 52.3008C70.8325 51.9891 70.7494 51.5996 70.7494 51.1321C70.7494 50.6646 70.8299 50.275 70.9909 49.9634C71.1571 49.6517 71.3805 49.418 71.661 49.2622C71.9466 49.1063 72.2661 49.0284 72.6193 49.0284C73.0244 49.0284 73.3828 49.1167 73.6945 49.2933C74.0061 49.4699 74.2529 49.7167 74.4347 50.0335C74.6165 50.3452 74.7073 50.7114 74.7073 51.1321C74.7073 51.5528 74.6165 51.9216 74.4347 52.2384C74.2529 52.5553 74.0061 52.802 73.6945 52.9786C73.3828 53.1552 73.0244 53.2435 72.6193 53.2435ZM70.4299 54.7083V49.0674H71.1467V50.1815L71.1 51.1399L71.1779 52.0982V54.7083H70.4299ZM72.557 52.5891C72.8219 52.5891 73.0582 52.5293 73.266 52.4099C73.4789 52.2904 73.6451 52.1216 73.7646 51.9034C73.8893 51.6801 73.9516 51.423 73.9516 51.1321C73.9516 50.836 73.8893 50.5815 73.7646 50.3685C73.6451 50.1504 73.4789 49.9816 73.266 49.8621C73.0582 49.7426 72.8219 49.6829 72.557 49.6829C72.2972 49.6829 72.0609 49.7426 71.8479 49.8621C71.6402 49.9816 71.474 50.1504 71.3493 50.3685C71.2298 50.5815 71.1701 50.836 71.1701 51.1321C71.1701 51.423 71.2298 51.6801 71.3493 51.9034C71.474 52.1216 71.6402 52.2904 71.8479 52.4099C72.0609 52.5293 72.2972 52.5891 72.557 52.5891ZM78.8136 50.7425V50.1036H81.7353V50.7425H78.8136ZM79.5148 47.6805C79.9096 47.6805 80.2732 47.7507 80.6056 47.8909C80.938 48.026 81.2263 48.2207 81.4704 48.4753C81.7198 48.7246 81.9119 49.018 82.047 49.3557C82.1872 49.6933 82.2574 50.0647 82.2574 50.4698C82.2574 50.875 82.1872 51.2464 82.047 51.584C81.9119 51.9216 81.7198 52.2177 81.4704 52.4722C81.2263 52.7215 80.938 52.9163 80.6056 53.0565C80.2732 53.1916 79.9096 53.2591 79.5148 53.2591C79.0785 53.2591 78.676 53.1864 78.3072 53.041C77.9436 52.8955 77.6371 52.6826 77.3878 52.4021L77.8787 51.9112C78.0968 52.1346 78.3383 52.2982 78.6032 52.4021C78.8733 52.5059 79.1642 52.5579 79.4759 52.5579C79.7615 52.5579 80.0265 52.5059 80.2706 52.4021C80.5147 52.2982 80.7251 52.1553 80.9017 51.9735C81.0835 51.7866 81.2237 51.5658 81.3224 51.3113C81.4211 51.0516 81.4704 50.7711 81.4704 50.4698C81.4704 50.1686 81.4211 49.8907 81.3224 49.6362C81.2237 49.3764 81.0835 49.1557 80.9017 48.9739C80.7251 48.7869 80.5147 48.6415 80.2706 48.5376C80.0265 48.4337 79.7615 48.3818 79.4759 48.3818C79.1642 48.3818 78.8733 48.4337 78.6032 48.5376C78.3383 48.6415 78.0968 48.8051 77.8787 49.0284L77.3878 48.5376C77.6371 48.2571 77.9436 48.0441 78.3072 47.8987C78.676 47.7533 79.0785 47.6805 79.5148 47.6805ZM85.1949 53.2435C84.7742 53.2435 84.3976 53.1526 84.0652 52.9708C83.738 52.789 83.4808 52.5397 83.2938 52.2229C83.1069 51.906 83.0134 51.5424 83.0134 51.1321C83.0134 50.7217 83.1069 50.3581 83.2938 50.0413C83.4808 49.7245 83.738 49.4777 84.0652 49.3011C84.3976 49.1193 84.7742 49.0284 85.1949 49.0284C85.5689 49.0284 85.9013 49.1037 86.1922 49.2544C86.4883 49.3998 86.7168 49.618 86.8778 49.9088L86.3091 50.275C86.174 50.0725 86.0078 49.9244 85.8104 49.8309C85.6183 49.7322 85.4105 49.6829 85.1871 49.6829C84.917 49.6829 84.6755 49.7426 84.4625 49.8621C84.2496 49.9816 84.0808 50.1504 83.9561 50.3685C83.8314 50.5815 83.7691 50.836 83.7691 51.1321C83.7691 51.4282 83.8314 51.6853 83.9561 51.9034C84.0808 52.1216 84.2496 52.2904 84.4625 52.4099C84.6755 52.5293 84.917 52.5891 85.1871 52.5891C85.4105 52.5891 85.6183 52.5423 85.8104 52.4488C86.0078 52.3501 86.174 52.1995 86.3091 51.9969L86.8778 52.3553C86.7168 52.641 86.4883 52.8618 86.1922 53.0176C85.9013 53.1682 85.5689 53.2435 85.1949 53.2435ZM88.611 53.1968V49.5271L88.798 49.7219H87.0995V49.0674H90.8705V49.7219H89.1798L89.359 49.5271V53.1968H88.611ZM93.2915 53.2435C92.85 53.2435 92.4604 53.1526 92.1228 52.9708C91.7904 52.789 91.5306 52.5397 91.3437 52.2229C91.1619 51.906 91.071 51.5424 91.071 51.1321C91.071 50.7217 91.1593 50.3581 91.3359 50.0413C91.5177 49.7245 91.7644 49.4777 92.076 49.3011C92.3929 49.1193 92.7487 49.0284 93.1434 49.0284C93.5434 49.0284 93.8966 49.1167 94.2031 49.2933C94.5095 49.4699 94.7485 49.7193 94.9199 50.0413C95.0965 50.3581 95.1848 50.7295 95.1848 51.1555C95.1848 51.1866 95.1822 51.223 95.177 51.2645C95.177 51.3061 95.1744 51.345 95.1692 51.3814H91.6553V50.8438H94.7796L94.4758 51.0308C94.481 50.7659 94.4264 50.5296 94.3121 50.3218C94.1979 50.114 94.0394 49.953 93.8369 49.8387C93.6395 49.7193 93.4084 49.6595 93.1434 49.6595C92.8837 49.6595 92.6526 49.7193 92.45 49.8387C92.2474 49.953 92.089 50.1166 91.9748 50.3296C91.8605 50.5373 91.8033 50.7763 91.8033 51.0464V51.171C91.8033 51.4463 91.8657 51.6931 91.9903 51.9112C92.1202 52.1242 92.2994 52.2904 92.5279 52.4099C92.7565 52.5293 93.0188 52.5891 93.3149 52.5891C93.559 52.5891 93.7797 52.5475 93.9771 52.4644C94.1797 52.3813 94.3563 52.2566 94.5069 52.0904L94.9199 52.5735C94.7329 52.7916 94.4991 52.9578 94.2186 53.0721C93.9434 53.1864 93.6343 53.2435 93.2915 53.2435ZM96.9882 53.1968V49.5271L97.1752 49.7219H95.4767V49.0674H99.2477V49.7219H97.557L97.7362 49.5271V53.1968H96.9882ZM100.013 53.1968V49.0674H100.76V52.0748L103.293 49.0674H103.97V53.1968H103.223V50.1893L100.698 53.1968H100.013ZM108.025 51.5061C107.806 51.6099 107.58 51.6931 107.347 51.7554C107.118 51.8125 106.882 51.8411 106.638 51.8411C106.139 51.8411 105.744 51.7242 105.453 51.4905C105.168 51.2567 105.025 50.8957 105.025 50.4075V49.0674H105.773V50.3607C105.773 50.6568 105.864 50.875 106.046 51.0152C106.233 51.1555 106.482 51.2256 106.794 51.2256C106.991 51.2256 107.194 51.1996 107.401 51.1477C107.614 51.0957 107.822 51.023 108.025 50.9295V51.5061ZM107.97 53.1968V49.0674H108.718V53.1968H107.97ZM112.009 53.2435C111.567 53.2435 111.178 53.1526 110.84 52.9708C110.508 52.789 110.248 52.5397 110.061 52.2229C109.879 51.906 109.788 51.5424 109.788 51.1321C109.788 50.7217 109.877 50.3581 110.053 50.0413C110.235 49.7245 110.482 49.4777 110.793 49.3011C111.11 49.1193 111.466 49.0284 111.861 49.0284C112.261 49.0284 112.614 49.1167 112.92 49.2933C113.227 49.4699 113.466 49.7193 113.637 50.0413C113.814 50.3581 113.902 50.7295 113.902 51.1555C113.902 51.1866 113.9 51.223 113.894 51.2645C113.894 51.3061 113.892 51.345 113.887 51.3814H110.373V50.8438H113.497L113.193 51.0308C113.198 50.7659 113.144 50.5296 113.03 50.3218C112.915 50.114 112.757 49.953 112.554 49.8387C112.357 49.7193 112.126 49.6595 111.861 49.6595C111.601 49.6595 111.37 49.7193 111.167 49.8387C110.965 49.953 110.806 50.1166 110.692 50.3296C110.578 50.5373 110.521 50.7763 110.521 51.0464V51.171C110.521 51.4463 110.583 51.6931 110.708 51.9112C110.838 52.1242 111.017 52.2904 111.245 52.4099C111.474 52.5293 111.736 52.5891 112.032 52.5891C112.276 52.5891 112.497 52.5475 112.694 52.4644C112.897 52.3813 113.074 52.2566 113.224 52.0904L113.637 52.5735C113.45 52.7916 113.217 52.9578 112.936 53.0721C112.661 53.1864 112.352 53.2435 112.009 53.2435ZM116.862 53.2435C116.442 53.2435 116.065 53.1526 115.733 52.9708C115.405 52.789 115.148 52.5397 114.961 52.2229C114.774 51.906 114.681 51.5424 114.681 51.1321C114.681 50.7217 114.774 50.3581 114.961 50.0413C115.148 49.7245 115.405 49.4777 115.733 49.3011C116.065 49.1193 116.442 49.0284 116.862 49.0284C117.236 49.0284 117.569 49.1037 117.86 49.2544C118.156 49.3998 118.384 49.618 118.545 49.9088L117.976 50.275C117.841 50.0725 117.675 49.9244 117.478 49.8309C117.286 49.7322 117.078 49.6829 116.855 49.6829C116.584 49.6829 116.343 49.7426 116.13 49.8621C115.917 49.9816 115.748 50.1504 115.623 50.3685C115.499 50.5815 115.436 50.836 115.436 51.1321C115.436 51.4282 115.499 51.6853 115.623 51.9034C115.748 52.1216 115.917 52.2904 116.13 52.4099C116.343 52.5293 116.584 52.5891 116.855 52.5891C117.078 52.5891 117.286 52.5423 117.478 52.4488C117.675 52.3501 117.841 52.1995 117.976 51.9969L118.545 52.3553C118.384 52.641 118.156 52.8618 117.86 53.0176C117.569 53.1682 117.236 53.2435 116.862 53.2435ZM122.505 53.1968L120.908 51.1866L121.524 50.8126L123.386 53.1968H122.505ZM119.514 53.1968V49.0674H120.262V53.1968H119.514ZM120.036 51.4515V50.8126H121.399V51.4515H120.036ZM121.586 51.2178L120.893 51.1243L122.474 49.0674H123.277L121.586 51.2178ZM125.802 53.2435C125.386 53.2435 125.017 53.1526 124.695 52.9708C124.373 52.789 124.119 52.5397 123.932 52.2229C123.745 51.9008 123.651 51.5372 123.651 51.1321C123.651 50.7217 123.745 50.3581 123.932 50.0413C124.119 49.7245 124.373 49.4777 124.695 49.3011C125.017 49.1193 125.386 49.0284 125.802 49.0284C126.212 49.0284 126.578 49.1193 126.9 49.3011C127.228 49.4777 127.482 49.7245 127.664 50.0413C127.851 50.353 127.944 50.7165 127.944 51.1321C127.944 51.5424 127.851 51.906 127.664 52.2229C127.482 52.5397 127.228 52.789 126.9 52.9708C126.578 53.1526 126.212 53.2435 125.802 53.2435ZM125.802 52.5891C126.067 52.5891 126.303 52.5293 126.511 52.4099C126.724 52.2904 126.89 52.1216 127.009 51.9034C127.129 51.6801 127.189 51.423 127.189 51.1321C127.189 50.836 127.129 50.5815 127.009 50.3685C126.89 50.1504 126.724 49.9816 126.511 49.8621C126.303 49.7426 126.067 49.6829 125.802 49.6829C125.537 49.6829 125.301 49.7426 125.093 49.8621C124.885 49.9816 124.719 50.1504 124.594 50.3685C124.469 50.5815 124.407 50.836 124.407 51.1321C124.407 51.423 124.469 51.6801 124.594 51.9034C124.719 52.1216 124.885 52.2904 125.093 52.4099C125.301 52.5293 125.537 52.5891 125.802 52.5891ZM129.024 53.1968V49.0674H129.772V52.0748L132.305 49.0674H132.982V53.1968H132.234V50.1893L129.71 53.1968H129.024ZM130.957 48.5298C130.578 48.5298 130.279 48.4389 130.061 48.2571C129.848 48.0701 129.739 47.8026 129.733 47.4546H130.24C130.245 47.652 130.31 47.8078 130.435 47.9221C130.565 48.0363 130.736 48.0935 130.949 48.0935C131.162 48.0935 131.333 48.0363 131.463 47.9221C131.593 47.8078 131.661 47.652 131.666 47.4546H132.188C132.183 47.8026 132.071 48.0701 131.853 48.2571C131.635 48.4389 131.336 48.5298 130.957 48.5298ZM140.321 53.1968L138.342 50.5088L138.973 50.1192L141.209 53.1968H140.321ZM136.651 53.1968V47.7429H137.415V53.1968H136.651ZM137.181 50.7971V50.1114H138.95V50.7971H137.181ZM139.043 50.5555L138.326 50.4464L140.282 47.7429H141.116L139.043 50.5555ZM143.599 53.2435C143.183 53.2435 142.814 53.1526 142.492 52.9708C142.17 52.789 141.916 52.5397 141.729 52.2229C141.542 51.9008 141.448 51.5372 141.448 51.1321C141.448 50.7217 141.542 50.3581 141.729 50.0413C141.916 49.7245 142.17 49.4777 142.492 49.3011C142.814 49.1193 143.183 49.0284 143.599 49.0284C144.009 49.0284 144.375 49.1193 144.697 49.3011C145.024 49.4777 145.279 49.7245 145.461 50.0413C145.648 50.353 145.741 50.7165 145.741 51.1321C145.741 51.5424 145.648 51.906 145.461 52.2229C145.279 52.5397 145.024 52.789 144.697 52.9708C144.375 53.1526 144.009 53.2435 143.599 53.2435ZM143.599 52.5891C143.863 52.5891 144.1 52.5293 144.308 52.4099C144.52 52.2904 144.687 52.1216 144.806 51.9034C144.926 51.6801 144.985 51.423 144.985 51.1321C144.985 50.836 144.926 50.5815 144.806 50.3685C144.687 50.1504 144.52 49.9816 144.308 49.8621C144.1 49.7426 143.863 49.6829 143.599 49.6829C143.334 49.6829 143.097 49.7426 142.889 49.8621C142.682 49.9816 142.516 50.1504 142.391 50.3685C142.266 50.5815 142.204 50.836 142.204 51.1321C142.204 51.423 142.266 51.6801 142.391 51.9034C142.516 52.1216 142.682 52.2904 142.889 52.4099C143.097 52.5293 143.334 52.5891 143.599 52.5891ZM148.621 53.2435C148.2 53.2435 147.824 53.1526 147.491 52.9708C147.164 52.789 146.907 52.5397 146.72 52.2229C146.533 51.906 146.439 51.5424 146.439 51.1321C146.439 50.7217 146.533 50.3581 146.72 50.0413C146.907 49.7245 147.164 49.4777 147.491 49.3011C147.824 49.1193 148.2 49.0284 148.621 49.0284C148.995 49.0284 149.327 49.1037 149.618 49.2544C149.914 49.3998 150.143 49.618 150.304 49.9088L149.735 50.275C149.6 50.0725 149.434 49.9244 149.236 49.8309C149.044 49.7322 148.837 49.6829 148.613 49.6829C148.343 49.6829 148.102 49.7426 147.889 49.8621C147.676 49.9816 147.507 50.1504 147.382 50.3685C147.257 50.5815 147.195 50.836 147.195 51.1321C147.195 51.4282 147.257 51.6853 147.382 51.9034C147.507 52.1216 147.676 52.2904 147.889 52.4099C148.102 52.5293 148.343 52.5891 148.613 52.5891C148.837 52.5891 149.044 52.5423 149.236 52.4488C149.434 52.3501 149.6 52.1995 149.735 51.9969L150.304 52.3553C150.143 52.641 149.914 52.8618 149.618 53.0176C149.327 53.1682 148.995 53.2435 148.621 53.2435ZM151.272 53.1968V49.0674H152.044L153.82 52.1216H153.508L155.332 49.0674H156.033V53.1968H155.355V49.9088L155.48 49.979L153.812 52.7293H153.485L151.81 49.9244L151.958 49.8933V53.1968H151.272ZM159.327 53.2435C158.886 53.2435 158.496 53.1526 158.159 52.9708C157.826 52.789 157.566 52.5397 157.379 52.2229C157.198 51.906 157.107 51.5424 157.107 51.1321C157.107 50.7217 157.195 50.3581 157.372 50.0413C157.553 49.7245 157.8 49.4777 158.112 49.3011C158.429 49.1193 158.785 49.0284 159.179 49.0284C159.579 49.0284 159.932 49.1167 160.239 49.2933C160.545 49.4699 160.784 49.7193 160.956 50.0413C161.132 50.3581 161.221 50.7295 161.221 51.1555C161.221 51.1866 161.218 51.223 161.213 51.2645C161.213 51.3061 161.21 51.345 161.205 51.3814H157.691V50.8438H160.815L160.512 51.0308C160.517 50.7659 160.462 50.5296 160.348 50.3218C160.234 50.114 160.075 49.953 159.873 49.8387C159.675 49.7193 159.444 49.6595 159.179 49.6595C158.92 49.6595 158.688 49.7193 158.486 49.8387C158.283 49.953 158.125 50.1166 158.011 50.3296C157.896 50.5373 157.839 50.7763 157.839 51.0464V51.171C157.839 51.4463 157.901 51.6931 158.026 51.9112C158.156 52.1242 158.335 52.2904 158.564 52.4099C158.792 52.5293 159.055 52.5891 159.351 52.5891C159.595 52.5891 159.816 52.5475 160.013 52.4644C160.216 52.3813 160.392 52.2566 160.543 52.0904L160.956 52.5735C160.769 52.7916 160.535 52.9578 160.254 53.0721C159.979 53.1864 159.67 53.2435 159.327 53.2435ZM163.024 53.1968V49.5271L163.211 49.7219H161.513V49.0674H165.284V49.7219H163.593L163.772 49.5271V53.1968H163.024ZM167.634 53.2435C167.219 53.2435 166.85 53.1526 166.528 52.9708C166.206 52.789 165.951 52.5397 165.764 52.2229C165.577 51.9008 165.484 51.5372 165.484 51.1321C165.484 50.7217 165.577 50.3581 165.764 50.0413C165.951 49.7245 166.206 49.4777 166.528 49.3011C166.85 49.1193 167.219 49.0284 167.634 49.0284C168.045 49.0284 168.411 49.1193 168.733 49.3011C169.06 49.4777 169.315 49.7245 169.496 50.0413C169.683 50.353 169.777 50.7165 169.777 51.1321C169.777 51.5424 169.683 51.906 169.496 52.2229C169.315 52.5397 169.06 52.789 168.733 52.9708C168.411 53.1526 168.045 53.2435 167.634 53.2435ZM167.634 52.5891C167.899 52.5891 168.136 52.5293 168.343 52.4099C168.556 52.2904 168.723 52.1216 168.842 51.9034C168.961 51.6801 169.021 51.423 169.021 51.1321C169.021 50.836 168.961 50.5815 168.842 50.3685C168.723 50.1504 168.556 49.9816 168.343 49.8621C168.136 49.7426 167.899 49.6829 167.634 49.6829C167.369 49.6829 167.133 49.7426 166.925 49.8621C166.718 49.9816 166.551 50.1504 166.427 50.3685C166.302 50.5815 166.24 50.836 166.24 51.1321C166.24 51.423 166.302 51.6801 166.427 51.9034C166.551 52.1216 166.718 52.2904 166.925 52.4099C167.133 52.5293 167.369 52.5891 167.634 52.5891ZM170.141 53.189L170.188 52.5579C170.224 52.5631 170.258 52.5683 170.289 52.5735C170.32 52.5787 170.349 52.5813 170.375 52.5813C170.541 52.5813 170.671 52.5241 170.764 52.4099C170.863 52.2956 170.936 52.145 170.982 51.958C171.029 51.7658 171.063 51.5502 171.084 51.3113C171.104 51.0723 171.12 50.8334 171.13 50.5945L171.201 49.0674H174.372V53.1968H173.624V49.5037L173.803 49.7219H171.684L171.855 49.4959L171.801 50.6412C171.785 51.0048 171.756 51.345 171.715 51.6619C171.673 51.9787 171.608 52.2566 171.52 52.4956C171.437 52.7345 171.32 52.9215 171.169 53.0565C171.024 53.1916 170.834 53.2591 170.601 53.2591C170.533 53.2591 170.46 53.2513 170.382 53.2357C170.31 53.2253 170.229 53.2098 170.141 53.189ZM177.587 53.2435C177.171 53.2435 176.802 53.1526 176.48 52.9708C176.158 52.789 175.904 52.5397 175.717 52.2229C175.53 51.9008 175.436 51.5372 175.436 51.1321C175.436 50.7217 175.53 50.3581 175.717 50.0413C175.904 49.7245 176.158 49.4777 176.48 49.3011C176.802 49.1193 177.171 49.0284 177.587 49.0284C177.997 49.0284 178.363 49.1193 178.685 49.3011C179.012 49.4777 179.267 49.7245 179.449 50.0413C179.636 50.353 179.729 50.7165 179.729 51.1321C179.729 51.5424 179.636 51.906 179.449 52.2229C179.267 52.5397 179.012 52.789 178.685 52.9708C178.363 53.1526 177.997 53.2435 177.587 53.2435ZM177.587 52.5891C177.851 52.5891 178.088 52.5293 178.296 52.4099C178.508 52.2904 178.675 52.1216 178.794 51.9034C178.914 51.6801 178.973 51.423 178.973 51.1321C178.973 50.836 178.914 50.5815 178.794 50.3685C178.675 50.1504 178.508 49.9816 178.296 49.8621C178.088 49.7426 177.851 49.6829 177.587 49.6829C177.322 49.6829 177.085 49.7426 176.878 49.8621C176.67 49.9816 176.504 50.1504 176.379 50.3685C176.254 50.5815 176.192 50.836 176.192 51.1321C176.192 51.423 176.254 51.6801 176.379 51.9034C176.504 52.1216 176.67 52.2904 176.878 52.4099C177.085 52.5293 177.322 52.5891 177.587 52.5891ZM180.809 53.1968V49.0674H183.848V49.7219H181.378L181.557 49.5504V53.1968H180.809ZM184.614 53.1968V49.0674H185.362V52.0748L187.894 49.0674H188.572V53.1968H187.824V50.1893L185.299 53.1968H184.614ZM190.023 53.1968V49.0674H190.771V52.0748L193.303 49.0674H193.981V53.1968H193.233V50.1893L190.709 53.1968H190.023Z" fill="#4F4F4F"/>
<path d="M8.44627 33.489C11.1743 35.3374 13.4666 39.2652 14.2717 40.998C14.3578 41.17 14.4456 41.3345 14.5312 41.4877C14.7246 41.8338 15.1887 41.7169 15.1933 41.3204C15.235 37.7599 13.6102 34.7676 12.7088 33.6334C11.7142 32.43 9.32719 30.1677 7.73585 30.7453C6.14451 31.3229 7.5464 32.8151 8.44627 33.489Z" fill="#4F4F4F"/>
<path d="M11.9801 31.2421C11.7463 31.2421 11.2983 30.9473 11.1035 30.8L12.2723 30.6526C12.2723 30.8 12.2139 31.2421 11.9801 31.2421Z" fill="#4F4F4F"/>
<path d="M25.3043 38.7884L22.7128 45.803C22.5842 46.1512 22.8959 46.422 23.1667 46.1681C24.0145 45.373 24.7757 44.0022 25.4503 43.3259C26.1511 42.6233 28.0783 42.9356 28.9543 43.1795C33.276 43.8821 35.8164 42.2037 36.5464 41.2767C41.8024 36.1244 43.1165 28.6888 43.1165 25.615C43.8771 16.5728 41.0741 6.06936 39.2691 1.03555C39.1359 0.664195 38.6186 0.662189 38.4657 1.02584C34.6589 10.0766 26.8233 20.8047 23.2603 25.1759C19.6102 30.1525 18.9537 33.9498 18.7342 37.3247C18.2962 44.0578 22.2383 57.963 22.0923 55.7675C21.9462 53.5719 21.0702 49.0344 20.9242 48.0098C20.7782 46.9852 19.7562 40.6912 20.1942 36.8856C20.6322 33.0799 26.6183 26.4932 27.7863 25.1759C28.6831 24.1644 34.5829 18.2181 37.7669 15.0238C37.9645 14.8256 38.2913 14.8672 38.4063 15.1223C38.9829 16.4014 39.5188 18.9101 38.2984 21.663C36.5464 25.615 39.0284 28.8351 39.3204 29.2743C39.6458 29.7636 39.1713 30.3004 38.6459 30.5638L38.2984 30.738C38.0962 30.8393 37.9232 30.9809 37.7841 31.1247C37.504 31.4141 37.4327 31.8271 37.3864 32.2272C37.3343 32.6774 37.2175 33.1484 36.9844 33.2263C36.7936 33.29 36.6231 33.4434 36.4915 33.6015C36.3109 33.8184 36.2748 34.1107 36.2009 34.3831C36.1815 34.4545 36.1574 34.5208 36.1295 34.5823C35.8415 35.2167 35.1726 35.7551 35.0864 36.4465C34.6484 38.7884 32.4583 38.3493 31.5823 38.2029C30.9395 38.0955 29.4288 37.6516 28.5822 37.3906C28.4407 37.3469 28.2961 37.3125 28.1485 37.3018C26.5318 37.1852 25.5837 38.2281 25.3043 38.7884Z" fill="#4F4F4F"/>
<path d="M20.0017 21.0385C21.6845 18.3352 23.3071 12.1252 23.9081 9.43164C28.7161 13.2516 26.5529 18.07 25.2604 20.5978C23.9081 23.2424 20.3715 26.6523 19.2504 28.5316C18.1987 30.2947 17.5977 33.6739 17.1469 34.8493C16.7863 35.7896 16.4958 35.2411 16.3957 34.8493C16.0952 31.617 17.8982 24.4178 20.0017 21.0385Z" fill="#4F4F4F"/>
<path d="M12.4514 22.0751C13.2417 23.6833 13.4392 25.3298 13.4392 25.9521C13.4566 26.2967 13.6346 26.4786 13.7215 26.5264C14.5683 25.5213 15.5091 23.1281 15.8384 22.0751C15.8384 23.2239 15.6146 24.4813 15.415 25.0905C15.2739 25.5213 15.415 26.0956 15.5562 26.3828C16.6852 25.2341 17.5319 21.9315 17.5319 21.5008C17.5319 21.07 16.5441 15.3264 15.6973 15.3264C14.8505 15.3264 11.4635 20.0649 12.4514 22.0751Z" fill="#4F4F4F"/>
<path d="M11.8815 28.8843C3.06342 27.5025 0.238584 20.0559 0 16.5054C2.38584 16.5534 8.01643 17.4266 10.8794 20.5357C12.2049 21.9751 13.3989 25.2282 12.5972 26.7252C11.223 24.307 8.7799 22.359 7.73013 21.6873C9.73424 23.8464 11.8815 27.4449 12.0246 28.0207C12.1392 28.4813 11.9769 28.7884 11.8815 28.8843Z" fill="#4F4F4F"/>
<defs>
<clipPath id="clip0_135_2179">
<rect width="145.302" height="36.6417" fill="white" transform="translate(49.2988 5.23438)"/>
</clipPath>
</defs>
</svg>
