<svg width="28" height="28" viewBox="0 0 28 28" fill="none" xmlns="http://www.w3.org/2000/svg">
<circle cx="14" cy="14" r="14" fill="url(#paint0_linear_68_57)"/>
<path d="M17.1287 6.5332H10.8711C8.47917 6.5332 6.5332 8.47917 6.5332 10.8711V17.1286C6.5332 19.5206 8.47917 21.4665 10.8711 21.4665H17.1286C19.5206 21.4665 21.4665 19.5206 21.4665 17.1287V10.8711C21.4665 8.47917 19.5206 6.5332 17.1287 6.5332ZM20.2999 17.1286C20.2999 18.8773 18.8773 20.2999 17.1287 20.2999H10.8711C9.12247 20.2999 7.69987 18.8773 7.69987 17.1287V10.8711C7.69987 9.12247 9.12247 7.69987 10.8711 7.69987H17.1286C18.8773 7.69987 20.2999 9.12247 20.2999 10.8711V17.1286Z" fill="white"/>
<path d="M13.9999 10.2666C11.9414 10.2666 10.2666 11.9414 10.2666 13.9999C10.2666 16.0585 11.9414 17.7333 13.9999 17.7333C16.0585 17.7333 17.7333 16.0585 17.7333 13.9999C17.7333 11.9414 16.0585 10.2666 13.9999 10.2666ZM13.9999 16.6511C12.5381 16.6511 11.3487 15.4618 11.3487 13.9999C11.3487 12.5381 12.5381 11.3487 13.9999 11.3487C15.4618 11.3487 16.6511 12.5381 16.6511 13.9999C16.6511 15.4618 15.4618 16.6511 13.9999 16.6511Z" fill="white"/>
<path d="M18.2001 10.2666C18.4578 10.2666 18.6667 10.0577 18.6667 9.79992C18.6667 9.54219 18.4578 9.33325 18.2001 9.33325C17.9423 9.33325 17.7334 9.54219 17.7334 9.79992C17.7334 10.0577 17.9423 10.2666 18.2001 10.2666Z" fill="white"/>
<defs>
<linearGradient id="paint0_linear_68_57" x1="0" y1="28" x2="28" y2="0" gradientUnits="userSpaceOnUse">
<stop stop-color="#F7D600"/>
<stop offset="0.505208" stop-color="#E71026"/>
<stop offset="1" stop-color="#7A37AB"/>
</linearGradient>
</defs>
</svg>
