<svg width="247" height="122" viewBox="0 0 247 122" fill="none" xmlns="http://www.w3.org/2000/svg">
<g filter="url(#filter0_d_2002_7199)">
<path d="M6 3H241V98.7143C241 106.604 234.604 113 226.714 113H20.2857C12.3959 113 6 106.604 6 98.7143V3Z" fill="#D9D9D9"/>
<path d="M6 3H241V98.7143C241 106.604 234.604 113 226.714 113H20.2857C12.3959 113 6 106.604 6 98.7143V3Z" fill="#FEEBED"/>
<path d="M6 3H241V98.7143C241 106.604 234.604 113 226.714 113H20.2857C12.3959 113 6 106.604 6 98.7143V3Z" fill="url(#paint0_linear_2002_7199)"/>
<path d="M6 3H241V98.7143C241 106.604 234.604 113 226.714 113H20.2857C12.3959 113 6 106.604 6 98.7143V3Z" fill="url(#paint1_radial_2002_7199)"/>
</g>
<g clip-path="url(#clip0_2002_7199)">
<path fill-rule="evenodd" clip-rule="evenodd" d="M210.853 63.9623V46.459C209.157 47.3985 207.827 48.6647 206.864 50.2586C205.901 51.8525 205.419 53.5172 205.419 55.2535C205.419 57.1319 205.886 58.8395 206.821 60.3763C207.755 61.9132 209.099 63.1085 210.853 63.9623ZM218.444 55.2535C218.444 53.9728 218.214 52.7633 217.754 51.6247C216.892 49.4618 215.31 47.74 213.01 46.459V63.9623C214.735 63.1085 216.072 61.9132 217.021 60.3763C217.97 58.8395 218.444 57.1319 218.444 55.2535ZM220.601 55.2535C220.601 58.0994 219.738 60.5755 218.013 62.6816C216.69 64.2752 215.023 65.5276 213.01 66.4384V70.7074H210.853V66.4384C207.834 64.9869 205.721 63.1013 204.513 60.7677C203.68 59.181 203.263 57.3452 203.263 55.2746C203.263 52.2579 204.255 49.6609 206.239 47.4697C207.446 46.1389 208.985 45.0148 210.853 44.1042V40.8667H213.01V44.0686C214.821 44.9508 216.345 46.0749 217.581 47.441C219.594 49.6609 220.601 52.2652 220.601 55.2535ZM200.244 70.7074H198.044V47.8679L192.567 58.4554V70.7074H190.41V40.8239H192.567V54.1864L200.244 39.7996V70.7074ZM199.511 36C199.424 36.868 199.137 37.5725 198.648 38.1062C197.987 38.839 197.038 39.2019 195.801 39.2019C194.709 39.2019 193.817 38.896 193.127 38.2769C192.437 37.6578 192.092 36.8964 192.092 36H193.559C193.559 36.5835 193.76 37.0602 194.163 37.4231C194.565 37.786 195.111 37.9638 195.801 37.9638C196.492 37.9638 197.038 37.786 197.44 37.4231C197.843 37.0602 198.044 36.5835 198.044 36H199.511ZM183.941 62.3401V44.8796C183.941 43.912 183.704 43.1792 183.229 42.6811C182.755 42.183 182.072 41.9338 181.181 41.9338C180.146 41.9338 179.398 42.2612 178.938 42.9158C178.593 43.4281 178.42 44.0828 178.42 44.8796V62.3401H183.941ZM186.097 70.7074H183.941V64.2185H178.42V70.7074H176.264V64.2185H173.59L171.994 62.3401H176.264V45.2637C176.264 43.471 176.659 42.1546 177.45 41.315C178.241 40.4754 179.441 40.0554 181.051 40.0554C183.15 40.0554 184.588 40.6818 185.364 41.9338C185.853 42.7025 186.097 43.8125 186.097 45.2637V70.7074ZM170.916 70.7074H168.76V44.0116C166.545 45.9826 165.007 48.3446 164.145 51.1054C163.541 53.0122 163.239 55.2605 163.239 57.8505V70.7074H161.083V57.9785C161.083 54.2787 161.729 51.0484 163.023 48.2876C164.605 44.901 167.236 42.0693 170.916 39.7854V70.7074ZM148.359 70.7074H146.203V47.8679L140.682 58.4554V70.7074H138.526V40.8239H140.682V54.1864L148.359 39.7854V70.7074ZM136.025 42.7451H132.315V70.7074H130.159V42.7451H126.45V40.8667H136.025V42.7451ZM122.008 66.4812V45.0929C122.008 43.8979 121.72 43.0438 121.145 42.5318C120.685 42.1332 120.052 41.9338 119.247 41.9338C118.529 41.9338 117.953 42.1046 117.522 42.4464C116.832 42.987 116.487 43.8692 116.487 45.0929V66.4812C116.487 67.6195 116.775 68.445 117.35 68.957C117.839 69.3842 118.471 69.5975 119.247 69.5975C120.024 69.5975 120.642 69.3842 121.102 68.957C121.706 68.4163 122.008 67.5912 122.008 66.4812ZM124.164 66.3104C124.164 67.9894 123.747 69.2701 122.913 70.1523C122.079 71.0348 120.858 71.4758 119.247 71.4758C117.637 71.4758 116.415 71.0348 115.581 70.1523C114.748 69.2701 114.331 67.9894 114.331 66.3104V64.2185H110.406V70.7074H108.25V64.2185H105.403L103.937 62.3401H108.25V40.8239H110.406V62.3401H114.331V45.2637C114.331 43.5847 114.74 42.2968 115.56 41.4004C116.379 40.5038 117.608 40.0554 119.247 40.0554C120.858 40.0554 122.079 40.4968 122.913 41.379C123.747 42.2612 124.164 43.5563 124.164 45.2637V66.3104ZM101.564 66.9507V66.0969C101.564 65.5276 101.45 65.1007 101.219 64.8161C100.874 64.4176 100.256 64.2185 99.365 64.2185H96.044V68.829H99.365C100.314 68.829 100.946 68.6155 101.262 68.1888C101.464 67.9324 101.564 67.5197 101.564 66.9507ZM103.721 67.164C103.721 68.3596 103.347 69.249 102.6 69.8322C101.852 70.4157 100.802 70.7074 99.4513 70.7074H93.8875V64.2185H91.084L89.6179 62.3401H93.8875V40.8667H96.044V62.3401H99.4943C101.219 62.3401 102.398 62.6816 103.031 63.3647C103.491 63.877 103.721 64.6879 103.721 65.7979V67.164ZM87.2454 66.7371V66.3104C87.2454 65.428 87.0012 64.8303 86.5123 64.5172C86.1962 64.318 85.7217 64.2185 85.0892 64.2185H81.7252V68.829H85.0892C86.0091 68.829 86.6273 68.6013 86.9436 68.146C87.1451 67.8615 87.2454 67.3918 87.2454 66.7371ZM89.4021 66.9507C89.4021 67.9182 89.1863 68.6866 88.755 69.2559C88.0077 70.2235 86.6419 70.7074 84.6579 70.7074H79.5684V64.2185H76.7652L75.2988 62.3401H79.5684V40.8667H89.4021V42.7451H81.7252V62.3401H85.8223C86.8863 62.3401 87.6913 62.5392 88.2375 62.9378C89.0138 63.4784 89.4021 64.4318 89.4021 65.7979V66.9507Z" fill="#4F4F4F"/>
</g>
<path d="M76.1481 83.1968V77.7429H76.9194V82.5189H79.958V77.7429H80.7294V83.1968H76.1481ZM80.8462 84.4356V82.9942L81.0332 83.1968H79.958V82.5189H81.5708V84.4356H80.8462ZM84.2306 83.2435C83.7891 83.2435 83.3996 83.1526 83.0619 82.9708C82.7295 82.789 82.4698 82.5397 82.2828 82.2229C82.101 81.906 82.0101 81.5424 82.0101 81.1321C82.0101 80.7217 82.0984 80.3581 82.275 80.0413C82.4568 79.7245 82.7035 79.4777 83.0152 79.3011C83.332 79.1193 83.6878 79.0284 84.0826 79.0284C84.4826 79.0284 84.8358 79.1167 85.1422 79.2933C85.4487 79.4699 85.6876 79.7193 85.859 80.0413C86.0356 80.3581 86.1239 80.7295 86.1239 81.1555C86.1239 81.1866 86.1213 81.223 86.1161 81.2645C86.1161 81.3061 86.1135 81.345 86.1083 81.3814H82.5945V80.8438H85.7188L85.4149 81.0308C85.4201 80.7659 85.3656 80.5296 85.2513 80.3218C85.137 80.114 84.9786 79.953 84.776 79.8387C84.5787 79.7193 84.3475 79.6595 84.0826 79.6595C83.8229 79.6595 83.5918 79.7193 83.3892 79.8387C83.1866 79.953 83.0282 80.1166 82.9139 80.3296C82.7996 80.5373 82.7425 80.7763 82.7425 81.0464V81.171C82.7425 81.4463 82.8048 81.6931 82.9295 81.9112C83.0593 82.1242 83.2385 82.2904 83.4671 82.4099C83.6956 82.5293 83.9579 82.5891 84.254 82.5891C84.4981 82.5891 84.7189 82.5475 84.9163 82.4644C85.1188 82.3813 85.2955 82.2566 85.4461 82.0904L85.859 82.5735C85.672 82.7916 85.4383 82.9578 85.1578 83.0721C84.8825 83.1864 84.5735 83.2435 84.2306 83.2435ZM87.2843 83.1968V79.0674H88.0322V80.8204H90.3852V79.0674H91.1332V83.1968H90.3852V81.4671H88.0322V83.1968H87.2843ZM93.4056 83.1968V79.5271L93.5926 79.7219H91.8941V79.0674H95.6651V79.7219H93.9744L94.1536 79.5271V83.1968H93.4056ZM98.6193 83.2435C98.2765 83.2435 97.9622 83.1656 97.6765 83.0098C97.396 82.8488 97.1701 82.6124 96.9987 82.3008C96.8325 81.9891 96.7494 81.5996 96.7494 81.1321C96.7494 80.6646 96.8299 80.275 96.9909 79.9634C97.1571 79.6517 97.3805 79.418 97.661 79.2622C97.9466 79.1063 98.2661 79.0284 98.6193 79.0284C99.0244 79.0284 99.3828 79.1167 99.6945 79.2933C100.006 79.4699 100.253 79.7167 100.435 80.0335C100.616 80.3452 100.707 80.7114 100.707 81.1321C100.707 81.5528 100.616 81.9216 100.435 82.2384C100.253 82.5553 100.006 82.802 99.6945 82.9786C99.3828 83.1552 99.0244 83.2435 98.6193 83.2435ZM96.4299 84.7083V79.0674H97.1467V80.1815L97.1 81.1399L97.1779 82.0982V84.7083H96.4299ZM98.557 82.5891C98.8219 82.5891 99.0582 82.5293 99.266 82.4099C99.4789 82.2904 99.6451 82.1216 99.7646 81.9034C99.8893 81.6801 99.9516 81.423 99.9516 81.1321C99.9516 80.836 99.8893 80.5815 99.7646 80.3685C99.6451 80.1504 99.4789 79.9816 99.266 79.8621C99.0582 79.7426 98.8219 79.6829 98.557 79.6829C98.2972 79.6829 98.0609 79.7426 97.8479 79.8621C97.6402 79.9816 97.474 80.1504 97.3493 80.3685C97.2298 80.5815 97.1701 80.836 97.1701 81.1321C97.1701 81.423 97.2298 81.6801 97.3493 81.9034C97.474 82.1216 97.6402 82.2904 97.8479 82.4099C98.0609 82.5293 98.2972 82.5891 98.557 82.5891ZM104.814 80.7425V80.1036H107.735V80.7425H104.814ZM105.515 77.6805C105.91 77.6805 106.273 77.7507 106.606 77.8909C106.938 78.026 107.226 78.2207 107.47 78.4753C107.72 78.7246 107.912 79.018 108.047 79.3557C108.187 79.6933 108.257 80.0647 108.257 80.4698C108.257 80.875 108.187 81.2464 108.047 81.584C107.912 81.9216 107.72 82.2177 107.47 82.4722C107.226 82.7215 106.938 82.9163 106.606 83.0565C106.273 83.1916 105.91 83.2591 105.515 83.2591C105.079 83.2591 104.676 83.1864 104.307 83.041C103.944 82.8955 103.637 82.6826 103.388 82.4021L103.879 81.9112C104.097 82.1346 104.338 82.2982 104.603 82.4021C104.873 82.5059 105.164 82.5579 105.476 82.5579C105.762 82.5579 106.026 82.5059 106.271 82.4021C106.515 82.2982 106.725 82.1553 106.902 81.9735C107.083 81.7866 107.224 81.5658 107.322 81.3113C107.421 81.0516 107.47 80.7711 107.47 80.4698C107.47 80.1686 107.421 79.8907 107.322 79.6362C107.224 79.3764 107.083 79.1557 106.902 78.9739C106.725 78.7869 106.515 78.6415 106.271 78.5376C106.026 78.4337 105.762 78.3818 105.476 78.3818C105.164 78.3818 104.873 78.4337 104.603 78.5376C104.338 78.6415 104.097 78.8051 103.879 79.0284L103.388 78.5376C103.637 78.2571 103.944 78.0441 104.307 77.8987C104.676 77.7533 105.079 77.6805 105.515 77.6805ZM111.195 83.2435C110.774 83.2435 110.398 83.1526 110.065 82.9708C109.738 82.789 109.481 82.5397 109.294 82.2229C109.107 81.906 109.013 81.5424 109.013 81.1321C109.013 80.7217 109.107 80.3581 109.294 80.0413C109.481 79.7245 109.738 79.4777 110.065 79.3011C110.398 79.1193 110.774 79.0284 111.195 79.0284C111.569 79.0284 111.901 79.1037 112.192 79.2544C112.488 79.3998 112.717 79.618 112.878 79.9088L112.309 80.275C112.174 80.0725 112.008 79.9244 111.81 79.8309C111.618 79.7322 111.41 79.6829 111.187 79.6829C110.917 79.6829 110.676 79.7426 110.463 79.8621C110.25 79.9816 110.081 80.1504 109.956 80.3685C109.831 80.5815 109.769 80.836 109.769 81.1321C109.769 81.4282 109.831 81.6853 109.956 81.9034C110.081 82.1216 110.25 82.2904 110.463 82.4099C110.676 82.5293 110.917 82.5891 111.187 82.5891C111.41 82.5891 111.618 82.5423 111.81 82.4488C112.008 82.3501 112.174 82.1995 112.309 81.9969L112.878 82.3553C112.717 82.641 112.488 82.8618 112.192 83.0176C111.901 83.1682 111.569 83.2435 111.195 83.2435ZM114.611 83.1968V79.5271L114.798 79.7219H113.1V79.0674H116.871V79.7219H115.18L115.359 79.5271V83.1968H114.611ZM119.291 83.2435C118.85 83.2435 118.46 83.1526 118.123 82.9708C117.79 82.789 117.531 82.5397 117.344 82.2229C117.162 81.906 117.071 81.5424 117.071 81.1321C117.071 80.7217 117.159 80.3581 117.336 80.0413C117.518 79.7245 117.764 79.4777 118.076 79.3011C118.393 79.1193 118.749 79.0284 119.143 79.0284C119.543 79.0284 119.897 79.1167 120.203 79.2933C120.51 79.4699 120.748 79.7193 120.92 80.0413C121.096 80.3581 121.185 80.7295 121.185 81.1555C121.185 81.1866 121.182 81.223 121.177 81.2645C121.177 81.3061 121.174 81.345 121.169 81.3814H117.655V80.8438H120.78L120.476 81.0308C120.481 80.7659 120.426 80.5296 120.312 80.3218C120.198 80.114 120.039 79.953 119.837 79.8387C119.639 79.7193 119.408 79.6595 119.143 79.6595C118.884 79.6595 118.653 79.7193 118.45 79.8387C118.247 79.953 118.089 80.1166 117.975 80.3296C117.86 80.5373 117.803 80.7763 117.803 81.0464V81.171C117.803 81.4463 117.866 81.6931 117.99 81.9112C118.12 82.1242 118.299 82.2904 118.528 82.4099C118.756 82.5293 119.019 82.5891 119.315 82.5891C119.559 82.5891 119.78 82.5475 119.977 82.4644C120.18 82.3813 120.356 82.2566 120.507 82.0904L120.92 82.5735C120.733 82.7916 120.499 82.9578 120.219 83.0721C119.943 83.1864 119.634 83.2435 119.291 83.2435ZM122.988 83.1968V79.5271L123.175 79.7219H121.477V79.0674H125.248V79.7219H123.557L123.736 79.5271V83.1968H122.988ZM126.013 83.1968V79.0674H126.76V82.0748L129.293 79.0674H129.97V83.1968H129.223V80.1893L126.698 83.1968H126.013ZM134.025 81.5061C133.806 81.6099 133.58 81.6931 133.347 81.7554C133.118 81.8125 132.882 81.8411 132.638 81.8411C132.139 81.8411 131.744 81.7242 131.453 81.4905C131.168 81.2567 131.025 80.8957 131.025 80.4075V79.0674H131.773V80.3607C131.773 80.6568 131.864 80.875 132.046 81.0152C132.233 81.1555 132.482 81.2256 132.794 81.2256C132.991 81.2256 133.194 81.1996 133.401 81.1477C133.614 81.0957 133.822 81.023 134.025 80.9295V81.5061ZM133.97 83.1968V79.0674H134.718V83.1968H133.97ZM138.009 83.2435C137.567 83.2435 137.178 83.1526 136.84 82.9708C136.508 82.789 136.248 82.5397 136.061 82.2229C135.879 81.906 135.788 81.5424 135.788 81.1321C135.788 80.7217 135.877 80.3581 136.053 80.0413C136.235 79.7245 136.482 79.4777 136.793 79.3011C137.11 79.1193 137.466 79.0284 137.861 79.0284C138.261 79.0284 138.614 79.1167 138.92 79.2933C139.227 79.4699 139.466 79.7193 139.637 80.0413C139.814 80.3581 139.902 80.7295 139.902 81.1555C139.902 81.1866 139.9 81.223 139.894 81.2645C139.894 81.3061 139.892 81.345 139.887 81.3814H136.373V80.8438H139.497L139.193 81.0308C139.198 80.7659 139.144 80.5296 139.03 80.3218C138.915 80.114 138.757 79.953 138.554 79.8387C138.357 79.7193 138.126 79.6595 137.861 79.6595C137.601 79.6595 137.37 79.7193 137.167 79.8387C136.965 79.953 136.806 80.1166 136.692 80.3296C136.578 80.5373 136.521 80.7763 136.521 81.0464V81.171C136.521 81.4463 136.583 81.6931 136.708 81.9112C136.838 82.1242 137.017 82.2904 137.245 82.4099C137.474 82.5293 137.736 82.5891 138.032 82.5891C138.276 82.5891 138.497 82.5475 138.694 82.4644C138.897 82.3813 139.074 82.2566 139.224 82.0904L139.637 82.5735C139.45 82.7916 139.217 82.9578 138.936 83.0721C138.661 83.1864 138.352 83.2435 138.009 83.2435ZM142.862 83.2435C142.442 83.2435 142.065 83.1526 141.733 82.9708C141.405 82.789 141.148 82.5397 140.961 82.2229C140.774 81.906 140.681 81.5424 140.681 81.1321C140.681 80.7217 140.774 80.3581 140.961 80.0413C141.148 79.7245 141.405 79.4777 141.733 79.3011C142.065 79.1193 142.442 79.0284 142.862 79.0284C143.236 79.0284 143.569 79.1037 143.86 79.2544C144.156 79.3998 144.384 79.618 144.545 79.9088L143.976 80.275C143.841 80.0725 143.675 79.9244 143.478 79.8309C143.286 79.7322 143.078 79.6829 142.855 79.6829C142.584 79.6829 142.343 79.7426 142.13 79.8621C141.917 79.9816 141.748 80.1504 141.623 80.3685C141.499 80.5815 141.436 80.836 141.436 81.1321C141.436 81.4282 141.499 81.6853 141.623 81.9034C141.748 82.1216 141.917 82.2904 142.13 82.4099C142.343 82.5293 142.584 82.5891 142.855 82.5891C143.078 82.5891 143.286 82.5423 143.478 82.4488C143.675 82.3501 143.841 82.1995 143.976 81.9969L144.545 82.3553C144.384 82.641 144.156 82.8618 143.86 83.0176C143.569 83.1682 143.236 83.2435 142.862 83.2435ZM148.505 83.1968L146.908 81.1866L147.524 80.8126L149.386 83.1968H148.505ZM145.514 83.1968V79.0674H146.262V83.1968H145.514ZM146.036 81.4515V80.8126H147.399V81.4515H146.036ZM147.586 81.2178L146.893 81.1243L148.474 79.0674H149.277L147.586 81.2178ZM151.802 83.2435C151.386 83.2435 151.017 83.1526 150.695 82.9708C150.373 82.789 150.119 82.5397 149.932 82.2229C149.745 81.9008 149.651 81.5372 149.651 81.1321C149.651 80.7217 149.745 80.3581 149.932 80.0413C150.119 79.7245 150.373 79.4777 150.695 79.3011C151.017 79.1193 151.386 79.0284 151.802 79.0284C152.212 79.0284 152.578 79.1193 152.9 79.3011C153.228 79.4777 153.482 79.7245 153.664 80.0413C153.851 80.353 153.944 80.7165 153.944 81.1321C153.944 81.5424 153.851 81.906 153.664 82.2229C153.482 82.5397 153.228 82.789 152.9 82.9708C152.578 83.1526 152.212 83.2435 151.802 83.2435ZM151.802 82.5891C152.067 82.5891 152.303 82.5293 152.511 82.4099C152.724 82.2904 152.89 82.1216 153.009 81.9034C153.129 81.6801 153.189 81.423 153.189 81.1321C153.189 80.836 153.129 80.5815 153.009 80.3685C152.89 80.1504 152.724 79.9816 152.511 79.8621C152.303 79.7426 152.067 79.6829 151.802 79.6829C151.537 79.6829 151.301 79.7426 151.093 79.8621C150.885 79.9816 150.719 80.1504 150.594 80.3685C150.469 80.5815 150.407 80.836 150.407 81.1321C150.407 81.423 150.469 81.6801 150.594 81.9034C150.719 82.1216 150.885 82.2904 151.093 82.4099C151.301 82.5293 151.537 82.5891 151.802 82.5891ZM155.024 83.1968V79.0674H155.772V82.0748L158.305 79.0674H158.982V83.1968H158.234V80.1893L155.71 83.1968H155.024ZM156.957 78.5298C156.578 78.5298 156.279 78.4389 156.061 78.2571C155.848 78.0701 155.739 77.8026 155.733 77.4546H156.24C156.245 77.652 156.31 77.8078 156.435 77.9221C156.565 78.0363 156.736 78.0935 156.949 78.0935C157.162 78.0935 157.333 78.0363 157.463 77.9221C157.593 77.8078 157.661 77.652 157.666 77.4546H158.188C158.183 77.8026 158.071 78.0701 157.853 78.2571C157.635 78.4389 157.336 78.5298 156.957 78.5298ZM166.321 83.1968L164.342 80.5088L164.973 80.1192L167.209 83.1968H166.321ZM162.651 83.1968V77.7429H163.415V83.1968H162.651ZM163.181 80.7971V80.1114H164.95V80.7971H163.181ZM165.043 80.5555L164.326 80.4464L166.282 77.7429H167.116L165.043 80.5555ZM169.599 83.2435C169.183 83.2435 168.814 83.1526 168.492 82.9708C168.17 82.789 167.916 82.5397 167.729 82.2229C167.542 81.9008 167.448 81.5372 167.448 81.1321C167.448 80.7217 167.542 80.3581 167.729 80.0413C167.916 79.7245 168.17 79.4777 168.492 79.3011C168.814 79.1193 169.183 79.0284 169.599 79.0284C170.009 79.0284 170.375 79.1193 170.697 79.3011C171.024 79.4777 171.279 79.7245 171.461 80.0413C171.648 80.353 171.741 80.7165 171.741 81.1321C171.741 81.5424 171.648 81.906 171.461 82.2229C171.279 82.5397 171.024 82.789 170.697 82.9708C170.375 83.1526 170.009 83.2435 169.599 83.2435ZM169.599 82.5891C169.863 82.5891 170.1 82.5293 170.308 82.4099C170.52 82.2904 170.687 82.1216 170.806 81.9034C170.926 81.6801 170.985 81.423 170.985 81.1321C170.985 80.836 170.926 80.5815 170.806 80.3685C170.687 80.1504 170.52 79.9816 170.308 79.8621C170.1 79.7426 169.863 79.6829 169.599 79.6829C169.334 79.6829 169.097 79.7426 168.889 79.8621C168.682 79.9816 168.516 80.1504 168.391 80.3685C168.266 80.5815 168.204 80.836 168.204 81.1321C168.204 81.423 168.266 81.6801 168.391 81.9034C168.516 82.1216 168.682 82.2904 168.889 82.4099C169.097 82.5293 169.334 82.5891 169.599 82.5891ZM174.621 83.2435C174.2 83.2435 173.824 83.1526 173.491 82.9708C173.164 82.789 172.907 82.5397 172.72 82.2229C172.533 81.906 172.439 81.5424 172.439 81.1321C172.439 80.7217 172.533 80.3581 172.72 80.0413C172.907 79.7245 173.164 79.4777 173.491 79.3011C173.824 79.1193 174.2 79.0284 174.621 79.0284C174.995 79.0284 175.327 79.1037 175.618 79.2544C175.914 79.3998 176.143 79.618 176.304 79.9088L175.735 80.275C175.6 80.0725 175.434 79.9244 175.236 79.8309C175.044 79.7322 174.837 79.6829 174.613 79.6829C174.343 79.6829 174.102 79.7426 173.889 79.8621C173.676 79.9816 173.507 80.1504 173.382 80.3685C173.257 80.5815 173.195 80.836 173.195 81.1321C173.195 81.4282 173.257 81.6853 173.382 81.9034C173.507 82.1216 173.676 82.2904 173.889 82.4099C174.102 82.5293 174.343 82.5891 174.613 82.5891C174.837 82.5891 175.044 82.5423 175.236 82.4488C175.434 82.3501 175.6 82.1995 175.735 81.9969L176.304 82.3553C176.143 82.641 175.914 82.8618 175.618 83.0176C175.327 83.1682 174.995 83.2435 174.621 83.2435ZM177.272 83.1968V79.0674H178.044L179.82 82.1216H179.508L181.332 79.0674H182.033V83.1968H181.355V79.9088L181.48 79.979L179.812 82.7293H179.485L177.81 79.9244L177.958 79.8933V83.1968H177.272ZM185.327 83.2435C184.886 83.2435 184.496 83.1526 184.159 82.9708C183.826 82.789 183.566 82.5397 183.379 82.2229C183.198 81.906 183.107 81.5424 183.107 81.1321C183.107 80.7217 183.195 80.3581 183.372 80.0413C183.553 79.7245 183.8 79.4777 184.112 79.3011C184.429 79.1193 184.785 79.0284 185.179 79.0284C185.579 79.0284 185.932 79.1167 186.239 79.2933C186.545 79.4699 186.784 79.7193 186.956 80.0413C187.132 80.3581 187.221 80.7295 187.221 81.1555C187.221 81.1866 187.218 81.223 187.213 81.2645C187.213 81.3061 187.21 81.345 187.205 81.3814H183.691V80.8438H186.815L186.512 81.0308C186.517 80.7659 186.462 80.5296 186.348 80.3218C186.234 80.114 186.075 79.953 185.873 79.8387C185.675 79.7193 185.444 79.6595 185.179 79.6595C184.92 79.6595 184.688 79.7193 184.486 79.8387C184.283 79.953 184.125 80.1166 184.011 80.3296C183.896 80.5373 183.839 80.7763 183.839 81.0464V81.171C183.839 81.4463 183.901 81.6931 184.026 81.9112C184.156 82.1242 184.335 82.2904 184.564 82.4099C184.792 82.5293 185.055 82.5891 185.351 82.5891C185.595 82.5891 185.816 82.5475 186.013 82.4644C186.216 82.3813 186.392 82.2566 186.543 82.0904L186.956 82.5735C186.769 82.7916 186.535 82.9578 186.254 83.0721C185.979 83.1864 185.67 83.2435 185.327 83.2435ZM189.024 83.1968V79.5271L189.211 79.7219H187.513V79.0674H191.284V79.7219H189.593L189.772 79.5271V83.1968H189.024ZM193.634 83.2435C193.219 83.2435 192.85 83.1526 192.528 82.9708C192.206 82.789 191.951 82.5397 191.764 82.2229C191.577 81.9008 191.484 81.5372 191.484 81.1321C191.484 80.7217 191.577 80.3581 191.764 80.0413C191.951 79.7245 192.206 79.4777 192.528 79.3011C192.85 79.1193 193.219 79.0284 193.634 79.0284C194.045 79.0284 194.411 79.1193 194.733 79.3011C195.06 79.4777 195.315 79.7245 195.496 80.0413C195.683 80.353 195.777 80.7165 195.777 81.1321C195.777 81.5424 195.683 81.906 195.496 82.2229C195.315 82.5397 195.06 82.789 194.733 82.9708C194.411 83.1526 194.045 83.2435 193.634 83.2435ZM193.634 82.5891C193.899 82.5891 194.136 82.5293 194.343 82.4099C194.556 82.2904 194.723 82.1216 194.842 81.9034C194.961 81.6801 195.021 81.423 195.021 81.1321C195.021 80.836 194.961 80.5815 194.842 80.3685C194.723 80.1504 194.556 79.9816 194.343 79.8621C194.136 79.7426 193.899 79.6829 193.634 79.6829C193.369 79.6829 193.133 79.7426 192.925 79.8621C192.718 79.9816 192.551 80.1504 192.427 80.3685C192.302 80.5815 192.24 80.836 192.24 81.1321C192.24 81.423 192.302 81.6801 192.427 81.9034C192.551 82.1216 192.718 82.2904 192.925 82.4099C193.133 82.5293 193.369 82.5891 193.634 82.5891ZM196.141 83.189L196.188 82.5579C196.224 82.5631 196.258 82.5683 196.289 82.5735C196.32 82.5787 196.349 82.5813 196.375 82.5813C196.541 82.5813 196.671 82.5241 196.764 82.4099C196.863 82.2956 196.936 82.145 196.982 81.958C197.029 81.7658 197.063 81.5502 197.084 81.3113C197.104 81.0723 197.12 80.8334 197.13 80.5945L197.201 79.0674H200.372V83.1968H199.624V79.5037L199.803 79.7219H197.684L197.855 79.4959L197.801 80.6412C197.785 81.0048 197.756 81.345 197.715 81.6619C197.673 81.9787 197.608 82.2566 197.52 82.4956C197.437 82.7345 197.32 82.9215 197.169 83.0565C197.024 83.1916 196.834 83.2591 196.601 83.2591C196.533 83.2591 196.46 83.2513 196.382 83.2357C196.31 83.2253 196.229 83.2098 196.141 83.189ZM203.587 83.2435C203.171 83.2435 202.802 83.1526 202.48 82.9708C202.158 82.789 201.904 82.5397 201.717 82.2229C201.53 81.9008 201.436 81.5372 201.436 81.1321C201.436 80.7217 201.53 80.3581 201.717 80.0413C201.904 79.7245 202.158 79.4777 202.48 79.3011C202.802 79.1193 203.171 79.0284 203.587 79.0284C203.997 79.0284 204.363 79.1193 204.685 79.3011C205.012 79.4777 205.267 79.7245 205.449 80.0413C205.636 80.353 205.729 80.7165 205.729 81.1321C205.729 81.5424 205.636 81.906 205.449 82.2229C205.267 82.5397 205.012 82.789 204.685 82.9708C204.363 83.1526 203.997 83.2435 203.587 83.2435ZM203.587 82.5891C203.851 82.5891 204.088 82.5293 204.296 82.4099C204.508 82.2904 204.675 82.1216 204.794 81.9034C204.914 81.6801 204.973 81.423 204.973 81.1321C204.973 80.836 204.914 80.5815 204.794 80.3685C204.675 80.1504 204.508 79.9816 204.296 79.8621C204.088 79.7426 203.851 79.6829 203.587 79.6829C203.322 79.6829 203.085 79.7426 202.878 79.8621C202.67 79.9816 202.504 80.1504 202.379 80.3685C202.254 80.5815 202.192 80.836 202.192 81.1321C202.192 81.423 202.254 81.6801 202.379 81.9034C202.504 82.1216 202.67 82.2904 202.878 82.4099C203.085 82.5293 203.322 82.5891 203.587 82.5891ZM206.809 83.1968V79.0674H209.848V79.7219H207.378L207.557 79.5504V83.1968H206.809ZM210.614 83.1968V79.0674H211.362V82.0748L213.894 79.0674H214.572V83.1968H213.824V80.1893L211.299 83.1968H210.614ZM216.023 83.1968V79.0674H216.771V82.0748L219.303 79.0674H219.981V83.1968H219.233V80.1893L216.709 83.1968H216.023Z" fill="#4F4F4F"/>
<path d="M34.4463 63.489C37.1743 65.3374 39.4666 69.2652 40.2717 70.998C40.3578 71.17 40.4456 71.3345 40.5312 71.4877C40.7246 71.8338 41.1887 71.7169 41.1933 71.3204C41.235 67.7599 39.6102 64.7676 38.7088 63.6334C37.7142 62.43 35.3272 60.1677 33.7358 60.7453C32.1445 61.3229 33.5464 62.8151 34.4463 63.489Z" fill="#4F4F4F"/>
<path d="M37.9801 61.2421C37.7463 61.2421 37.2983 60.9473 37.1035 60.8L38.2723 60.6526C38.2723 60.8 38.2139 61.2421 37.9801 61.2421Z" fill="#4F4F4F"/>
<path d="M51.3043 68.7884L48.7128 75.803C48.5842 76.1512 48.8959 76.422 49.1667 76.1681C50.0145 75.373 50.7757 74.0022 51.4503 73.3259C52.1511 72.6233 54.0783 72.9356 54.9543 73.1795C59.276 73.8821 61.8164 72.2037 62.5464 71.2767C67.8024 66.1244 69.1165 58.6888 69.1165 55.615C69.8771 46.5728 67.0741 36.0694 65.2691 31.0356C65.1359 30.6642 64.6186 30.6622 64.4657 31.0258C60.6589 40.0766 52.8233 50.8047 49.2603 55.1759C45.6102 60.1525 44.9537 63.9498 44.7342 67.3247C44.2962 74.0578 48.2383 87.963 48.0923 85.7675C47.9462 83.5719 47.0702 79.0344 46.9242 78.0098C46.7782 76.9852 45.7562 70.6912 46.1942 66.8856C46.6322 63.0799 52.6183 56.4932 53.7863 55.1759C54.6831 54.1644 60.5829 48.2181 63.7669 45.0238C63.9645 44.8256 64.2913 44.8672 64.4063 45.1223C64.9829 46.4014 65.5188 48.9101 64.2984 51.663C62.5464 55.615 65.0284 58.8351 65.3204 59.2743C65.6458 59.7636 65.1713 60.3004 64.6459 60.5638L64.2984 60.738C64.0962 60.8393 63.9232 60.9809 63.7841 61.1247C63.504 61.4141 63.4327 61.8271 63.3864 62.2272C63.3343 62.6774 63.2175 63.1484 62.9844 63.2263C62.7936 63.29 62.6231 63.4434 62.4915 63.6015C62.3109 63.8184 62.2748 64.1107 62.2009 64.3831C62.1815 64.4545 62.1574 64.5208 62.1295 64.5823C61.8415 65.2167 61.1726 65.7551 61.0864 66.4465C60.6484 68.7884 58.4583 68.3493 57.5823 68.2029C56.9395 68.0955 55.4288 67.6516 54.5822 67.3906C54.4407 67.3469 54.2961 67.3125 54.1485 67.3018C52.5318 67.1852 51.5837 68.2281 51.3043 68.7884Z" fill="#4F4F4F"/>
<path d="M46.0017 51.0385C47.6845 48.3352 49.3071 42.1252 49.9081 39.4316C54.7161 43.2516 52.5529 48.07 51.2604 50.5978C49.9081 53.2424 46.3715 56.6523 45.2504 58.5316C44.1987 60.2947 43.5977 63.6739 43.1469 64.8493C42.7863 65.7896 42.4958 65.2411 42.3957 64.8493C42.0952 61.617 43.8982 54.4178 46.0017 51.0385Z" fill="#4F4F4F"/>
<path d="M38.4514 52.0751C39.2417 53.6833 39.4392 55.3298 39.4392 55.9521C39.4566 56.2967 39.6346 56.4786 39.7215 56.5264C40.5683 55.5213 41.5091 53.1281 41.8384 52.0751C41.8384 53.2239 41.6146 54.4813 41.415 55.0905C41.2739 55.5213 41.415 56.0956 41.5562 56.3828C42.6852 55.2341 43.5319 51.9315 43.5319 51.5008C43.5319 51.07 42.5441 45.3264 41.6973 45.3264C40.8505 45.3264 37.4635 50.0649 38.4514 52.0751Z" fill="#4F4F4F"/>
<path d="M37.8815 58.8843C29.0634 57.5025 26.2386 50.0559 26 46.5054C28.3858 46.5534 34.0164 47.4266 36.8794 50.5357C38.2049 51.9751 39.3989 55.2282 38.5972 56.7252C37.223 54.307 34.7799 52.359 33.7301 51.6873C35.7342 53.8464 37.8815 57.4449 38.0246 58.0207C38.1392 58.4813 37.9769 58.7884 37.8815 58.8843Z" fill="#4F4F4F"/>
<defs>
<filter id="filter0_d_2002_7199" x="0.285715" y="0.142857" width="246.429" height="121.429" filterUnits="userSpaceOnUse" color-interpolation-filters="sRGB">
<feFlood flood-opacity="0" result="BackgroundImageFix"/>
<feColorMatrix in="SourceAlpha" type="matrix" values="0 0 0 0 0 0 0 0 0 0 0 0 0 0 0 0 0 0 127 0" result="hardAlpha"/>
<feOffset dy="2.85714"/>
<feGaussianBlur stdDeviation="2.85714"/>
<feComposite in2="hardAlpha" operator="out"/>
<feColorMatrix type="matrix" values="0 0 0 0 0.466667 0 0 0 0 0.466667 0 0 0 0 0.466667 0 0 0 0.25 0"/>
<feBlend mode="normal" in2="BackgroundImageFix" result="effect1_dropShadow_2002_7199"/>
<feBlend mode="normal" in="SourceGraphic" in2="effect1_dropShadow_2002_7199" result="shape"/>
</filter>
<linearGradient id="paint0_linear_2002_7199" x1="6" y1="3" x2="251.314" y2="35.755" gradientUnits="userSpaceOnUse">
<stop stop-color="#DBA237"/>
<stop offset="0.505" stop-color="#EAC279"/>
<stop offset="1" stop-color="#DBA237"/>
</linearGradient>
<radialGradient id="paint1_radial_2002_7199" cx="0" cy="0" r="1" gradientUnits="userSpaceOnUse" gradientTransform="translate(123.5 58) rotate(25.0836) scale(129.735 126.863)">
<stop offset="0.435" stop-color="#F1D7A5"/>
<stop offset="1" stop-color="#E4BF78"/>
</radialGradient>
<clipPath id="clip0_2002_7199">
<rect width="145.302" height="36.6417" fill="white" transform="translate(75.2988 35.2344)"/>
</clipPath>
</defs>
</svg>
