<svg width="247" height="119" viewBox="0 0 247 119" fill="none" xmlns="http://www.w3.org/2000/svg">
<g filter="url(#filter0_d_2007_2822)">
<path d="M6 0H241V95.7143C241 103.604 234.604 110 226.714 110H20.2857C12.3959 110 6 103.604 6 95.7143V0Z" fill="#D9D9D9"/>
<path d="M6 0H241V95.7143C241 103.604 234.604 110 226.714 110H20.2857C12.3959 110 6 103.604 6 95.7143V0Z" fill="#FEEBED"/>
<path d="M6 0H241V95.7143C241 103.604 234.604 110 226.714 110H20.2857C12.3959 110 6 103.604 6 95.7143V0Z" fill="url(#paint0_linear_2007_2822)"/>
<path d="M6 0H241V95.7143C241 103.604 234.604 110 226.714 110H20.2857C12.3959 110 6 103.604 6 95.7143V0Z" fill="url(#paint1_radial_2007_2822)"/>
</g>
<g clip-path="url(#clip0_2007_2822)">
<path fill-rule="evenodd" clip-rule="evenodd" d="M210.853 60.9623V43.459C209.157 44.3985 207.827 45.6647 206.864 47.2586C205.901 48.8525 205.419 50.5172 205.419 52.2535C205.419 54.1319 205.886 55.8395 206.821 57.3763C207.755 58.9132 209.099 60.1085 210.853 60.9623ZM218.444 52.2535C218.444 50.9728 218.214 49.7633 217.754 48.6247C216.892 46.4618 215.31 44.74 213.01 43.459V60.9623C214.735 60.1085 216.072 58.9132 217.021 57.3763C217.97 55.8395 218.444 54.1319 218.444 52.2535ZM220.601 52.2535C220.601 55.0994 219.738 57.5755 218.013 59.6816C216.69 61.2752 215.023 62.5276 213.01 63.4384V67.7074H210.853V63.4384C207.834 61.9869 205.721 60.1013 204.513 57.7677C203.68 56.181 203.263 54.3452 203.263 52.2746C203.263 49.2579 204.255 46.6609 206.239 44.4697C207.446 43.1389 208.985 42.0148 210.853 41.1042V37.8667H213.01V41.0686C214.821 41.9508 216.345 43.0749 217.581 44.441C219.594 46.6609 220.601 49.2652 220.601 52.2535ZM200.244 67.7074H198.044V44.8679L192.567 55.4554V67.7074H190.41V37.8239H192.567V51.1864L200.244 36.7996V67.7074ZM199.511 33C199.424 33.868 199.137 34.5725 198.648 35.1062C197.987 35.839 197.038 36.2019 195.801 36.2019C194.709 36.2019 193.817 35.896 193.127 35.2769C192.437 34.6578 192.092 33.8964 192.092 33H193.559C193.559 33.5835 193.76 34.0602 194.163 34.4231C194.565 34.786 195.111 34.9638 195.801 34.9638C196.492 34.9638 197.038 34.786 197.44 34.4231C197.843 34.0602 198.044 33.5835 198.044 33H199.511ZM183.941 59.3401V41.8796C183.941 40.912 183.704 40.1792 183.229 39.6811C182.755 39.183 182.072 38.9338 181.181 38.9338C180.146 38.9338 179.398 39.2612 178.938 39.9158C178.593 40.4281 178.42 41.0828 178.42 41.8796V59.3401H183.941ZM186.097 67.7074H183.941V61.2185H178.42V67.7074H176.264V61.2185H173.59L171.994 59.3401H176.264V42.2637C176.264 40.471 176.659 39.1546 177.45 38.315C178.241 37.4754 179.441 37.0554 181.051 37.0554C183.15 37.0554 184.588 37.6818 185.364 38.9338C185.853 39.7025 186.097 40.8125 186.097 42.2637V67.7074ZM170.916 67.7074H168.76V41.0116C166.545 42.9826 165.007 45.3446 164.145 48.1054C163.541 50.0122 163.239 52.2605 163.239 54.8505V67.7074H161.083V54.9785C161.083 51.2787 161.729 48.0484 163.023 45.2876C164.605 41.901 167.236 39.0693 170.916 36.7854V67.7074ZM148.359 67.7074H146.203V44.8679L140.682 55.4554V67.7074H138.526V37.8239H140.682V51.1864L148.359 36.7854V67.7074ZM136.025 39.7451H132.315V67.7074H130.159V39.7451H126.45V37.8667H136.025V39.7451ZM122.008 63.4812V42.0929C122.008 40.8979 121.72 40.0438 121.145 39.5318C120.685 39.1332 120.052 38.9338 119.247 38.9338C118.529 38.9338 117.953 39.1046 117.522 39.4464C116.832 39.987 116.487 40.8692 116.487 42.0929V63.4812C116.487 64.6195 116.775 65.445 117.35 65.957C117.839 66.3842 118.471 66.5975 119.247 66.5975C120.024 66.5975 120.642 66.3842 121.102 65.957C121.706 65.4163 122.008 64.5912 122.008 63.4812ZM124.164 63.3104C124.164 64.9894 123.747 66.2701 122.913 67.1523C122.079 68.0348 120.858 68.4758 119.247 68.4758C117.637 68.4758 116.415 68.0348 115.581 67.1523C114.748 66.2701 114.331 64.9894 114.331 63.3104V61.2185H110.406V67.7074H108.25V61.2185H105.403L103.937 59.3401H108.25V37.8239H110.406V59.3401H114.331V42.2637C114.331 40.5847 114.74 39.2968 115.56 38.4004C116.379 37.5038 117.608 37.0554 119.247 37.0554C120.858 37.0554 122.079 37.4968 122.913 38.379C123.747 39.2612 124.164 40.5563 124.164 42.2637V63.3104ZM101.564 63.9507V63.0969C101.564 62.5276 101.45 62.1007 101.219 61.8161C100.874 61.4176 100.256 61.2185 99.365 61.2185H96.044V65.829H99.365C100.314 65.829 100.946 65.6155 101.262 65.1888C101.464 64.9324 101.564 64.5197 101.564 63.9507ZM103.721 64.164C103.721 65.3596 103.347 66.249 102.6 66.8322C101.852 67.4157 100.802 67.7074 99.4513 67.7074H93.8875V61.2185H91.084L89.6179 59.3401H93.8875V37.8667H96.044V59.3401H99.4943C101.219 59.3401 102.398 59.6816 103.031 60.3647C103.491 60.877 103.721 61.6879 103.721 62.7979V64.164ZM87.2454 63.7371V63.3104C87.2454 62.428 87.0012 61.8303 86.5123 61.5172C86.1962 61.318 85.7217 61.2185 85.0892 61.2185H81.7252V65.829H85.0892C86.0091 65.829 86.6273 65.6013 86.9436 65.146C87.1451 64.8615 87.2454 64.3918 87.2454 63.7371ZM89.4021 63.9507C89.4021 64.9182 89.1863 65.6866 88.755 66.2559C88.0077 67.2235 86.6419 67.7074 84.6579 67.7074H79.5684V61.2185H76.7652L75.2988 59.3401H79.5684V37.8667H89.4021V39.7451H81.7252V59.3401H85.8223C86.8863 59.3401 87.6913 59.5392 88.2375 59.9378C89.0138 60.4784 89.4021 61.4318 89.4021 62.7979V63.9507Z" fill="#4F4F4F"/>
</g>
<path d="M76.1481 80.1968V74.7429H76.9194V79.5189H79.958V74.7429H80.7294V80.1968H76.1481ZM80.8462 81.4356V79.9942L81.0332 80.1968H79.958V79.5189H81.5708V81.4356H80.8462ZM84.2306 80.2435C83.7891 80.2435 83.3996 80.1526 83.0619 79.9708C82.7295 79.789 82.4698 79.5397 82.2828 79.2229C82.101 78.906 82.0101 78.5424 82.0101 78.1321C82.0101 77.7217 82.0984 77.3581 82.275 77.0413C82.4568 76.7245 82.7035 76.4777 83.0152 76.3011C83.332 76.1193 83.6878 76.0284 84.0826 76.0284C84.4826 76.0284 84.8358 76.1167 85.1422 76.2933C85.4487 76.4699 85.6876 76.7193 85.859 77.0413C86.0356 77.3581 86.1239 77.7295 86.1239 78.1555C86.1239 78.1866 86.1213 78.223 86.1161 78.2645C86.1161 78.3061 86.1135 78.345 86.1083 78.3814H82.5945V77.8438H85.7188L85.4149 78.0308C85.4201 77.7659 85.3656 77.5296 85.2513 77.3218C85.137 77.114 84.9786 76.953 84.776 76.8387C84.5787 76.7193 84.3475 76.6595 84.0826 76.6595C83.8229 76.6595 83.5918 76.7193 83.3892 76.8387C83.1866 76.953 83.0282 77.1166 82.9139 77.3296C82.7996 77.5373 82.7425 77.7763 82.7425 78.0464V78.171C82.7425 78.4463 82.8048 78.6931 82.9295 78.9112C83.0593 79.1242 83.2385 79.2904 83.4671 79.4099C83.6956 79.5293 83.9579 79.5891 84.254 79.5891C84.4981 79.5891 84.7189 79.5475 84.9163 79.4644C85.1188 79.3813 85.2955 79.2566 85.4461 79.0904L85.859 79.5735C85.672 79.7916 85.4383 79.9578 85.1578 80.0721C84.8825 80.1864 84.5735 80.2435 84.2306 80.2435ZM87.2843 80.1968V76.0674H88.0322V77.8204H90.3852V76.0674H91.1332V80.1968H90.3852V78.4671H88.0322V80.1968H87.2843ZM93.4056 80.1968V76.5271L93.5926 76.7219H91.8941V76.0674H95.6651V76.7219H93.9744L94.1536 76.5271V80.1968H93.4056ZM98.6193 80.2435C98.2765 80.2435 97.9622 80.1656 97.6765 80.0098C97.396 79.8488 97.1701 79.6124 96.9987 79.3008C96.8325 78.9891 96.7494 78.5996 96.7494 78.1321C96.7494 77.6646 96.8299 77.275 96.9909 76.9634C97.1571 76.6517 97.3805 76.418 97.661 76.2622C97.9466 76.1063 98.2661 76.0284 98.6193 76.0284C99.0244 76.0284 99.3828 76.1167 99.6945 76.2933C100.006 76.4699 100.253 76.7167 100.435 77.0335C100.616 77.3452 100.707 77.7114 100.707 78.1321C100.707 78.5528 100.616 78.9216 100.435 79.2384C100.253 79.5553 100.006 79.802 99.6945 79.9786C99.3828 80.1552 99.0244 80.2435 98.6193 80.2435ZM96.4299 81.7083V76.0674H97.1467V77.1815L97.1 78.1399L97.1779 79.0982V81.7083H96.4299ZM98.557 79.5891C98.8219 79.5891 99.0582 79.5293 99.266 79.4099C99.4789 79.2904 99.6451 79.1216 99.7646 78.9034C99.8893 78.6801 99.9516 78.423 99.9516 78.1321C99.9516 77.836 99.8893 77.5815 99.7646 77.3685C99.6451 77.1504 99.4789 76.9816 99.266 76.8621C99.0582 76.7426 98.8219 76.6829 98.557 76.6829C98.2972 76.6829 98.0609 76.7426 97.8479 76.8621C97.6402 76.9816 97.474 77.1504 97.3493 77.3685C97.2298 77.5815 97.1701 77.836 97.1701 78.1321C97.1701 78.423 97.2298 78.6801 97.3493 78.9034C97.474 79.1216 97.6402 79.2904 97.8479 79.4099C98.0609 79.5293 98.2972 79.5891 98.557 79.5891ZM104.814 77.7425V77.1036H107.735V77.7425H104.814ZM105.515 74.6805C105.91 74.6805 106.273 74.7507 106.606 74.8909C106.938 75.026 107.226 75.2207 107.47 75.4753C107.72 75.7246 107.912 76.018 108.047 76.3557C108.187 76.6933 108.257 77.0647 108.257 77.4698C108.257 77.875 108.187 78.2464 108.047 78.584C107.912 78.9216 107.72 79.2177 107.47 79.4722C107.226 79.7215 106.938 79.9163 106.606 80.0565C106.273 80.1916 105.91 80.2591 105.515 80.2591C105.079 80.2591 104.676 80.1864 104.307 80.041C103.944 79.8955 103.637 79.6826 103.388 79.4021L103.879 78.9112C104.097 79.1346 104.338 79.2982 104.603 79.4021C104.873 79.5059 105.164 79.5579 105.476 79.5579C105.762 79.5579 106.026 79.5059 106.271 79.4021C106.515 79.2982 106.725 79.1553 106.902 78.9735C107.083 78.7866 107.224 78.5658 107.322 78.3113C107.421 78.0516 107.47 77.7711 107.47 77.4698C107.47 77.1686 107.421 76.8907 107.322 76.6362C107.224 76.3764 107.083 76.1557 106.902 75.9739C106.725 75.7869 106.515 75.6415 106.271 75.5376C106.026 75.4337 105.762 75.3818 105.476 75.3818C105.164 75.3818 104.873 75.4337 104.603 75.5376C104.338 75.6415 104.097 75.8051 103.879 76.0284L103.388 75.5376C103.637 75.2571 103.944 75.0441 104.307 74.8987C104.676 74.7533 105.079 74.6805 105.515 74.6805ZM111.195 80.2435C110.774 80.2435 110.398 80.1526 110.065 79.9708C109.738 79.789 109.481 79.5397 109.294 79.2229C109.107 78.906 109.013 78.5424 109.013 78.1321C109.013 77.7217 109.107 77.3581 109.294 77.0413C109.481 76.7245 109.738 76.4777 110.065 76.3011C110.398 76.1193 110.774 76.0284 111.195 76.0284C111.569 76.0284 111.901 76.1037 112.192 76.2544C112.488 76.3998 112.717 76.618 112.878 76.9088L112.309 77.275C112.174 77.0725 112.008 76.9244 111.81 76.8309C111.618 76.7322 111.41 76.6829 111.187 76.6829C110.917 76.6829 110.676 76.7426 110.463 76.8621C110.25 76.9816 110.081 77.1504 109.956 77.3685C109.831 77.5815 109.769 77.836 109.769 78.1321C109.769 78.4282 109.831 78.6853 109.956 78.9034C110.081 79.1216 110.25 79.2904 110.463 79.4099C110.676 79.5293 110.917 79.5891 111.187 79.5891C111.41 79.5891 111.618 79.5423 111.81 79.4488C112.008 79.3501 112.174 79.1995 112.309 78.9969L112.878 79.3553C112.717 79.641 112.488 79.8618 112.192 80.0176C111.901 80.1682 111.569 80.2435 111.195 80.2435ZM114.611 80.1968V76.5271L114.798 76.7219H113.1V76.0674H116.871V76.7219H115.18L115.359 76.5271V80.1968H114.611ZM119.291 80.2435C118.85 80.2435 118.46 80.1526 118.123 79.9708C117.79 79.789 117.531 79.5397 117.344 79.2229C117.162 78.906 117.071 78.5424 117.071 78.1321C117.071 77.7217 117.159 77.3581 117.336 77.0413C117.518 76.7245 117.764 76.4777 118.076 76.3011C118.393 76.1193 118.749 76.0284 119.143 76.0284C119.543 76.0284 119.897 76.1167 120.203 76.2933C120.51 76.4699 120.748 76.7193 120.92 77.0413C121.096 77.3581 121.185 77.7295 121.185 78.1555C121.185 78.1866 121.182 78.223 121.177 78.2645C121.177 78.3061 121.174 78.345 121.169 78.3814H117.655V77.8438H120.78L120.476 78.0308C120.481 77.7659 120.426 77.5296 120.312 77.3218C120.198 77.114 120.039 76.953 119.837 76.8387C119.639 76.7193 119.408 76.6595 119.143 76.6595C118.884 76.6595 118.653 76.7193 118.45 76.8387C118.247 76.953 118.089 77.1166 117.975 77.3296C117.86 77.5373 117.803 77.7763 117.803 78.0464V78.171C117.803 78.4463 117.866 78.6931 117.99 78.9112C118.12 79.1242 118.299 79.2904 118.528 79.4099C118.756 79.5293 119.019 79.5891 119.315 79.5891C119.559 79.5891 119.78 79.5475 119.977 79.4644C120.18 79.3813 120.356 79.2566 120.507 79.0904L120.92 79.5735C120.733 79.7916 120.499 79.9578 120.219 80.0721C119.943 80.1864 119.634 80.2435 119.291 80.2435ZM122.988 80.1968V76.5271L123.175 76.7219H121.477V76.0674H125.248V76.7219H123.557L123.736 76.5271V80.1968H122.988ZM126.013 80.1968V76.0674H126.76V79.0748L129.293 76.0674H129.97V80.1968H129.223V77.1893L126.698 80.1968H126.013ZM134.025 78.5061C133.806 78.6099 133.58 78.6931 133.347 78.7554C133.118 78.8125 132.882 78.8411 132.638 78.8411C132.139 78.8411 131.744 78.7242 131.453 78.4905C131.168 78.2567 131.025 77.8957 131.025 77.4075V76.0674H131.773V77.3607C131.773 77.6568 131.864 77.875 132.046 78.0152C132.233 78.1555 132.482 78.2256 132.794 78.2256C132.991 78.2256 133.194 78.1996 133.401 78.1477C133.614 78.0957 133.822 78.023 134.025 77.9295V78.5061ZM133.97 80.1968V76.0674H134.718V80.1968H133.97ZM138.009 80.2435C137.567 80.2435 137.178 80.1526 136.84 79.9708C136.508 79.789 136.248 79.5397 136.061 79.2229C135.879 78.906 135.788 78.5424 135.788 78.1321C135.788 77.7217 135.877 77.3581 136.053 77.0413C136.235 76.7245 136.482 76.4777 136.793 76.3011C137.11 76.1193 137.466 76.0284 137.861 76.0284C138.261 76.0284 138.614 76.1167 138.92 76.2933C139.227 76.4699 139.466 76.7193 139.637 77.0413C139.814 77.3581 139.902 77.7295 139.902 78.1555C139.902 78.1866 139.9 78.223 139.894 78.2645C139.894 78.3061 139.892 78.345 139.887 78.3814H136.373V77.8438H139.497L139.193 78.0308C139.198 77.7659 139.144 77.5296 139.03 77.3218C138.915 77.114 138.757 76.953 138.554 76.8387C138.357 76.7193 138.126 76.6595 137.861 76.6595C137.601 76.6595 137.37 76.7193 137.167 76.8387C136.965 76.953 136.806 77.1166 136.692 77.3296C136.578 77.5373 136.521 77.7763 136.521 78.0464V78.171C136.521 78.4463 136.583 78.6931 136.708 78.9112C136.838 79.1242 137.017 79.2904 137.245 79.4099C137.474 79.5293 137.736 79.5891 138.032 79.5891C138.276 79.5891 138.497 79.5475 138.694 79.4644C138.897 79.3813 139.074 79.2566 139.224 79.0904L139.637 79.5735C139.45 79.7916 139.217 79.9578 138.936 80.0721C138.661 80.1864 138.352 80.2435 138.009 80.2435ZM142.862 80.2435C142.442 80.2435 142.065 80.1526 141.733 79.9708C141.405 79.789 141.148 79.5397 140.961 79.2229C140.774 78.906 140.681 78.5424 140.681 78.1321C140.681 77.7217 140.774 77.3581 140.961 77.0413C141.148 76.7245 141.405 76.4777 141.733 76.3011C142.065 76.1193 142.442 76.0284 142.862 76.0284C143.236 76.0284 143.569 76.1037 143.86 76.2544C144.156 76.3998 144.384 76.618 144.545 76.9088L143.976 77.275C143.841 77.0725 143.675 76.9244 143.478 76.8309C143.286 76.7322 143.078 76.6829 142.855 76.6829C142.584 76.6829 142.343 76.7426 142.13 76.8621C141.917 76.9816 141.748 77.1504 141.623 77.3685C141.499 77.5815 141.436 77.836 141.436 78.1321C141.436 78.4282 141.499 78.6853 141.623 78.9034C141.748 79.1216 141.917 79.2904 142.13 79.4099C142.343 79.5293 142.584 79.5891 142.855 79.5891C143.078 79.5891 143.286 79.5423 143.478 79.4488C143.675 79.3501 143.841 79.1995 143.976 78.9969L144.545 79.3553C144.384 79.641 144.156 79.8618 143.86 80.0176C143.569 80.1682 143.236 80.2435 142.862 80.2435ZM148.505 80.1968L146.908 78.1866L147.524 77.8126L149.386 80.1968H148.505ZM145.514 80.1968V76.0674H146.262V80.1968H145.514ZM146.036 78.4515V77.8126H147.399V78.4515H146.036ZM147.586 78.2178L146.893 78.1243L148.474 76.0674H149.277L147.586 78.2178ZM151.802 80.2435C151.386 80.2435 151.017 80.1526 150.695 79.9708C150.373 79.789 150.119 79.5397 149.932 79.2229C149.745 78.9008 149.651 78.5372 149.651 78.1321C149.651 77.7217 149.745 77.3581 149.932 77.0413C150.119 76.7245 150.373 76.4777 150.695 76.3011C151.017 76.1193 151.386 76.0284 151.802 76.0284C152.212 76.0284 152.578 76.1193 152.9 76.3011C153.228 76.4777 153.482 76.7245 153.664 77.0413C153.851 77.353 153.944 77.7165 153.944 78.1321C153.944 78.5424 153.851 78.906 153.664 79.2229C153.482 79.5397 153.228 79.789 152.9 79.9708C152.578 80.1526 152.212 80.2435 151.802 80.2435ZM151.802 79.5891C152.067 79.5891 152.303 79.5293 152.511 79.4099C152.724 79.2904 152.89 79.1216 153.009 78.9034C153.129 78.6801 153.189 78.423 153.189 78.1321C153.189 77.836 153.129 77.5815 153.009 77.3685C152.89 77.1504 152.724 76.9816 152.511 76.8621C152.303 76.7426 152.067 76.6829 151.802 76.6829C151.537 76.6829 151.301 76.7426 151.093 76.8621C150.885 76.9816 150.719 77.1504 150.594 77.3685C150.469 77.5815 150.407 77.836 150.407 78.1321C150.407 78.423 150.469 78.6801 150.594 78.9034C150.719 79.1216 150.885 79.2904 151.093 79.4099C151.301 79.5293 151.537 79.5891 151.802 79.5891ZM155.024 80.1968V76.0674H155.772V79.0748L158.305 76.0674H158.982V80.1968H158.234V77.1893L155.71 80.1968H155.024ZM156.957 75.5298C156.578 75.5298 156.279 75.4389 156.061 75.2571C155.848 75.0701 155.739 74.8026 155.733 74.4546H156.24C156.245 74.652 156.31 74.8078 156.435 74.9221C156.565 75.0363 156.736 75.0935 156.949 75.0935C157.162 75.0935 157.333 75.0363 157.463 74.9221C157.593 74.8078 157.661 74.652 157.666 74.4546H158.188C158.183 74.8026 158.071 75.0701 157.853 75.2571C157.635 75.4389 157.336 75.5298 156.957 75.5298ZM166.321 80.1968L164.342 77.5088L164.973 77.1192L167.209 80.1968H166.321ZM162.651 80.1968V74.7429H163.415V80.1968H162.651ZM163.181 77.7971V77.1114H164.95V77.7971H163.181ZM165.043 77.5555L164.326 77.4464L166.282 74.7429H167.116L165.043 77.5555ZM169.599 80.2435C169.183 80.2435 168.814 80.1526 168.492 79.9708C168.17 79.789 167.916 79.5397 167.729 79.2229C167.542 78.9008 167.448 78.5372 167.448 78.1321C167.448 77.7217 167.542 77.3581 167.729 77.0413C167.916 76.7245 168.17 76.4777 168.492 76.3011C168.814 76.1193 169.183 76.0284 169.599 76.0284C170.009 76.0284 170.375 76.1193 170.697 76.3011C171.024 76.4777 171.279 76.7245 171.461 77.0413C171.648 77.353 171.741 77.7165 171.741 78.1321C171.741 78.5424 171.648 78.906 171.461 79.2229C171.279 79.5397 171.024 79.789 170.697 79.9708C170.375 80.1526 170.009 80.2435 169.599 80.2435ZM169.599 79.5891C169.863 79.5891 170.1 79.5293 170.308 79.4099C170.52 79.2904 170.687 79.1216 170.806 78.9034C170.926 78.6801 170.985 78.423 170.985 78.1321C170.985 77.836 170.926 77.5815 170.806 77.3685C170.687 77.1504 170.52 76.9816 170.308 76.8621C170.1 76.7426 169.863 76.6829 169.599 76.6829C169.334 76.6829 169.097 76.7426 168.889 76.8621C168.682 76.9816 168.516 77.1504 168.391 77.3685C168.266 77.5815 168.204 77.836 168.204 78.1321C168.204 78.423 168.266 78.6801 168.391 78.9034C168.516 79.1216 168.682 79.2904 168.889 79.4099C169.097 79.5293 169.334 79.5891 169.599 79.5891ZM174.621 80.2435C174.2 80.2435 173.824 80.1526 173.491 79.9708C173.164 79.789 172.907 79.5397 172.72 79.2229C172.533 78.906 172.439 78.5424 172.439 78.1321C172.439 77.7217 172.533 77.3581 172.72 77.0413C172.907 76.7245 173.164 76.4777 173.491 76.3011C173.824 76.1193 174.2 76.0284 174.621 76.0284C174.995 76.0284 175.327 76.1037 175.618 76.2544C175.914 76.3998 176.143 76.618 176.304 76.9088L175.735 77.275C175.6 77.0725 175.434 76.9244 175.236 76.8309C175.044 76.7322 174.837 76.6829 174.613 76.6829C174.343 76.6829 174.102 76.7426 173.889 76.8621C173.676 76.9816 173.507 77.1504 173.382 77.3685C173.257 77.5815 173.195 77.836 173.195 78.1321C173.195 78.4282 173.257 78.6853 173.382 78.9034C173.507 79.1216 173.676 79.2904 173.889 79.4099C174.102 79.5293 174.343 79.5891 174.613 79.5891C174.837 79.5891 175.044 79.5423 175.236 79.4488C175.434 79.3501 175.6 79.1995 175.735 78.9969L176.304 79.3553C176.143 79.641 175.914 79.8618 175.618 80.0176C175.327 80.1682 174.995 80.2435 174.621 80.2435ZM177.272 80.1968V76.0674H178.044L179.82 79.1216H179.508L181.332 76.0674H182.033V80.1968H181.355V76.9088L181.48 76.979L179.812 79.7293H179.485L177.81 76.9244L177.958 76.8933V80.1968H177.272ZM185.327 80.2435C184.886 80.2435 184.496 80.1526 184.159 79.9708C183.826 79.789 183.566 79.5397 183.379 79.2229C183.198 78.906 183.107 78.5424 183.107 78.1321C183.107 77.7217 183.195 77.3581 183.372 77.0413C183.553 76.7245 183.8 76.4777 184.112 76.3011C184.429 76.1193 184.785 76.0284 185.179 76.0284C185.579 76.0284 185.932 76.1167 186.239 76.2933C186.545 76.4699 186.784 76.7193 186.956 77.0413C187.132 77.3581 187.221 77.7295 187.221 78.1555C187.221 78.1866 187.218 78.223 187.213 78.2645C187.213 78.3061 187.21 78.345 187.205 78.3814H183.691V77.8438H186.815L186.512 78.0308C186.517 77.7659 186.462 77.5296 186.348 77.3218C186.234 77.114 186.075 76.953 185.873 76.8387C185.675 76.7193 185.444 76.6595 185.179 76.6595C184.92 76.6595 184.688 76.7193 184.486 76.8387C184.283 76.953 184.125 77.1166 184.011 77.3296C183.896 77.5373 183.839 77.7763 183.839 78.0464V78.171C183.839 78.4463 183.901 78.6931 184.026 78.9112C184.156 79.1242 184.335 79.2904 184.564 79.4099C184.792 79.5293 185.055 79.5891 185.351 79.5891C185.595 79.5891 185.816 79.5475 186.013 79.4644C186.216 79.3813 186.392 79.2566 186.543 79.0904L186.956 79.5735C186.769 79.7916 186.535 79.9578 186.254 80.0721C185.979 80.1864 185.67 80.2435 185.327 80.2435ZM189.024 80.1968V76.5271L189.211 76.7219H187.513V76.0674H191.284V76.7219H189.593L189.772 76.5271V80.1968H189.024ZM193.634 80.2435C193.219 80.2435 192.85 80.1526 192.528 79.9708C192.206 79.789 191.951 79.5397 191.764 79.2229C191.577 78.9008 191.484 78.5372 191.484 78.1321C191.484 77.7217 191.577 77.3581 191.764 77.0413C191.951 76.7245 192.206 76.4777 192.528 76.3011C192.85 76.1193 193.219 76.0284 193.634 76.0284C194.045 76.0284 194.411 76.1193 194.733 76.3011C195.06 76.4777 195.315 76.7245 195.496 77.0413C195.683 77.353 195.777 77.7165 195.777 78.1321C195.777 78.5424 195.683 78.906 195.496 79.2229C195.315 79.5397 195.06 79.789 194.733 79.9708C194.411 80.1526 194.045 80.2435 193.634 80.2435ZM193.634 79.5891C193.899 79.5891 194.136 79.5293 194.343 79.4099C194.556 79.2904 194.723 79.1216 194.842 78.9034C194.961 78.6801 195.021 78.423 195.021 78.1321C195.021 77.836 194.961 77.5815 194.842 77.3685C194.723 77.1504 194.556 76.9816 194.343 76.8621C194.136 76.7426 193.899 76.6829 193.634 76.6829C193.369 76.6829 193.133 76.7426 192.925 76.8621C192.718 76.9816 192.551 77.1504 192.427 77.3685C192.302 77.5815 192.24 77.836 192.24 78.1321C192.24 78.423 192.302 78.6801 192.427 78.9034C192.551 79.1216 192.718 79.2904 192.925 79.4099C193.133 79.5293 193.369 79.5891 193.634 79.5891ZM196.141 80.189L196.188 79.5579C196.224 79.5631 196.258 79.5683 196.289 79.5735C196.32 79.5787 196.349 79.5813 196.375 79.5813C196.541 79.5813 196.671 79.5241 196.764 79.4099C196.863 79.2956 196.936 79.145 196.982 78.958C197.029 78.7658 197.063 78.5502 197.084 78.3113C197.104 78.0723 197.12 77.8334 197.13 77.5945L197.201 76.0674H200.372V80.1968H199.624V76.5037L199.803 76.7219H197.684L197.855 76.4959L197.801 77.6412C197.785 78.0048 197.756 78.345 197.715 78.6619C197.673 78.9787 197.608 79.2566 197.52 79.4956C197.437 79.7345 197.32 79.9215 197.169 80.0565C197.024 80.1916 196.834 80.2591 196.601 80.2591C196.533 80.2591 196.46 80.2513 196.382 80.2357C196.31 80.2253 196.229 80.2098 196.141 80.189ZM203.587 80.2435C203.171 80.2435 202.802 80.1526 202.48 79.9708C202.158 79.789 201.904 79.5397 201.717 79.2229C201.53 78.9008 201.436 78.5372 201.436 78.1321C201.436 77.7217 201.53 77.3581 201.717 77.0413C201.904 76.7245 202.158 76.4777 202.48 76.3011C202.802 76.1193 203.171 76.0284 203.587 76.0284C203.997 76.0284 204.363 76.1193 204.685 76.3011C205.012 76.4777 205.267 76.7245 205.449 77.0413C205.636 77.353 205.729 77.7165 205.729 78.1321C205.729 78.5424 205.636 78.906 205.449 79.2229C205.267 79.5397 205.012 79.789 204.685 79.9708C204.363 80.1526 203.997 80.2435 203.587 80.2435ZM203.587 79.5891C203.851 79.5891 204.088 79.5293 204.296 79.4099C204.508 79.2904 204.675 79.1216 204.794 78.9034C204.914 78.6801 204.973 78.423 204.973 78.1321C204.973 77.836 204.914 77.5815 204.794 77.3685C204.675 77.1504 204.508 76.9816 204.296 76.8621C204.088 76.7426 203.851 76.6829 203.587 76.6829C203.322 76.6829 203.085 76.7426 202.878 76.8621C202.67 76.9816 202.504 77.1504 202.379 77.3685C202.254 77.5815 202.192 77.836 202.192 78.1321C202.192 78.423 202.254 78.6801 202.379 78.9034C202.504 79.1216 202.67 79.2904 202.878 79.4099C203.085 79.5293 203.322 79.5891 203.587 79.5891ZM206.809 80.1968V76.0674H209.848V76.7219H207.378L207.557 76.5504V80.1968H206.809ZM210.614 80.1968V76.0674H211.362V79.0748L213.894 76.0674H214.572V80.1968H213.824V77.1893L211.299 80.1968H210.614ZM216.023 80.1968V76.0674H216.771V79.0748L219.303 76.0674H219.981V80.1968H219.233V77.1893L216.709 80.1968H216.023Z" fill="#4F4F4F"/>
<path d="M34.4463 60.489C37.1743 62.3374 39.4666 66.2652 40.2717 67.998C40.3578 68.17 40.4456 68.3345 40.5312 68.4877C40.7246 68.8338 41.1887 68.7169 41.1933 68.3204C41.235 64.7599 39.6102 61.7676 38.7088 60.6334C37.7142 59.43 35.3272 57.1677 33.7358 57.7453C32.1445 58.3229 33.5464 59.8151 34.4463 60.489Z" fill="#4F4F4F"/>
<path d="M37.9801 58.2421C37.7463 58.2421 37.2983 57.9473 37.1035 57.8L38.2723 57.6526C38.2723 57.8 38.2139 58.2421 37.9801 58.2421Z" fill="#4F4F4F"/>
<path d="M51.3043 65.7884L48.7128 72.803C48.5842 73.1512 48.8959 73.422 49.1667 73.1681C50.0145 72.373 50.7757 71.0022 51.4503 70.3259C52.1511 69.6233 54.0783 69.9356 54.9543 70.1795C59.276 70.8821 61.8164 69.2037 62.5464 68.2767C67.8024 63.1244 69.1165 55.6888 69.1165 52.615C69.8771 43.5728 67.0741 33.0694 65.2691 28.0356C65.1359 27.6642 64.6186 27.6622 64.4657 28.0258C60.6589 37.0766 52.8233 47.8047 49.2603 52.1759C45.6102 57.1525 44.9537 60.9498 44.7342 64.3247C44.2962 71.0578 48.2383 84.963 48.0923 82.7675C47.9462 80.5719 47.0702 76.0344 46.9242 75.0098C46.7782 73.9852 45.7562 67.6912 46.1942 63.8856C46.6322 60.0799 52.6183 53.4932 53.7863 52.1759C54.6831 51.1644 60.5829 45.2181 63.7669 42.0238C63.9645 41.8256 64.2913 41.8672 64.4063 42.1223C64.9829 43.4014 65.5188 45.9101 64.2984 48.663C62.5464 52.615 65.0284 55.8351 65.3204 56.2743C65.6458 56.7636 65.1713 57.3004 64.6459 57.5638L64.2984 57.738C64.0962 57.8393 63.9232 57.9809 63.7841 58.1247C63.504 58.4141 63.4327 58.8271 63.3864 59.2272C63.3343 59.6774 63.2175 60.1484 62.9844 60.2263C62.7936 60.29 62.6231 60.4434 62.4915 60.6015C62.3109 60.8184 62.2748 61.1107 62.2009 61.3831C62.1815 61.4545 62.1574 61.5208 62.1295 61.5823C61.8415 62.2167 61.1726 62.7551 61.0864 63.4465C60.6484 65.7884 58.4583 65.3493 57.5823 65.2029C56.9395 65.0955 55.4288 64.6516 54.5822 64.3906C54.4407 64.3469 54.2961 64.3125 54.1485 64.3018C52.5318 64.1852 51.5837 65.2281 51.3043 65.7884Z" fill="#4F4F4F"/>
<path d="M46.0017 48.0385C47.6845 45.3352 49.3071 39.1252 49.9081 36.4316C54.7161 40.2516 52.5529 45.07 51.2604 47.5978C49.9081 50.2424 46.3715 53.6523 45.2504 55.5316C44.1987 57.2947 43.5977 60.6739 43.1469 61.8493C42.7863 62.7896 42.4958 62.2411 42.3957 61.8493C42.0952 58.617 43.8982 51.4178 46.0017 48.0385Z" fill="#4F4F4F"/>
<path d="M38.4514 49.0751C39.2417 50.6833 39.4392 52.3298 39.4392 52.9521C39.4566 53.2967 39.6346 53.4786 39.7215 53.5264C40.5683 52.5213 41.5091 50.1281 41.8384 49.0751C41.8384 50.2239 41.6146 51.4813 41.415 52.0905C41.2739 52.5213 41.415 53.0956 41.5562 53.3828C42.6852 52.2341 43.5319 48.9315 43.5319 48.5008C43.5319 48.07 42.5441 42.3264 41.6973 42.3264C40.8505 42.3264 37.4635 47.0649 38.4514 49.0751Z" fill="#4F4F4F"/>
<path d="M37.8815 55.8843C29.0634 54.5025 26.2386 47.0559 26 43.5054C28.3858 43.5534 34.0164 44.4266 36.8794 47.5357C38.2049 48.9751 39.3989 52.2282 38.5972 53.7252C37.223 51.307 34.7799 49.359 33.7301 48.6873C35.7342 50.8464 37.8815 54.4449 38.0246 55.0207C38.1392 55.4813 37.9769 55.7884 37.8815 55.8843Z" fill="#4F4F4F"/>
<defs>
<filter id="filter0_d_2007_2822" x="0.285715" y="-2.85714" width="246.429" height="121.429" filterUnits="userSpaceOnUse" color-interpolation-filters="sRGB">
<feFlood flood-opacity="0" result="BackgroundImageFix"/>
<feColorMatrix in="SourceAlpha" type="matrix" values="0 0 0 0 0 0 0 0 0 0 0 0 0 0 0 0 0 0 127 0" result="hardAlpha"/>
<feOffset dy="2.85714"/>
<feGaussianBlur stdDeviation="2.85714"/>
<feComposite in2="hardAlpha" operator="out"/>
<feColorMatrix type="matrix" values="0 0 0 0 0.466667 0 0 0 0 0.466667 0 0 0 0 0.466667 0 0 0 0.25 0"/>
<feBlend mode="normal" in2="BackgroundImageFix" result="effect1_dropShadow_2007_2822"/>
<feBlend mode="normal" in="SourceGraphic" in2="effect1_dropShadow_2007_2822" result="shape"/>
</filter>
<linearGradient id="paint0_linear_2007_2822" x1="6" y1="0" x2="251.314" y2="32.755" gradientUnits="userSpaceOnUse">
<stop stop-color="#DBA237"/>
<stop offset="0.505" stop-color="#EAC279"/>
<stop offset="1" stop-color="#DBA237"/>
</linearGradient>
<radialGradient id="paint1_radial_2007_2822" cx="0" cy="0" r="1" gradientUnits="userSpaceOnUse" gradientTransform="translate(123.5 55) rotate(25.0836) scale(129.735 126.863)">
<stop offset="0.435" stop-color="#F1D7A5"/>
<stop offset="1" stop-color="#E4BF78"/>
</radialGradient>
<clipPath id="clip0_2007_2822">
<rect width="145.302" height="36.6417" fill="white" transform="translate(75.2988 32.2344)"/>
</clipPath>
</defs>
</svg>
