<svg width="370" height="228" viewBox="0 0 370 228" fill="none" xmlns="http://www.w3.org/2000/svg">
<rect width="370" height="228" rx="25" fill="white"/>
<mask id="mask0_68_443" style="mask-type:alpha" maskUnits="userSpaceOnUse" x="0" y="0" width="370" height="228">
<rect width="370" height="228" rx="25" fill="white"/>
<rect width="370" height="228" rx="25" fill="url(#paint0_radial_68_443)"/>
</mask>
<g mask="url(#mask0_68_443)">
<path d="M-27.1851 181.773C-11.4131 183.861 6.96977 195.868 14.1897 201.611C16.4556 203.308 18.6456 204.672 20.0087 205.459C20.3521 205.657 20.7353 205.32 20.5908 204.95C13.6197 187.14 -1.60468 176.381 -8.46844 173.188C-15.3625 170.141 -30.5566 165.53 -36.1798 171.461C-41.8029 177.393 -32.5263 180.807 -27.1851 181.773Z" fill="white"/>
<path d="M-27.1851 181.773C-11.4131 183.861 6.96977 195.868 14.1897 201.611C16.4556 203.308 18.6456 204.672 20.0087 205.459C20.3521 205.657 20.7353 205.32 20.5908 204.95C13.6197 187.14 -1.60468 176.381 -8.46844 173.188C-15.3625 170.141 -30.5566 165.53 -36.1798 171.461C-41.8029 177.393 -32.5263 180.807 -27.1851 181.773Z" fill="url(#paint1_linear_68_443)"/>
<path d="M57.053 168.236L61.4161 207.73C61.4569 208.098 61.9012 208.24 62.1196 207.94C65.6184 203.131 65.6975 192.905 67.4858 187.512C68.9939 182.965 77.9898 180.15 82.2992 179.31C102.477 173.008 109.82 160.273 110.969 154.693C122.533 121.092 112.143 86.1479 105.503 72.876C88.3025 29.8099 50.3243 -11.699 32.687 -27.847C32.396 -28.1134 31.9479 -27.8746 31.9816 -27.4816C36.0642 20.208 24.9407 86.5036 18.82 113.876C13.811 143.249 19.1798 161.063 25.5228 176.109C38.1772 206.127 85.238 257.651 79.8644 248.486C74.4909 239.322 60.9059 221.622 58.062 217.514C55.2182 213.405 37.2084 188.437 30.8781 171.059C24.5479 153.681 36.1649 112.309 38.3623 104.098C40.1053 97.5845 53.5262 56.793 60.185 36.7087C60.2731 36.4431 60.5815 36.3411 60.8144 36.4962C65.8983 39.8831 75.4073 50.0442 76.1621 66.2206C77.1349 87.0694 94.8083 95.6114 97.0178 96.8766C98.1861 97.5456 98.8679 98.527 99.2266 99.3284C99.5081 99.9576 99.3135 100.663 98.9006 101.215L95.7671 105.404C94.4958 107.104 94.0284 109.221 93.9128 110.478C93.8759 110.879 93.9772 111.274 94.1476 111.639C95.2037 113.9 96.628 117.826 95.469 118.987C94.4138 120.044 94.0233 121.914 93.925 123.113C93.8921 123.514 93.9992 123.911 94.154 124.282C95.2072 126.813 94.6034 128.856 93.6993 130.196C93.0434 131.167 92.6023 132.387 92.9931 133.492L94.2304 136.991C97.3985 148.05 86.9939 150.885 82.8953 152.145C79.6759 153.135 71.3287 154.609 67.3456 155.257C67.1995 155.281 67.0563 155.317 66.917 155.367C59.0232 158.19 57.049 165.105 57.053 168.236Z" fill="white"/>
<path d="M57.053 168.236L61.4161 207.73C61.4569 208.098 61.9012 208.24 62.1196 207.94C65.6184 203.131 65.6975 192.905 67.4858 187.512C68.9939 182.965 77.9898 180.15 82.2992 179.31C102.477 173.008 109.82 160.273 110.969 154.693C122.533 121.092 112.143 86.1479 105.503 72.876C88.3025 29.8099 50.3243 -11.699 32.687 -27.847C32.396 -28.1134 31.9479 -27.8746 31.9816 -27.4816C36.0642 20.208 24.9407 86.5036 18.82 113.876C13.811 143.249 19.1798 161.063 25.5228 176.109C38.1772 206.127 85.238 257.651 79.8644 248.486C74.4909 239.322 60.9059 221.622 58.062 217.514C55.2182 213.405 37.2084 188.437 30.8781 171.059C24.5479 153.681 36.1649 112.309 38.3623 104.098C40.1053 97.5845 53.5262 56.793 60.185 36.7087C60.2731 36.4431 60.5815 36.3411 60.8144 36.4962C65.8983 39.8831 75.4073 50.0442 76.1621 66.2206C77.1349 87.0694 94.8083 95.6114 97.0178 96.8766C98.1861 97.5456 98.8679 98.527 99.2266 99.3284C99.5081 99.9576 99.3135 100.663 98.9006 101.215L95.7671 105.404C94.4958 107.104 94.0284 109.221 93.9128 110.478C93.8759 110.879 93.9772 111.274 94.1476 111.639C95.2037 113.9 96.628 117.826 95.469 118.987C94.4138 120.044 94.0233 121.914 93.925 123.113C93.8921 123.514 93.9992 123.911 94.154 124.282C95.2072 126.813 94.6034 128.856 93.6993 130.196C93.0434 131.167 92.6023 132.387 92.9931 133.492L94.2304 136.991C97.3985 148.05 86.9939 150.885 82.8953 152.145C79.6759 153.135 71.3287 154.609 67.3456 155.257C67.1995 155.281 67.0563 155.317 66.917 155.367C59.0232 158.19 57.049 165.105 57.053 168.236Z" fill="url(#paint2_linear_68_443)"/>
<path d="M-4.18819 103.051C-2.76246 87.7434 -9.1716 57.4249 -12.3956 44.4962C16.6165 50.6033 17.6854 76.0813 17.5655 89.7877C17.44 104.128 9.53611 126.491 8.75546 137.028C8.02308 146.912 12.7283 162.801 13.3213 168.85C13.7957 173.689 11.3566 171.948 10.0777 170.473C1.79739 157.166 -5.97035 122.186 -4.18819 103.051Z" fill="white"/>
<path d="M-4.18819 103.051C-2.76246 87.7434 -9.1716 57.4249 -12.3956 44.4962C16.6165 50.6033 17.6854 76.0813 17.5655 89.7877C17.44 104.128 9.53611 126.491 8.75546 137.028C8.02308 146.912 12.7283 162.801 13.3213 168.85C13.7957 173.689 11.3566 171.948 10.0777 170.473C1.79739 157.166 -5.97035 122.186 -4.18819 103.051Z" fill="url(#paint3_linear_68_443)"/>
</g>
<path d="M155.596 94.144C154.636 94.144 153.748 93.988 152.932 93.676C152.128 93.352 151.426 92.902 150.826 92.326C150.238 91.738 149.776 91.054 149.44 90.274C149.104 89.494 148.936 88.636 148.936 87.7C148.936 86.764 149.104 85.906 149.44 85.126C149.776 84.346 150.244 83.668 150.844 83.092C151.444 82.504 152.146 82.054 152.95 81.742C153.766 81.418 154.654 81.256 155.614 81.256C156.586 81.256 157.48 81.424 158.296 81.76C159.124 82.084 159.826 82.57 160.402 83.218L159.232 84.352C158.752 83.848 158.212 83.476 157.612 83.236C157.012 82.984 156.37 82.858 155.686 82.858C154.978 82.858 154.318 82.978 153.706 83.218C153.106 83.458 152.584 83.794 152.14 84.226C151.696 84.658 151.348 85.174 151.096 85.774C150.856 86.362 150.736 87.004 150.736 87.7C150.736 88.396 150.856 89.044 151.096 89.644C151.348 90.232 151.696 90.742 152.14 91.174C152.584 91.606 153.106 91.942 153.706 92.182C154.318 92.422 154.978 92.542 155.686 92.542C156.37 92.542 157.012 92.422 157.612 92.182C158.212 91.93 158.752 91.546 159.232 91.03L160.402 92.164C159.826 92.812 159.124 93.304 158.296 93.64C157.48 93.976 156.58 94.144 155.596 94.144ZM166.438 94.108C165.418 94.108 164.518 93.898 163.738 93.478C162.97 93.058 162.37 92.482 161.938 91.75C161.518 91.018 161.308 90.178 161.308 89.23C161.308 88.282 161.512 87.442 161.92 86.71C162.34 85.978 162.91 85.408 163.63 85C164.362 84.58 165.184 84.37 166.096 84.37C167.02 84.37 167.836 84.574 168.544 84.982C169.252 85.39 169.804 85.966 170.2 86.71C170.608 87.442 170.812 88.3 170.812 89.284C170.812 89.356 170.806 89.44 170.794 89.536C170.794 89.632 170.788 89.722 170.776 89.806H162.658V88.564H169.876L169.174 88.996C169.186 88.384 169.06 87.838 168.796 87.358C168.532 86.878 168.166 86.506 167.698 86.242C167.242 85.966 166.708 85.828 166.096 85.828C165.496 85.828 164.962 85.966 164.494 86.242C164.026 86.506 163.66 86.884 163.396 87.376C163.132 87.856 163 88.408 163 89.032V89.32C163 89.956 163.144 90.526 163.432 91.03C163.732 91.522 164.146 91.906 164.674 92.182C165.202 92.458 165.808 92.596 166.492 92.596C167.056 92.596 167.566 92.5 168.022 92.308C168.49 92.116 168.898 91.828 169.246 91.444L170.2 92.56C169.768 93.064 169.228 93.448 168.58 93.712C167.944 93.976 167.23 94.108 166.438 94.108ZM178.55 94.108C177.758 94.108 177.032 93.928 176.372 93.568C175.724 93.196 175.202 92.65 174.806 91.93C174.422 91.21 174.23 90.31 174.23 89.23C174.23 88.15 174.416 87.25 174.788 86.53C175.172 85.81 175.688 85.27 176.336 84.91C176.996 84.55 177.734 84.37 178.55 84.37C179.486 84.37 180.314 84.574 181.034 84.982C181.754 85.39 182.324 85.96 182.744 86.692C183.164 87.412 183.374 88.258 183.374 89.23C183.374 90.202 183.164 91.054 182.744 91.786C182.324 92.518 181.754 93.088 181.034 93.496C180.314 93.904 179.486 94.108 178.55 94.108ZM173.492 97.492V84.46H175.148V87.034L175.04 89.248L175.22 91.462V97.492H173.492ZM178.406 92.596C179.018 92.596 179.564 92.458 180.044 92.182C180.536 91.906 180.92 91.516 181.196 91.012C181.484 90.496 181.628 89.902 181.628 89.23C181.628 88.546 181.484 87.958 181.196 87.466C180.92 86.962 180.536 86.572 180.044 86.296C179.564 86.02 179.018 85.882 178.406 85.882C177.806 85.882 177.26 86.02 176.768 86.296C176.288 86.572 175.904 86.962 175.616 87.466C175.34 87.958 175.202 88.546 175.202 89.23C175.202 89.902 175.34 90.496 175.616 91.012C175.904 91.516 176.288 91.906 176.768 92.182C177.26 92.458 177.806 92.596 178.406 92.596ZM187.423 94V85.522L187.855 85.972H183.931V84.46H192.643V85.972H188.737L189.151 85.522V94H187.423ZM194.41 94V84.46H196.138V91.408L201.988 84.46H203.554V94H201.826V87.052L195.994 94H194.41ZM212.596 94.144C212.584 94.144 212.542 94.144 212.47 94.144C212.41 94.144 212.35 94.144 212.29 94.144C212.23 94.144 212.194 94.144 212.182 94.144C210.226 94.12 208.708 93.688 207.628 92.848C206.548 91.996 206.008 90.784 206.008 89.212C206.008 87.652 206.548 86.458 207.628 85.63C208.72 84.79 210.256 84.364 212.236 84.352C212.26 84.352 212.296 84.352 212.344 84.352C212.404 84.352 212.458 84.352 212.506 84.352C212.566 84.352 212.602 84.352 212.614 84.352C214.618 84.352 216.172 84.772 217.276 85.612C218.392 86.452 218.95 87.652 218.95 89.212C218.95 90.796 218.392 92.014 217.276 92.866C216.16 93.718 214.6 94.144 212.596 94.144ZM212.56 92.632C213.604 92.632 214.468 92.5 215.152 92.236C215.848 91.972 216.37 91.588 216.718 91.084C217.066 90.58 217.24 89.956 217.24 89.212C217.24 88.48 217.066 87.868 216.718 87.376C216.37 86.884 215.848 86.512 215.152 86.26C214.468 86.008 213.604 85.882 212.56 85.882C212.536 85.882 212.488 85.882 212.416 85.882C212.344 85.882 212.302 85.882 212.29 85.882C211.27 85.882 210.418 86.014 209.734 86.278C209.062 86.53 208.558 86.902 208.222 87.394C207.886 87.886 207.718 88.492 207.718 89.212C207.718 89.944 207.886 90.562 208.222 91.066C208.57 91.57 209.08 91.954 209.752 92.218C210.436 92.482 211.282 92.62 212.29 92.632C212.314 92.632 212.356 92.632 212.416 92.632C212.488 92.632 212.536 92.632 212.56 92.632ZM211.624 97.492V80.644H213.316V97.492H211.624ZM221.393 94V84.46H223.121V91.408L228.971 84.46H230.537V94H228.809V87.052L222.977 94H221.393ZM240.803 94L237.113 89.356L238.535 88.492L242.837 94H240.803ZM233.891 94V84.46H235.619V94H233.891ZM235.097 89.968V88.492H238.247V89.968H235.097ZM238.679 89.428L237.077 89.212L240.731 84.46H242.585L238.679 89.428ZM250.323 94V91.984L250.233 91.606V88.168C250.233 87.436 250.017 86.872 249.585 86.476C249.165 86.068 248.529 85.864 247.677 85.864C247.113 85.864 246.561 85.96 246.021 86.152C245.481 86.332 245.025 86.578 244.653 86.89L243.933 85.594C244.425 85.198 245.013 84.898 245.697 84.694C246.393 84.478 247.119 84.37 247.875 84.37C249.183 84.37 250.191 84.688 250.899 85.324C251.607 85.96 251.961 86.932 251.961 88.24V94H250.323ZM247.191 94.108C246.483 94.108 245.859 93.988 245.319 93.748C244.791 93.508 244.383 93.178 244.095 92.758C243.807 92.326 243.663 91.84 243.663 91.3C243.663 90.784 243.783 90.316 244.023 89.896C244.275 89.476 244.677 89.14 245.229 88.888C245.793 88.636 246.549 88.51 247.497 88.51H250.521V89.752H247.569C246.705 89.752 246.123 89.896 245.823 90.184C245.523 90.472 245.373 90.82 245.373 91.228C245.373 91.696 245.559 92.074 245.931 92.362C246.303 92.638 246.819 92.776 247.479 92.776C248.127 92.776 248.691 92.632 249.171 92.344C249.663 92.056 250.017 91.636 250.233 91.084L250.575 92.272C250.347 92.836 249.945 93.286 249.369 93.622C248.793 93.946 248.067 94.108 247.191 94.108ZM256.962 94V85.522L257.394 85.972H253.47V84.46H262.182V85.972H258.276L258.69 85.522V94H256.962ZM268.783 94V84.46H270.511V88.51H275.947V84.46H277.675V94H275.947V90.004H270.511V94H268.783ZM286.885 94V91.984L286.795 91.606V88.168C286.795 87.436 286.579 86.872 286.147 86.476C285.727 86.068 285.091 85.864 284.239 85.864C283.675 85.864 283.123 85.96 282.583 86.152C282.043 86.332 281.587 86.578 281.215 86.89L280.495 85.594C280.987 85.198 281.575 84.898 282.259 84.694C282.955 84.478 283.681 84.37 284.437 84.37C285.745 84.37 286.753 84.688 287.461 85.324C288.169 85.96 288.523 86.932 288.523 88.24V94H286.885ZM283.753 94.108C283.045 94.108 282.421 93.988 281.881 93.748C281.353 93.508 280.945 93.178 280.657 92.758C280.369 92.326 280.225 91.84 280.225 91.3C280.225 90.784 280.345 90.316 280.585 89.896C280.837 89.476 281.239 89.14 281.791 88.888C282.355 88.636 283.111 88.51 284.059 88.51H287.083V89.752H284.131C283.267 89.752 282.685 89.896 282.385 90.184C282.085 90.472 281.935 90.82 281.935 91.228C281.935 91.696 282.121 92.074 282.493 92.362C282.865 92.638 283.381 92.776 284.041 92.776C284.689 92.776 285.253 92.632 285.733 92.344C286.225 92.056 286.579 91.636 286.795 91.084L287.137 92.272C286.909 92.836 286.507 93.286 285.931 93.622C285.355 93.946 284.629 94.108 283.753 94.108ZM300.627 94.108C299.655 94.108 298.785 93.898 298.017 93.478C297.261 93.058 296.667 92.482 296.235 91.75C295.803 91.018 295.587 90.178 295.587 89.23C295.587 88.282 295.803 87.442 296.235 86.71C296.667 85.978 297.261 85.408 298.017 85C298.785 84.58 299.655 84.37 300.627 84.37C301.491 84.37 302.259 84.544 302.931 84.892C303.615 85.228 304.143 85.732 304.515 86.404L303.201 87.25C302.889 86.782 302.505 86.44 302.049 86.224C301.605 85.996 301.125 85.882 300.609 85.882C299.985 85.882 299.427 86.02 298.935 86.296C298.443 86.572 298.053 86.962 297.765 87.466C297.477 87.958 297.333 88.546 297.333 89.23C297.333 89.914 297.477 90.508 297.765 91.012C298.053 91.516 298.443 91.906 298.935 92.182C299.427 92.458 299.985 92.596 300.609 92.596C301.125 92.596 301.605 92.488 302.049 92.272C302.505 92.044 302.889 91.696 303.201 91.228L304.515 92.056C304.143 92.716 303.615 93.226 302.931 93.586C302.259 93.934 301.491 94.108 300.627 94.108ZM307.115 97.6C306.659 97.6 306.215 97.522 305.783 97.366C305.351 97.222 304.979 97.006 304.667 96.718L305.405 95.422C305.645 95.65 305.909 95.824 306.197 95.944C306.485 96.064 306.791 96.124 307.115 96.124C307.535 96.124 307.883 96.016 308.159 95.8C308.435 95.584 308.693 95.2 308.933 94.648L309.527 93.334L309.707 93.118L313.451 84.46H315.143L310.517 94.954C310.241 95.626 309.929 96.154 309.581 96.538C309.245 96.922 308.873 97.192 308.465 97.348C308.057 97.516 307.607 97.6 307.115 97.6ZM309.383 94.306L305.027 84.46H306.827L310.535 92.956L309.383 94.306ZM316.912 94V84.46H318.694L322.798 91.516H322.078L326.29 84.46H327.91V94H326.344V86.404L326.632 86.566L322.78 92.92H322.024L318.154 86.44L318.496 86.368V94H316.912ZM331.274 94V84.46H333.056L337.16 91.516H336.44L340.652 84.46H342.272V94H340.706V86.404L340.994 86.566L337.142 92.92H336.386L332.516 86.44L332.858 86.368V94H331.274ZM346.121 97.6C345.665 97.6 345.221 97.522 344.789 97.366C344.357 97.222 343.985 97.006 343.673 96.718L344.411 95.422C344.651 95.65 344.915 95.824 345.203 95.944C345.491 96.064 345.797 96.124 346.121 96.124C346.541 96.124 346.889 96.016 347.165 95.8C347.441 95.584 347.699 95.2 347.939 94.648L348.533 93.334L348.713 93.118L352.457 84.46H354.149L349.523 94.954C349.247 95.626 348.935 96.154 348.587 96.538C348.251 96.922 347.879 97.192 347.471 97.348C347.063 97.516 346.613 97.6 346.121 97.6ZM348.389 94.306L344.033 84.46H345.833L349.541 92.956L348.389 94.306Z" fill="white"/>
<path d="M155.596 94.144C154.636 94.144 153.748 93.988 152.932 93.676C152.128 93.352 151.426 92.902 150.826 92.326C150.238 91.738 149.776 91.054 149.44 90.274C149.104 89.494 148.936 88.636 148.936 87.7C148.936 86.764 149.104 85.906 149.44 85.126C149.776 84.346 150.244 83.668 150.844 83.092C151.444 82.504 152.146 82.054 152.95 81.742C153.766 81.418 154.654 81.256 155.614 81.256C156.586 81.256 157.48 81.424 158.296 81.76C159.124 82.084 159.826 82.57 160.402 83.218L159.232 84.352C158.752 83.848 158.212 83.476 157.612 83.236C157.012 82.984 156.37 82.858 155.686 82.858C154.978 82.858 154.318 82.978 153.706 83.218C153.106 83.458 152.584 83.794 152.14 84.226C151.696 84.658 151.348 85.174 151.096 85.774C150.856 86.362 150.736 87.004 150.736 87.7C150.736 88.396 150.856 89.044 151.096 89.644C151.348 90.232 151.696 90.742 152.14 91.174C152.584 91.606 153.106 91.942 153.706 92.182C154.318 92.422 154.978 92.542 155.686 92.542C156.37 92.542 157.012 92.422 157.612 92.182C158.212 91.93 158.752 91.546 159.232 91.03L160.402 92.164C159.826 92.812 159.124 93.304 158.296 93.64C157.48 93.976 156.58 94.144 155.596 94.144ZM166.438 94.108C165.418 94.108 164.518 93.898 163.738 93.478C162.97 93.058 162.37 92.482 161.938 91.75C161.518 91.018 161.308 90.178 161.308 89.23C161.308 88.282 161.512 87.442 161.92 86.71C162.34 85.978 162.91 85.408 163.63 85C164.362 84.58 165.184 84.37 166.096 84.37C167.02 84.37 167.836 84.574 168.544 84.982C169.252 85.39 169.804 85.966 170.2 86.71C170.608 87.442 170.812 88.3 170.812 89.284C170.812 89.356 170.806 89.44 170.794 89.536C170.794 89.632 170.788 89.722 170.776 89.806H162.658V88.564H169.876L169.174 88.996C169.186 88.384 169.06 87.838 168.796 87.358C168.532 86.878 168.166 86.506 167.698 86.242C167.242 85.966 166.708 85.828 166.096 85.828C165.496 85.828 164.962 85.966 164.494 86.242C164.026 86.506 163.66 86.884 163.396 87.376C163.132 87.856 163 88.408 163 89.032V89.32C163 89.956 163.144 90.526 163.432 91.03C163.732 91.522 164.146 91.906 164.674 92.182C165.202 92.458 165.808 92.596 166.492 92.596C167.056 92.596 167.566 92.5 168.022 92.308C168.49 92.116 168.898 91.828 169.246 91.444L170.2 92.56C169.768 93.064 169.228 93.448 168.58 93.712C167.944 93.976 167.23 94.108 166.438 94.108ZM178.55 94.108C177.758 94.108 177.032 93.928 176.372 93.568C175.724 93.196 175.202 92.65 174.806 91.93C174.422 91.21 174.23 90.31 174.23 89.23C174.23 88.15 174.416 87.25 174.788 86.53C175.172 85.81 175.688 85.27 176.336 84.91C176.996 84.55 177.734 84.37 178.55 84.37C179.486 84.37 180.314 84.574 181.034 84.982C181.754 85.39 182.324 85.96 182.744 86.692C183.164 87.412 183.374 88.258 183.374 89.23C183.374 90.202 183.164 91.054 182.744 91.786C182.324 92.518 181.754 93.088 181.034 93.496C180.314 93.904 179.486 94.108 178.55 94.108ZM173.492 97.492V84.46H175.148V87.034L175.04 89.248L175.22 91.462V97.492H173.492ZM178.406 92.596C179.018 92.596 179.564 92.458 180.044 92.182C180.536 91.906 180.92 91.516 181.196 91.012C181.484 90.496 181.628 89.902 181.628 89.23C181.628 88.546 181.484 87.958 181.196 87.466C180.92 86.962 180.536 86.572 180.044 86.296C179.564 86.02 179.018 85.882 178.406 85.882C177.806 85.882 177.26 86.02 176.768 86.296C176.288 86.572 175.904 86.962 175.616 87.466C175.34 87.958 175.202 88.546 175.202 89.23C175.202 89.902 175.34 90.496 175.616 91.012C175.904 91.516 176.288 91.906 176.768 92.182C177.26 92.458 177.806 92.596 178.406 92.596ZM187.423 94V85.522L187.855 85.972H183.931V84.46H192.643V85.972H188.737L189.151 85.522V94H187.423ZM194.41 94V84.46H196.138V91.408L201.988 84.46H203.554V94H201.826V87.052L195.994 94H194.41ZM212.596 94.144C212.584 94.144 212.542 94.144 212.47 94.144C212.41 94.144 212.35 94.144 212.29 94.144C212.23 94.144 212.194 94.144 212.182 94.144C210.226 94.12 208.708 93.688 207.628 92.848C206.548 91.996 206.008 90.784 206.008 89.212C206.008 87.652 206.548 86.458 207.628 85.63C208.72 84.79 210.256 84.364 212.236 84.352C212.26 84.352 212.296 84.352 212.344 84.352C212.404 84.352 212.458 84.352 212.506 84.352C212.566 84.352 212.602 84.352 212.614 84.352C214.618 84.352 216.172 84.772 217.276 85.612C218.392 86.452 218.95 87.652 218.95 89.212C218.95 90.796 218.392 92.014 217.276 92.866C216.16 93.718 214.6 94.144 212.596 94.144ZM212.56 92.632C213.604 92.632 214.468 92.5 215.152 92.236C215.848 91.972 216.37 91.588 216.718 91.084C217.066 90.58 217.24 89.956 217.24 89.212C217.24 88.48 217.066 87.868 216.718 87.376C216.37 86.884 215.848 86.512 215.152 86.26C214.468 86.008 213.604 85.882 212.56 85.882C212.536 85.882 212.488 85.882 212.416 85.882C212.344 85.882 212.302 85.882 212.29 85.882C211.27 85.882 210.418 86.014 209.734 86.278C209.062 86.53 208.558 86.902 208.222 87.394C207.886 87.886 207.718 88.492 207.718 89.212C207.718 89.944 207.886 90.562 208.222 91.066C208.57 91.57 209.08 91.954 209.752 92.218C210.436 92.482 211.282 92.62 212.29 92.632C212.314 92.632 212.356 92.632 212.416 92.632C212.488 92.632 212.536 92.632 212.56 92.632ZM211.624 97.492V80.644H213.316V97.492H211.624ZM221.393 94V84.46H223.121V91.408L228.971 84.46H230.537V94H228.809V87.052L222.977 94H221.393ZM240.803 94L237.113 89.356L238.535 88.492L242.837 94H240.803ZM233.891 94V84.46H235.619V94H233.891ZM235.097 89.968V88.492H238.247V89.968H235.097ZM238.679 89.428L237.077 89.212L240.731 84.46H242.585L238.679 89.428ZM250.323 94V91.984L250.233 91.606V88.168C250.233 87.436 250.017 86.872 249.585 86.476C249.165 86.068 248.529 85.864 247.677 85.864C247.113 85.864 246.561 85.96 246.021 86.152C245.481 86.332 245.025 86.578 244.653 86.89L243.933 85.594C244.425 85.198 245.013 84.898 245.697 84.694C246.393 84.478 247.119 84.37 247.875 84.37C249.183 84.37 250.191 84.688 250.899 85.324C251.607 85.96 251.961 86.932 251.961 88.24V94H250.323ZM247.191 94.108C246.483 94.108 245.859 93.988 245.319 93.748C244.791 93.508 244.383 93.178 244.095 92.758C243.807 92.326 243.663 91.84 243.663 91.3C243.663 90.784 243.783 90.316 244.023 89.896C244.275 89.476 244.677 89.14 245.229 88.888C245.793 88.636 246.549 88.51 247.497 88.51H250.521V89.752H247.569C246.705 89.752 246.123 89.896 245.823 90.184C245.523 90.472 245.373 90.82 245.373 91.228C245.373 91.696 245.559 92.074 245.931 92.362C246.303 92.638 246.819 92.776 247.479 92.776C248.127 92.776 248.691 92.632 249.171 92.344C249.663 92.056 250.017 91.636 250.233 91.084L250.575 92.272C250.347 92.836 249.945 93.286 249.369 93.622C248.793 93.946 248.067 94.108 247.191 94.108ZM256.962 94V85.522L257.394 85.972H253.47V84.46H262.182V85.972H258.276L258.69 85.522V94H256.962ZM268.783 94V84.46H270.511V88.51H275.947V84.46H277.675V94H275.947V90.004H270.511V94H268.783ZM286.885 94V91.984L286.795 91.606V88.168C286.795 87.436 286.579 86.872 286.147 86.476C285.727 86.068 285.091 85.864 284.239 85.864C283.675 85.864 283.123 85.96 282.583 86.152C282.043 86.332 281.587 86.578 281.215 86.89L280.495 85.594C280.987 85.198 281.575 84.898 282.259 84.694C282.955 84.478 283.681 84.37 284.437 84.37C285.745 84.37 286.753 84.688 287.461 85.324C288.169 85.96 288.523 86.932 288.523 88.24V94H286.885ZM283.753 94.108C283.045 94.108 282.421 93.988 281.881 93.748C281.353 93.508 280.945 93.178 280.657 92.758C280.369 92.326 280.225 91.84 280.225 91.3C280.225 90.784 280.345 90.316 280.585 89.896C280.837 89.476 281.239 89.14 281.791 88.888C282.355 88.636 283.111 88.51 284.059 88.51H287.083V89.752H284.131C283.267 89.752 282.685 89.896 282.385 90.184C282.085 90.472 281.935 90.82 281.935 91.228C281.935 91.696 282.121 92.074 282.493 92.362C282.865 92.638 283.381 92.776 284.041 92.776C284.689 92.776 285.253 92.632 285.733 92.344C286.225 92.056 286.579 91.636 286.795 91.084L287.137 92.272C286.909 92.836 286.507 93.286 285.931 93.622C285.355 93.946 284.629 94.108 283.753 94.108ZM300.627 94.108C299.655 94.108 298.785 93.898 298.017 93.478C297.261 93.058 296.667 92.482 296.235 91.75C295.803 91.018 295.587 90.178 295.587 89.23C295.587 88.282 295.803 87.442 296.235 86.71C296.667 85.978 297.261 85.408 298.017 85C298.785 84.58 299.655 84.37 300.627 84.37C301.491 84.37 302.259 84.544 302.931 84.892C303.615 85.228 304.143 85.732 304.515 86.404L303.201 87.25C302.889 86.782 302.505 86.44 302.049 86.224C301.605 85.996 301.125 85.882 300.609 85.882C299.985 85.882 299.427 86.02 298.935 86.296C298.443 86.572 298.053 86.962 297.765 87.466C297.477 87.958 297.333 88.546 297.333 89.23C297.333 89.914 297.477 90.508 297.765 91.012C298.053 91.516 298.443 91.906 298.935 92.182C299.427 92.458 299.985 92.596 300.609 92.596C301.125 92.596 301.605 92.488 302.049 92.272C302.505 92.044 302.889 91.696 303.201 91.228L304.515 92.056C304.143 92.716 303.615 93.226 302.931 93.586C302.259 93.934 301.491 94.108 300.627 94.108ZM307.115 97.6C306.659 97.6 306.215 97.522 305.783 97.366C305.351 97.222 304.979 97.006 304.667 96.718L305.405 95.422C305.645 95.65 305.909 95.824 306.197 95.944C306.485 96.064 306.791 96.124 307.115 96.124C307.535 96.124 307.883 96.016 308.159 95.8C308.435 95.584 308.693 95.2 308.933 94.648L309.527 93.334L309.707 93.118L313.451 84.46H315.143L310.517 94.954C310.241 95.626 309.929 96.154 309.581 96.538C309.245 96.922 308.873 97.192 308.465 97.348C308.057 97.516 307.607 97.6 307.115 97.6ZM309.383 94.306L305.027 84.46H306.827L310.535 92.956L309.383 94.306ZM316.912 94V84.46H318.694L322.798 91.516H322.078L326.29 84.46H327.91V94H326.344V86.404L326.632 86.566L322.78 92.92H322.024L318.154 86.44L318.496 86.368V94H316.912ZM331.274 94V84.46H333.056L337.16 91.516H336.44L340.652 84.46H342.272V94H340.706V86.404L340.994 86.566L337.142 92.92H336.386L332.516 86.44L332.858 86.368V94H331.274ZM346.121 97.6C345.665 97.6 345.221 97.522 344.789 97.366C344.357 97.222 343.985 97.006 343.673 96.718L344.411 95.422C344.651 95.65 344.915 95.824 345.203 95.944C345.491 96.064 345.797 96.124 346.121 96.124C346.541 96.124 346.889 96.016 347.165 95.8C347.441 95.584 347.699 95.2 347.939 94.648L348.533 93.334L348.713 93.118L352.457 84.46H354.149L349.523 94.954C349.247 95.626 348.935 96.154 348.587 96.538C348.251 96.922 347.879 97.192 347.471 97.348C347.063 97.516 346.613 97.6 346.121 97.6ZM348.389 94.306L344.033 84.46H345.833L349.541 92.956L348.389 94.306Z" fill="url(#paint4_linear_68_443)"/>
<path d="M154.615 146V117.2L157.765 120.35H148.315V114.5H161.905V146H154.615ZM180.877 146.54C178.297 146.54 175.987 145.91 173.947 144.65C171.907 143.36 170.302 141.5 169.132 139.07C167.962 136.64 167.377 133.7 167.377 130.25C167.377 126.8 167.962 123.86 169.132 121.43C170.302 119 171.907 117.155 173.947 115.895C175.987 114.605 178.297 113.96 180.877 113.96C183.487 113.96 185.797 114.605 187.807 115.895C189.847 117.155 191.452 119 192.622 121.43C193.792 123.86 194.377 126.8 194.377 130.25C194.377 133.7 193.792 136.64 192.622 139.07C191.452 141.5 189.847 143.36 187.807 144.65C185.797 145.91 183.487 146.54 180.877 146.54ZM180.877 140.375C182.107 140.375 183.172 140.03 184.072 139.34C185.002 138.65 185.722 137.555 186.232 136.055C186.772 134.555 187.042 132.62 187.042 130.25C187.042 127.88 186.772 125.945 186.232 124.445C185.722 122.945 185.002 121.85 184.072 121.16C183.172 120.47 182.107 120.125 180.877 120.125C179.677 120.125 178.612 120.47 177.682 121.16C176.782 121.85 176.062 122.945 175.522 124.445C175.012 125.945 174.757 127.88 174.757 130.25C174.757 132.62 175.012 134.555 175.522 136.055C176.062 137.555 176.782 138.65 177.682 139.34C178.612 140.03 179.677 140.375 180.877 140.375ZM224.163 146.54C221.583 146.54 219.273 145.91 217.233 144.65C215.193 143.36 213.588 141.5 212.418 139.07C211.248 136.64 210.663 133.7 210.663 130.25C210.663 126.8 211.248 123.86 212.418 121.43C213.588 119 215.193 117.155 217.233 115.895C219.273 114.605 221.583 113.96 224.163 113.96C226.773 113.96 229.083 114.605 231.093 115.895C233.133 117.155 234.738 119 235.908 121.43C237.078 123.86 237.663 126.8 237.663 130.25C237.663 133.7 237.078 136.64 235.908 139.07C234.738 141.5 233.133 143.36 231.093 144.65C229.083 145.91 226.773 146.54 224.163 146.54ZM224.163 140.375C225.393 140.375 226.458 140.03 227.358 139.34C228.288 138.65 229.008 137.555 229.518 136.055C230.058 134.555 230.328 132.62 230.328 130.25C230.328 127.88 230.058 125.945 229.518 124.445C229.008 122.945 228.288 121.85 227.358 121.16C226.458 120.47 225.393 120.125 224.163 120.125C222.963 120.125 221.898 120.47 220.968 121.16C220.068 121.85 219.348 122.945 218.808 124.445C218.298 125.945 218.043 127.88 218.043 130.25C218.043 132.62 218.298 134.555 218.808 136.055C219.348 137.555 220.068 138.65 220.968 139.34C221.898 140.03 222.963 140.375 224.163 140.375ZM254.705 146.54C252.125 146.54 249.815 145.91 247.775 144.65C245.735 143.36 244.13 141.5 242.96 139.07C241.79 136.64 241.205 133.7 241.205 130.25C241.205 126.8 241.79 123.86 242.96 121.43C244.13 119 245.735 117.155 247.775 115.895C249.815 114.605 252.125 113.96 254.705 113.96C257.315 113.96 259.625 114.605 261.635 115.895C263.675 117.155 265.28 119 266.45 121.43C267.62 123.86 268.205 126.8 268.205 130.25C268.205 133.7 267.62 136.64 266.45 139.07C265.28 141.5 263.675 143.36 261.635 144.65C259.625 145.91 257.315 146.54 254.705 146.54ZM254.705 140.375C255.935 140.375 257 140.03 257.9 139.34C258.83 138.65 259.55 137.555 260.06 136.055C260.6 134.555 260.87 132.62 260.87 130.25C260.87 127.88 260.6 125.945 260.06 124.445C259.55 122.945 258.83 121.85 257.9 121.16C257 120.47 255.935 120.125 254.705 120.125C253.505 120.125 252.44 120.47 251.51 121.16C250.61 121.85 249.89 122.945 249.35 124.445C248.84 125.945 248.585 127.88 248.585 130.25C248.585 132.62 248.84 134.555 249.35 136.055C249.89 137.555 250.61 138.65 251.51 139.34C252.44 140.03 253.505 140.375 254.705 140.375ZM285.247 146.54C282.667 146.54 280.357 145.91 278.317 144.65C276.277 143.36 274.672 141.5 273.502 139.07C272.332 136.64 271.747 133.7 271.747 130.25C271.747 126.8 272.332 123.86 273.502 121.43C274.672 119 276.277 117.155 278.317 115.895C280.357 114.605 282.667 113.96 285.247 113.96C287.857 113.96 290.167 114.605 292.177 115.895C294.217 117.155 295.822 119 296.992 121.43C298.162 123.86 298.747 126.8 298.747 130.25C298.747 133.7 298.162 136.64 296.992 139.07C295.822 141.5 294.217 143.36 292.177 144.65C290.167 145.91 287.857 146.54 285.247 146.54ZM285.247 140.375C286.477 140.375 287.542 140.03 288.442 139.34C289.372 138.65 290.092 137.555 290.602 136.055C291.142 134.555 291.412 132.62 291.412 130.25C291.412 127.88 291.142 125.945 290.602 124.445C290.092 122.945 289.372 121.85 288.442 121.16C287.542 120.47 286.477 120.125 285.247 120.125C284.047 120.125 282.982 120.47 282.052 121.16C281.152 121.85 280.432 122.945 279.892 124.445C279.382 125.945 279.127 127.88 279.127 130.25C279.127 132.62 279.382 134.555 279.892 136.055C280.432 137.555 281.152 138.65 282.052 139.34C282.982 140.03 284.047 140.375 285.247 140.375ZM318.993 146V114.5H332.628C336.828 114.5 340.158 115.385 342.618 117.155C345.078 118.925 346.308 121.58 346.308 125.12C346.308 128.63 345.078 131.27 342.618 133.04C340.158 134.81 336.828 135.695 332.628 135.695H323.043L326.328 132.455V146H318.993ZM326.328 133.22L323.043 129.98H332.583C334.593 129.98 336.153 129.575 337.263 128.765C338.373 127.925 338.928 126.725 338.928 125.165C338.928 123.635 338.373 122.465 337.263 121.655C336.153 120.845 334.593 120.44 332.583 120.44H323.043L326.328 116.975V133.22ZM314.628 141.95V138.215H336.048V141.95H314.628Z" fill="white"/>
<path d="M154.615 146V117.2L157.765 120.35H148.315V114.5H161.905V146H154.615ZM180.877 146.54C178.297 146.54 175.987 145.91 173.947 144.65C171.907 143.36 170.302 141.5 169.132 139.07C167.962 136.64 167.377 133.7 167.377 130.25C167.377 126.8 167.962 123.86 169.132 121.43C170.302 119 171.907 117.155 173.947 115.895C175.987 114.605 178.297 113.96 180.877 113.96C183.487 113.96 185.797 114.605 187.807 115.895C189.847 117.155 191.452 119 192.622 121.43C193.792 123.86 194.377 126.8 194.377 130.25C194.377 133.7 193.792 136.64 192.622 139.07C191.452 141.5 189.847 143.36 187.807 144.65C185.797 145.91 183.487 146.54 180.877 146.54ZM180.877 140.375C182.107 140.375 183.172 140.03 184.072 139.34C185.002 138.65 185.722 137.555 186.232 136.055C186.772 134.555 187.042 132.62 187.042 130.25C187.042 127.88 186.772 125.945 186.232 124.445C185.722 122.945 185.002 121.85 184.072 121.16C183.172 120.47 182.107 120.125 180.877 120.125C179.677 120.125 178.612 120.47 177.682 121.16C176.782 121.85 176.062 122.945 175.522 124.445C175.012 125.945 174.757 127.88 174.757 130.25C174.757 132.62 175.012 134.555 175.522 136.055C176.062 137.555 176.782 138.65 177.682 139.34C178.612 140.03 179.677 140.375 180.877 140.375ZM224.163 146.54C221.583 146.54 219.273 145.91 217.233 144.65C215.193 143.36 213.588 141.5 212.418 139.07C211.248 136.64 210.663 133.7 210.663 130.25C210.663 126.8 211.248 123.86 212.418 121.43C213.588 119 215.193 117.155 217.233 115.895C219.273 114.605 221.583 113.96 224.163 113.96C226.773 113.96 229.083 114.605 231.093 115.895C233.133 117.155 234.738 119 235.908 121.43C237.078 123.86 237.663 126.8 237.663 130.25C237.663 133.7 237.078 136.64 235.908 139.07C234.738 141.5 233.133 143.36 231.093 144.65C229.083 145.91 226.773 146.54 224.163 146.54ZM224.163 140.375C225.393 140.375 226.458 140.03 227.358 139.34C228.288 138.65 229.008 137.555 229.518 136.055C230.058 134.555 230.328 132.62 230.328 130.25C230.328 127.88 230.058 125.945 229.518 124.445C229.008 122.945 228.288 121.85 227.358 121.16C226.458 120.47 225.393 120.125 224.163 120.125C222.963 120.125 221.898 120.47 220.968 121.16C220.068 121.85 219.348 122.945 218.808 124.445C218.298 125.945 218.043 127.88 218.043 130.25C218.043 132.62 218.298 134.555 218.808 136.055C219.348 137.555 220.068 138.65 220.968 139.34C221.898 140.03 222.963 140.375 224.163 140.375ZM254.705 146.54C252.125 146.54 249.815 145.91 247.775 144.65C245.735 143.36 244.13 141.5 242.96 139.07C241.79 136.64 241.205 133.7 241.205 130.25C241.205 126.8 241.79 123.86 242.96 121.43C244.13 119 245.735 117.155 247.775 115.895C249.815 114.605 252.125 113.96 254.705 113.96C257.315 113.96 259.625 114.605 261.635 115.895C263.675 117.155 265.28 119 266.45 121.43C267.62 123.86 268.205 126.8 268.205 130.25C268.205 133.7 267.62 136.64 266.45 139.07C265.28 141.5 263.675 143.36 261.635 144.65C259.625 145.91 257.315 146.54 254.705 146.54ZM254.705 140.375C255.935 140.375 257 140.03 257.9 139.34C258.83 138.65 259.55 137.555 260.06 136.055C260.6 134.555 260.87 132.62 260.87 130.25C260.87 127.88 260.6 125.945 260.06 124.445C259.55 122.945 258.83 121.85 257.9 121.16C257 120.47 255.935 120.125 254.705 120.125C253.505 120.125 252.44 120.47 251.51 121.16C250.61 121.85 249.89 122.945 249.35 124.445C248.84 125.945 248.585 127.88 248.585 130.25C248.585 132.62 248.84 134.555 249.35 136.055C249.89 137.555 250.61 138.65 251.51 139.34C252.44 140.03 253.505 140.375 254.705 140.375ZM285.247 146.54C282.667 146.54 280.357 145.91 278.317 144.65C276.277 143.36 274.672 141.5 273.502 139.07C272.332 136.64 271.747 133.7 271.747 130.25C271.747 126.8 272.332 123.86 273.502 121.43C274.672 119 276.277 117.155 278.317 115.895C280.357 114.605 282.667 113.96 285.247 113.96C287.857 113.96 290.167 114.605 292.177 115.895C294.217 117.155 295.822 119 296.992 121.43C298.162 123.86 298.747 126.8 298.747 130.25C298.747 133.7 298.162 136.64 296.992 139.07C295.822 141.5 294.217 143.36 292.177 144.65C290.167 145.91 287.857 146.54 285.247 146.54ZM285.247 140.375C286.477 140.375 287.542 140.03 288.442 139.34C289.372 138.65 290.092 137.555 290.602 136.055C291.142 134.555 291.412 132.62 291.412 130.25C291.412 127.88 291.142 125.945 290.602 124.445C290.092 122.945 289.372 121.85 288.442 121.16C287.542 120.47 286.477 120.125 285.247 120.125C284.047 120.125 282.982 120.47 282.052 121.16C281.152 121.85 280.432 122.945 279.892 124.445C279.382 125.945 279.127 127.88 279.127 130.25C279.127 132.62 279.382 134.555 279.892 136.055C280.432 137.555 281.152 138.65 282.052 139.34C282.982 140.03 284.047 140.375 285.247 140.375ZM318.993 146V114.5H332.628C336.828 114.5 340.158 115.385 342.618 117.155C345.078 118.925 346.308 121.58 346.308 125.12C346.308 128.63 345.078 131.27 342.618 133.04C340.158 134.81 336.828 135.695 332.628 135.695H323.043L326.328 132.455V146H318.993ZM326.328 133.22L323.043 129.98H332.583C334.593 129.98 336.153 129.575 337.263 128.765C338.373 127.925 338.928 126.725 338.928 125.165C338.928 123.635 338.373 122.465 337.263 121.655C336.153 120.845 334.593 120.44 332.583 120.44H323.043L326.328 116.975V133.22ZM314.628 141.95V138.215H336.048V141.95H314.628Z" fill="url(#paint5_linear_68_443)"/>
<path fill-rule="evenodd" clip-rule="evenodd" d="M347.218 37.9345V23.961C345.864 24.711 344.802 25.7219 344.034 26.9943C343.264 28.2668 342.88 29.5958 342.88 30.9819C342.88 32.4815 343.253 33.8448 343.999 35.0717C344.745 36.2986 345.818 37.2529 347.218 37.9345ZM353.278 30.9819C353.278 29.9595 353.095 28.9939 352.728 28.0849C352.039 26.3582 350.776 24.9836 348.94 23.961V37.9345C350.317 37.2529 351.385 36.2986 352.142 35.0717C352.9 33.8448 353.278 32.4815 353.278 30.9819ZM355 30.9819C355 33.254 354.311 35.2307 352.934 36.9121C351.878 38.1843 350.547 39.1841 348.94 39.9113V43.3194H347.218V39.9113C344.808 38.7525 343.121 37.2471 342.157 35.3841C341.491 34.1174 341.158 32.6518 341.158 30.9988C341.158 28.5905 341.95 26.5172 343.534 24.7678C344.498 23.7054 345.726 22.808 347.218 22.081V19.4964H348.94V22.0526C350.386 22.7569 351.603 23.6543 352.59 24.7449C354.197 26.5172 355 28.5962 355 30.9819ZM338.748 43.3194H336.992V25.0858L332.619 33.5382V43.3194H330.898V19.4622H332.619V30.13L338.748 18.6445V43.3194ZM338.163 15.6111C338.094 16.3041 337.865 16.8665 337.474 17.2926C336.946 17.8776 336.189 18.1674 335.202 18.1674C334.329 18.1674 333.618 17.9231 333.067 17.4289C332.516 16.9347 332.241 16.3267 332.241 15.6111H333.411C333.411 16.077 333.572 16.4575 333.893 16.7473C334.215 17.037 334.651 17.1789 335.202 17.1789C335.753 17.1789 336.189 17.037 336.51 16.7473C336.831 16.4575 336.992 16.077 336.992 15.6111H338.163ZM325.733 36.6394V22.7001C325.733 21.9276 325.544 21.3426 325.165 20.9449C324.786 20.5473 324.241 20.3483 323.529 20.3483C322.703 20.3483 322.106 20.6097 321.739 21.1323C321.464 21.5413 321.326 22.064 321.326 22.7001V36.6394H325.733ZM327.455 43.3194H325.733V38.139H321.326V43.3194H319.604V38.139H317.47L316.195 36.6394H319.604V23.0067C319.604 21.5755 319.92 20.5246 320.551 19.8543C321.183 19.184 322.141 18.8488 323.426 18.8488C325.102 18.8488 326.25 19.3488 326.869 20.3483C327.259 20.962 327.455 21.8481 327.455 23.0067V43.3194ZM315.335 43.3194H313.613V22.0071C311.846 23.5806 310.618 25.4663 309.929 27.6704C309.447 29.1926 309.206 30.9875 309.206 33.0552V43.3194H307.484V33.1574C307.484 30.2037 308.001 27.6249 309.034 25.4208C310.296 22.7172 312.397 20.4565 315.335 18.6332V43.3194ZM297.327 43.3194H295.605V25.0858L291.198 33.5382V43.3194H289.477V19.4622H291.198V30.13L297.327 18.6332V43.3194ZM287.48 20.996H284.519V43.3194H282.797V20.996H279.836V19.4964H287.48V20.996ZM276.289 39.9454V22.8704C276.289 21.9163 276.06 21.2345 275.601 20.8257C275.234 20.5075 274.728 20.3483 274.086 20.3483C273.512 20.3483 273.053 20.4847 272.708 20.7575C272.158 21.1892 271.882 21.8934 271.882 22.8704V39.9454C271.882 40.8542 272.112 41.5132 272.571 41.9219C272.961 42.263 273.466 42.4333 274.086 42.4333C274.705 42.4333 275.199 42.263 275.566 41.9219C276.048 41.4903 276.289 40.8316 276.289 39.9454ZM278.011 39.8091C278.011 41.1495 277.678 42.1719 277.013 42.8762C276.347 43.5807 275.371 43.9328 274.086 43.9328C272.8 43.9328 271.825 43.5807 271.159 42.8762C270.493 42.1719 270.161 41.1495 270.161 39.8091V38.139H267.027V43.3194H265.306V38.139H263.033L261.863 36.6394H265.306V19.4622H267.027V36.6394H270.161V23.0067C270.161 21.6663 270.488 20.6381 271.142 19.9225C271.796 19.2067 272.777 18.8488 274.086 18.8488C275.371 18.8488 276.347 19.2011 277.013 19.9054C277.678 20.6097 278.011 21.6437 278.011 23.0067V39.8091ZM259.969 40.3202V39.6386C259.969 39.1841 259.877 38.8433 259.693 38.6162C259.418 38.298 258.924 38.139 258.213 38.139H255.562V41.8198H258.213C258.97 41.8198 259.475 41.6493 259.728 41.3087C259.889 41.104 259.969 40.7745 259.969 40.3202ZM261.69 40.4905C261.69 41.445 261.392 42.1551 260.795 42.6207C260.199 43.0865 259.361 43.3194 258.282 43.3194H253.84V38.139H251.602L250.431 36.6394H253.84V19.4964H255.562V36.6394H258.316C259.693 36.6394 260.635 36.9121 261.14 37.4574C261.507 37.8664 261.69 38.5138 261.69 39.3999V40.4905ZM248.537 40.1497V39.8091C248.537 39.1046 248.342 38.6275 247.952 38.3775C247.7 38.2185 247.321 38.139 246.816 38.139H244.13V41.8198H246.816C247.55 41.8198 248.044 41.638 248.296 41.2745C248.457 41.0474 248.537 40.6724 248.537 40.1497ZM250.259 40.3202C250.259 41.0927 250.087 41.7061 249.743 42.1606C249.146 42.9331 248.056 43.3194 246.472 43.3194H242.409V38.139H240.171L239 36.6394H242.409V19.4964H250.259V20.996H244.13V36.6394H247.401C248.251 36.6394 248.893 36.7984 249.329 37.1166C249.949 37.5482 250.259 38.3093 250.259 39.3999V40.3202Z" fill="white"/>
<path fill-rule="evenodd" clip-rule="evenodd" d="M347.218 37.9345V23.961C345.864 24.711 344.802 25.7219 344.034 26.9943C343.264 28.2668 342.88 29.5958 342.88 30.9819C342.88 32.4815 343.253 33.8448 343.999 35.0717C344.745 36.2986 345.818 37.2529 347.218 37.9345ZM353.278 30.9819C353.278 29.9595 353.095 28.9939 352.728 28.0849C352.039 26.3582 350.776 24.9836 348.94 23.961V37.9345C350.317 37.2529 351.385 36.2986 352.142 35.0717C352.9 33.8448 353.278 32.4815 353.278 30.9819ZM355 30.9819C355 33.254 354.311 35.2307 352.934 36.9121C351.878 38.1843 350.547 39.1841 348.94 39.9113V43.3194H347.218V39.9113C344.808 38.7525 343.121 37.2471 342.157 35.3841C341.491 34.1174 341.158 32.6518 341.158 30.9988C341.158 28.5905 341.95 26.5172 343.534 24.7678C344.498 23.7054 345.726 22.808 347.218 22.081V19.4964H348.94V22.0526C350.386 22.7569 351.603 23.6543 352.59 24.7449C354.197 26.5172 355 28.5962 355 30.9819ZM338.748 43.3194H336.992V25.0858L332.619 33.5382V43.3194H330.898V19.4622H332.619V30.13L338.748 18.6445V43.3194ZM338.163 15.6111C338.094 16.3041 337.865 16.8665 337.474 17.2926C336.946 17.8776 336.189 18.1674 335.202 18.1674C334.329 18.1674 333.618 17.9231 333.067 17.4289C332.516 16.9347 332.241 16.3267 332.241 15.6111H333.411C333.411 16.077 333.572 16.4575 333.893 16.7473C334.215 17.037 334.651 17.1789 335.202 17.1789C335.753 17.1789 336.189 17.037 336.51 16.7473C336.831 16.4575 336.992 16.077 336.992 15.6111H338.163ZM325.733 36.6394V22.7001C325.733 21.9276 325.544 21.3426 325.165 20.9449C324.786 20.5473 324.241 20.3483 323.529 20.3483C322.703 20.3483 322.106 20.6097 321.739 21.1323C321.464 21.5413 321.326 22.064 321.326 22.7001V36.6394H325.733ZM327.455 43.3194H325.733V38.139H321.326V43.3194H319.604V38.139H317.47L316.195 36.6394H319.604V23.0067C319.604 21.5755 319.92 20.5246 320.551 19.8543C321.183 19.184 322.141 18.8488 323.426 18.8488C325.102 18.8488 326.25 19.3488 326.869 20.3483C327.259 20.962 327.455 21.8481 327.455 23.0067V43.3194ZM315.335 43.3194H313.613V22.0071C311.846 23.5806 310.618 25.4663 309.929 27.6704C309.447 29.1926 309.206 30.9875 309.206 33.0552V43.3194H307.484V33.1574C307.484 30.2037 308.001 27.6249 309.034 25.4208C310.296 22.7172 312.397 20.4565 315.335 18.6332V43.3194ZM297.327 43.3194H295.605V25.0858L291.198 33.5382V43.3194H289.477V19.4622H291.198V30.13L297.327 18.6332V43.3194ZM287.48 20.996H284.519V43.3194H282.797V20.996H279.836V19.4964H287.48V20.996ZM276.289 39.9454V22.8704C276.289 21.9163 276.06 21.2345 275.601 20.8257C275.234 20.5075 274.728 20.3483 274.086 20.3483C273.512 20.3483 273.053 20.4847 272.708 20.7575C272.158 21.1892 271.882 21.8934 271.882 22.8704V39.9454C271.882 40.8542 272.112 41.5132 272.571 41.9219C272.961 42.263 273.466 42.4333 274.086 42.4333C274.705 42.4333 275.199 42.263 275.566 41.9219C276.048 41.4903 276.289 40.8316 276.289 39.9454ZM278.011 39.8091C278.011 41.1495 277.678 42.1719 277.013 42.8762C276.347 43.5807 275.371 43.9328 274.086 43.9328C272.8 43.9328 271.825 43.5807 271.159 42.8762C270.493 42.1719 270.161 41.1495 270.161 39.8091V38.139H267.027V43.3194H265.306V38.139H263.033L261.863 36.6394H265.306V19.4622H267.027V36.6394H270.161V23.0067C270.161 21.6663 270.488 20.6381 271.142 19.9225C271.796 19.2067 272.777 18.8488 274.086 18.8488C275.371 18.8488 276.347 19.2011 277.013 19.9054C277.678 20.6097 278.011 21.6437 278.011 23.0067V39.8091ZM259.969 40.3202V39.6386C259.969 39.1841 259.877 38.8433 259.693 38.6162C259.418 38.298 258.924 38.139 258.213 38.139H255.562V41.8198H258.213C258.97 41.8198 259.475 41.6493 259.728 41.3087C259.889 41.104 259.969 40.7745 259.969 40.3202ZM261.69 40.4905C261.69 41.445 261.392 42.1551 260.795 42.6207C260.199 43.0865 259.361 43.3194 258.282 43.3194H253.84V38.139H251.602L250.431 36.6394H253.84V19.4964H255.562V36.6394H258.316C259.693 36.6394 260.635 36.9121 261.14 37.4574C261.507 37.8664 261.69 38.5138 261.69 39.3999V40.4905ZM248.537 40.1497V39.8091C248.537 39.1046 248.342 38.6275 247.952 38.3775C247.7 38.2185 247.321 38.139 246.816 38.139H244.13V41.8198H246.816C247.55 41.8198 248.044 41.638 248.296 41.2745C248.457 41.0474 248.537 40.6724 248.537 40.1497ZM250.259 40.3202C250.259 41.0927 250.087 41.7061 249.743 42.1606C249.146 42.9331 248.056 43.3194 246.472 43.3194H242.409V38.139H240.171L239 36.6394H242.409V19.4964H250.259V20.996H244.13V36.6394H247.401C248.251 36.6394 248.893 36.7984 249.329 37.1166C249.949 37.5482 250.259 38.3093 250.259 39.3999V40.3202Z" fill="url(#paint6_linear_68_443)"/>
<defs>
<radialGradient id="paint0_radial_68_443" cx="0" cy="0" r="1" gradientUnits="userSpaceOnUse" gradientTransform="translate(185 114) rotate(31.642) scale(217.304 247.173)">
<stop offset="0.435" stop-color="#F1D7A5"/>
<stop offset="1" stop-color="#E4BF78"/>
</radialGradient>
<linearGradient id="paint1_linear_68_443" x1="-26.7679" y1="198.075" x2="8.55752" y2="180.401" gradientUnits="userSpaceOnUse">
<stop stop-color="#434F52"/>
<stop offset="1" stop-color="#717577"/>
</linearGradient>
<linearGradient id="paint2_linear_68_443" x1="5.23167" y1="135.921" x2="111.208" y2="82.8974" gradientUnits="userSpaceOnUse">
<stop stop-color="#434F52"/>
<stop offset="1" stop-color="#717577"/>
</linearGradient>
<linearGradient id="paint3_linear_68_443" x1="-16.9586" y1="116.791" x2="28.4598" y2="94.0669" gradientUnits="userSpaceOnUse">
<stop stop-color="#434F52"/>
<stop offset="1" stop-color="#717577"/>
</linearGradient>
<linearGradient id="paint4_linear_68_443" x1="148" y1="88" x2="355" y2="88" gradientUnits="userSpaceOnUse">
<stop stop-color="#434F52"/>
<stop offset="1" stop-color="#717577"/>
</linearGradient>
<linearGradient id="paint5_linear_68_443" x1="148" y1="130" x2="354" y2="130" gradientUnits="userSpaceOnUse">
<stop stop-color="#434F52"/>
<stop offset="1" stop-color="#717577"/>
</linearGradient>
<linearGradient id="paint6_linear_68_443" x1="239" y1="29.772" x2="355" y2="29.772" gradientUnits="userSpaceOnUse">
<stop stop-color="#434F52"/>
<stop offset="1" stop-color="#717577"/>
</linearGradient>
</defs>
</svg>
