<svg width="370" height="228" viewBox="0 0 370 228" fill="none" xmlns="http://www.w3.org/2000/svg">
<rect width="370" height="228" rx="25" fill="white"/>
<mask id="mask0_68_428" style="mask-type:alpha" maskUnits="userSpaceOnUse" x="0" y="0" width="370" height="228">
<rect width="370" height="228" rx="25" fill="white"/>
<rect width="370" height="228" rx="25" fill="url(#paint0_radial_68_428)"/>
</mask>
<g mask="url(#mask0_68_428)">
<path d="M-27.1846 181.773C-11.4126 183.861 6.97026 195.868 14.1902 201.611C16.4561 203.308 18.6461 204.672 20.0092 205.459C20.3525 205.657 20.7358 205.32 20.5913 204.95C13.6202 187.14 -1.60419 176.381 -8.46795 173.188C-15.3621 170.141 -30.5561 165.529 -36.1793 171.461C-41.8025 177.393 -32.5258 180.807 -27.1846 181.773Z" fill="white"/>
<path d="M-27.1846 181.773C-11.4126 183.861 6.97026 195.868 14.1902 201.611C16.4561 203.308 18.6461 204.672 20.0092 205.459C20.3525 205.657 20.7358 205.32 20.5913 204.95C13.6202 187.14 -1.60419 176.381 -8.46795 173.188C-15.3621 170.141 -30.5561 165.529 -36.1793 171.461C-41.8025 177.393 -32.5258 180.807 -27.1846 181.773Z" fill="url(#paint1_linear_68_428)"/>
<path d="M57.0534 168.236L61.4166 207.729C61.4574 208.098 61.9017 208.24 62.1201 207.94C65.6189 203.131 65.698 192.905 67.4863 187.512C68.9944 182.965 77.9903 180.15 82.2997 179.31C102.477 173.008 109.82 160.273 110.97 154.693C122.534 121.092 112.144 86.1478 105.504 72.8759C88.303 29.8099 50.3248 -11.6991 32.6875 -27.847C32.3965 -28.1134 31.9484 -27.8747 31.982 -27.4816C36.0647 20.2079 24.9411 86.5035 18.8205 113.876C13.8115 143.249 19.1803 161.063 25.5233 176.109C38.1777 206.127 85.2385 257.651 79.8649 248.486C74.4914 239.322 60.9064 221.622 58.0625 217.514C55.2187 213.405 37.2089 188.437 30.8786 171.059C24.5484 153.681 36.1654 112.309 38.3627 104.098C40.1058 97.5845 53.5267 56.7929 60.1855 36.7087C60.2736 36.443 60.582 36.341 60.8149 36.4962C65.8988 39.883 75.4078 50.0441 76.1626 66.2205C77.1354 87.0694 94.8088 95.6113 97.0183 96.8765C98.1866 97.5455 98.8684 98.5269 99.227 99.3284C99.5086 99.9576 99.314 100.663 98.9011 101.215L95.7676 105.404C94.4963 107.104 94.0289 109.221 93.9133 110.478C93.8764 110.879 93.9776 111.274 94.1481 111.639C95.2042 113.9 96.6285 117.826 95.4695 118.987C94.4143 120.044 94.0238 121.914 93.9255 123.113C93.8925 123.514 93.9997 123.911 94.1545 124.282C95.2076 126.813 94.6039 128.856 93.6998 130.196C93.0438 131.167 92.6027 132.387 92.9936 133.492L94.2309 136.991C97.399 148.049 86.9944 150.885 82.8958 152.145C79.6764 153.135 71.3292 154.609 67.3461 155.257C67.2 155.281 67.0568 155.317 66.9174 155.367C59.0237 158.189 57.0494 165.105 57.0534 168.236Z" fill="white"/>
<path d="M57.0534 168.236L61.4166 207.729C61.4574 208.098 61.9017 208.24 62.1201 207.94C65.6189 203.131 65.698 192.905 67.4863 187.512C68.9944 182.965 77.9903 180.15 82.2997 179.31C102.477 173.008 109.82 160.273 110.97 154.693C122.534 121.092 112.144 86.1478 105.504 72.8759C88.303 29.8099 50.3248 -11.6991 32.6875 -27.847C32.3965 -28.1134 31.9484 -27.8747 31.982 -27.4816C36.0647 20.2079 24.9411 86.5035 18.8205 113.876C13.8115 143.249 19.1803 161.063 25.5233 176.109C38.1777 206.127 85.2385 257.651 79.8649 248.486C74.4914 239.322 60.9064 221.622 58.0625 217.514C55.2187 213.405 37.2089 188.437 30.8786 171.059C24.5484 153.681 36.1654 112.309 38.3627 104.098C40.1058 97.5845 53.5267 56.7929 60.1855 36.7087C60.2736 36.443 60.582 36.341 60.8149 36.4962C65.8988 39.883 75.4078 50.0441 76.1626 66.2205C77.1354 87.0694 94.8088 95.6113 97.0183 96.8765C98.1866 97.5455 98.8684 98.5269 99.227 99.3284C99.5086 99.9576 99.314 100.663 98.9011 101.215L95.7676 105.404C94.4963 107.104 94.0289 109.221 93.9133 110.478C93.8764 110.879 93.9776 111.274 94.1481 111.639C95.2042 113.9 96.6285 117.826 95.4695 118.987C94.4143 120.044 94.0238 121.914 93.9255 123.113C93.8925 123.514 93.9997 123.911 94.1545 124.282C95.2076 126.813 94.6039 128.856 93.6998 130.196C93.0438 131.167 92.6027 132.387 92.9936 133.492L94.2309 136.991C97.399 148.049 86.9944 150.885 82.8958 152.145C79.6764 153.135 71.3292 154.609 67.3461 155.257C67.2 155.281 67.0568 155.317 66.9174 155.367C59.0237 158.189 57.0494 165.105 57.0534 168.236Z" fill="url(#paint2_linear_68_428)"/>
<path d="M-4.1877 103.051C-2.76197 87.7434 -9.17111 57.4249 -12.3952 44.4962C16.617 50.6033 17.6859 76.0813 17.566 89.7877C17.4405 104.128 9.5366 126.491 8.75595 137.028C8.02356 146.912 12.7288 162.801 13.3218 168.85C13.7962 173.689 11.357 171.948 10.0782 170.473C1.79788 157.166 -5.96986 122.186 -4.1877 103.051Z" fill="white"/>
<path d="M-4.1877 103.051C-2.76197 87.7434 -9.17111 57.4249 -12.3952 44.4962C16.617 50.6033 17.6859 76.0813 17.566 89.7877C17.4405 104.128 9.5366 126.491 8.75595 137.028C8.02356 146.912 12.7288 162.801 13.3218 168.85C13.7962 173.689 11.357 171.948 10.0782 170.473C1.79788 157.166 -5.96986 122.186 -4.1877 103.051Z" fill="url(#paint3_linear_68_428)"/>
</g>
<path d="M155.596 94.144C154.636 94.144 153.748 93.988 152.932 93.676C152.128 93.352 151.426 92.902 150.826 92.326C150.238 91.738 149.776 91.054 149.44 90.274C149.104 89.494 148.936 88.636 148.936 87.7C148.936 86.764 149.104 85.906 149.44 85.126C149.776 84.346 150.244 83.668 150.844 83.092C151.444 82.504 152.146 82.054 152.95 81.742C153.766 81.418 154.654 81.256 155.614 81.256C156.586 81.256 157.48 81.424 158.296 81.76C159.124 82.084 159.826 82.57 160.402 83.218L159.232 84.352C158.752 83.848 158.212 83.476 157.612 83.236C157.012 82.984 156.37 82.858 155.686 82.858C154.978 82.858 154.318 82.978 153.706 83.218C153.106 83.458 152.584 83.794 152.14 84.226C151.696 84.658 151.348 85.174 151.096 85.774C150.856 86.362 150.736 87.004 150.736 87.7C150.736 88.396 150.856 89.044 151.096 89.644C151.348 90.232 151.696 90.742 152.14 91.174C152.584 91.606 153.106 91.942 153.706 92.182C154.318 92.422 154.978 92.542 155.686 92.542C156.37 92.542 157.012 92.422 157.612 92.182C158.212 91.93 158.752 91.546 159.232 91.03L160.402 92.164C159.826 92.812 159.124 93.304 158.296 93.64C157.48 93.976 156.58 94.144 155.596 94.144ZM166.438 94.108C165.418 94.108 164.518 93.898 163.738 93.478C162.97 93.058 162.37 92.482 161.938 91.75C161.518 91.018 161.308 90.178 161.308 89.23C161.308 88.282 161.512 87.442 161.92 86.71C162.34 85.978 162.91 85.408 163.63 85C164.362 84.58 165.184 84.37 166.096 84.37C167.02 84.37 167.836 84.574 168.544 84.982C169.252 85.39 169.804 85.966 170.2 86.71C170.608 87.442 170.812 88.3 170.812 89.284C170.812 89.356 170.806 89.44 170.794 89.536C170.794 89.632 170.788 89.722 170.776 89.806H162.658V88.564H169.876L169.174 88.996C169.186 88.384 169.06 87.838 168.796 87.358C168.532 86.878 168.166 86.506 167.698 86.242C167.242 85.966 166.708 85.828 166.096 85.828C165.496 85.828 164.962 85.966 164.494 86.242C164.026 86.506 163.66 86.884 163.396 87.376C163.132 87.856 163 88.408 163 89.032V89.32C163 89.956 163.144 90.526 163.432 91.03C163.732 91.522 164.146 91.906 164.674 92.182C165.202 92.458 165.808 92.596 166.492 92.596C167.056 92.596 167.566 92.5 168.022 92.308C168.49 92.116 168.898 91.828 169.246 91.444L170.2 92.56C169.768 93.064 169.228 93.448 168.58 93.712C167.944 93.976 167.23 94.108 166.438 94.108ZM178.55 94.108C177.758 94.108 177.032 93.928 176.372 93.568C175.724 93.196 175.202 92.65 174.806 91.93C174.422 91.21 174.23 90.31 174.23 89.23C174.23 88.15 174.416 87.25 174.788 86.53C175.172 85.81 175.688 85.27 176.336 84.91C176.996 84.55 177.734 84.37 178.55 84.37C179.486 84.37 180.314 84.574 181.034 84.982C181.754 85.39 182.324 85.96 182.744 86.692C183.164 87.412 183.374 88.258 183.374 89.23C183.374 90.202 183.164 91.054 182.744 91.786C182.324 92.518 181.754 93.088 181.034 93.496C180.314 93.904 179.486 94.108 178.55 94.108ZM173.492 97.492V84.46H175.148V87.034L175.04 89.248L175.22 91.462V97.492H173.492ZM178.406 92.596C179.018 92.596 179.564 92.458 180.044 92.182C180.536 91.906 180.92 91.516 181.196 91.012C181.484 90.496 181.628 89.902 181.628 89.23C181.628 88.546 181.484 87.958 181.196 87.466C180.92 86.962 180.536 86.572 180.044 86.296C179.564 86.02 179.018 85.882 178.406 85.882C177.806 85.882 177.26 86.02 176.768 86.296C176.288 86.572 175.904 86.962 175.616 87.466C175.34 87.958 175.202 88.546 175.202 89.23C175.202 89.902 175.34 90.496 175.616 91.012C175.904 91.516 176.288 91.906 176.768 92.182C177.26 92.458 177.806 92.596 178.406 92.596ZM187.423 94V85.522L187.855 85.972H183.931V84.46H192.643V85.972H188.737L189.151 85.522V94H187.423ZM194.41 94V84.46H196.138V91.408L201.988 84.46H203.554V94H201.826V87.052L195.994 94H194.41ZM212.596 94.144C212.584 94.144 212.542 94.144 212.47 94.144C212.41 94.144 212.35 94.144 212.29 94.144C212.23 94.144 212.194 94.144 212.182 94.144C210.226 94.12 208.708 93.688 207.628 92.848C206.548 91.996 206.008 90.784 206.008 89.212C206.008 87.652 206.548 86.458 207.628 85.63C208.72 84.79 210.256 84.364 212.236 84.352C212.26 84.352 212.296 84.352 212.344 84.352C212.404 84.352 212.458 84.352 212.506 84.352C212.566 84.352 212.602 84.352 212.614 84.352C214.618 84.352 216.172 84.772 217.276 85.612C218.392 86.452 218.95 87.652 218.95 89.212C218.95 90.796 218.392 92.014 217.276 92.866C216.16 93.718 214.6 94.144 212.596 94.144ZM212.56 92.632C213.604 92.632 214.468 92.5 215.152 92.236C215.848 91.972 216.37 91.588 216.718 91.084C217.066 90.58 217.24 89.956 217.24 89.212C217.24 88.48 217.066 87.868 216.718 87.376C216.37 86.884 215.848 86.512 215.152 86.26C214.468 86.008 213.604 85.882 212.56 85.882C212.536 85.882 212.488 85.882 212.416 85.882C212.344 85.882 212.302 85.882 212.29 85.882C211.27 85.882 210.418 86.014 209.734 86.278C209.062 86.53 208.558 86.902 208.222 87.394C207.886 87.886 207.718 88.492 207.718 89.212C207.718 89.944 207.886 90.562 208.222 91.066C208.57 91.57 209.08 91.954 209.752 92.218C210.436 92.482 211.282 92.62 212.29 92.632C212.314 92.632 212.356 92.632 212.416 92.632C212.488 92.632 212.536 92.632 212.56 92.632ZM211.624 97.492V80.644H213.316V97.492H211.624ZM221.393 94V84.46H223.121V91.408L228.971 84.46H230.537V94H228.809V87.052L222.977 94H221.393ZM240.803 94L237.113 89.356L238.535 88.492L242.837 94H240.803ZM233.891 94V84.46H235.619V94H233.891ZM235.097 89.968V88.492H238.247V89.968H235.097ZM238.679 89.428L237.077 89.212L240.731 84.46H242.585L238.679 89.428ZM250.323 94V91.984L250.233 91.606V88.168C250.233 87.436 250.017 86.872 249.585 86.476C249.165 86.068 248.529 85.864 247.677 85.864C247.113 85.864 246.561 85.96 246.021 86.152C245.481 86.332 245.025 86.578 244.653 86.89L243.933 85.594C244.425 85.198 245.013 84.898 245.697 84.694C246.393 84.478 247.119 84.37 247.875 84.37C249.183 84.37 250.191 84.688 250.899 85.324C251.607 85.96 251.961 86.932 251.961 88.24V94H250.323ZM247.191 94.108C246.483 94.108 245.859 93.988 245.319 93.748C244.791 93.508 244.383 93.178 244.095 92.758C243.807 92.326 243.663 91.84 243.663 91.3C243.663 90.784 243.783 90.316 244.023 89.896C244.275 89.476 244.677 89.14 245.229 88.888C245.793 88.636 246.549 88.51 247.497 88.51H250.521V89.752H247.569C246.705 89.752 246.123 89.896 245.823 90.184C245.523 90.472 245.373 90.82 245.373 91.228C245.373 91.696 245.559 92.074 245.931 92.362C246.303 92.638 246.819 92.776 247.479 92.776C248.127 92.776 248.691 92.632 249.171 92.344C249.663 92.056 250.017 91.636 250.233 91.084L250.575 92.272C250.347 92.836 249.945 93.286 249.369 93.622C248.793 93.946 248.067 94.108 247.191 94.108ZM256.962 94V85.522L257.394 85.972H253.47V84.46H262.182V85.972H258.276L258.69 85.522V94H256.962ZM268.783 94V84.46H270.511V88.51H275.947V84.46H277.675V94H275.947V90.004H270.511V94H268.783ZM286.885 94V91.984L286.795 91.606V88.168C286.795 87.436 286.579 86.872 286.147 86.476C285.727 86.068 285.091 85.864 284.239 85.864C283.675 85.864 283.123 85.96 282.583 86.152C282.043 86.332 281.587 86.578 281.215 86.89L280.495 85.594C280.987 85.198 281.575 84.898 282.259 84.694C282.955 84.478 283.681 84.37 284.437 84.37C285.745 84.37 286.753 84.688 287.461 85.324C288.169 85.96 288.523 86.932 288.523 88.24V94H286.885ZM283.753 94.108C283.045 94.108 282.421 93.988 281.881 93.748C281.353 93.508 280.945 93.178 280.657 92.758C280.369 92.326 280.225 91.84 280.225 91.3C280.225 90.784 280.345 90.316 280.585 89.896C280.837 89.476 281.239 89.14 281.791 88.888C282.355 88.636 283.111 88.51 284.059 88.51H287.083V89.752H284.131C283.267 89.752 282.685 89.896 282.385 90.184C282.085 90.472 281.935 90.82 281.935 91.228C281.935 91.696 282.121 92.074 282.493 92.362C282.865 92.638 283.381 92.776 284.041 92.776C284.689 92.776 285.253 92.632 285.733 92.344C286.225 92.056 286.579 91.636 286.795 91.084L287.137 92.272C286.909 92.836 286.507 93.286 285.931 93.622C285.355 93.946 284.629 94.108 283.753 94.108ZM300.627 94.108C299.655 94.108 298.785 93.898 298.017 93.478C297.261 93.058 296.667 92.482 296.235 91.75C295.803 91.018 295.587 90.178 295.587 89.23C295.587 88.282 295.803 87.442 296.235 86.71C296.667 85.978 297.261 85.408 298.017 85C298.785 84.58 299.655 84.37 300.627 84.37C301.491 84.37 302.259 84.544 302.931 84.892C303.615 85.228 304.143 85.732 304.515 86.404L303.201 87.25C302.889 86.782 302.505 86.44 302.049 86.224C301.605 85.996 301.125 85.882 300.609 85.882C299.985 85.882 299.427 86.02 298.935 86.296C298.443 86.572 298.053 86.962 297.765 87.466C297.477 87.958 297.333 88.546 297.333 89.23C297.333 89.914 297.477 90.508 297.765 91.012C298.053 91.516 298.443 91.906 298.935 92.182C299.427 92.458 299.985 92.596 300.609 92.596C301.125 92.596 301.605 92.488 302.049 92.272C302.505 92.044 302.889 91.696 303.201 91.228L304.515 92.056C304.143 92.716 303.615 93.226 302.931 93.586C302.259 93.934 301.491 94.108 300.627 94.108ZM307.115 97.6C306.659 97.6 306.215 97.522 305.783 97.366C305.351 97.222 304.979 97.006 304.667 96.718L305.405 95.422C305.645 95.65 305.909 95.824 306.197 95.944C306.485 96.064 306.791 96.124 307.115 96.124C307.535 96.124 307.883 96.016 308.159 95.8C308.435 95.584 308.693 95.2 308.933 94.648L309.527 93.334L309.707 93.118L313.451 84.46H315.143L310.517 94.954C310.241 95.626 309.929 96.154 309.581 96.538C309.245 96.922 308.873 97.192 308.465 97.348C308.057 97.516 307.607 97.6 307.115 97.6ZM309.383 94.306L305.027 84.46H306.827L310.535 92.956L309.383 94.306ZM316.912 94V84.46H318.694L322.798 91.516H322.078L326.29 84.46H327.91V94H326.344V86.404L326.632 86.566L322.78 92.92H322.024L318.154 86.44L318.496 86.368V94H316.912ZM331.274 94V84.46H333.056L337.16 91.516H336.44L340.652 84.46H342.272V94H340.706V86.404L340.994 86.566L337.142 92.92H336.386L332.516 86.44L332.858 86.368V94H331.274ZM346.121 97.6C345.665 97.6 345.221 97.522 344.789 97.366C344.357 97.222 343.985 97.006 343.673 96.718L344.411 95.422C344.651 95.65 344.915 95.824 345.203 95.944C345.491 96.064 345.797 96.124 346.121 96.124C346.541 96.124 346.889 96.016 347.165 95.8C347.441 95.584 347.699 95.2 347.939 94.648L348.533 93.334L348.713 93.118L352.457 84.46H354.149L349.523 94.954C349.247 95.626 348.935 96.154 348.587 96.538C348.251 96.922 347.879 97.192 347.471 97.348C347.063 97.516 346.613 97.6 346.121 97.6ZM348.389 94.306L344.033 84.46H345.833L349.541 92.956L348.389 94.306Z" fill="white"/>
<path d="M155.596 94.144C154.636 94.144 153.748 93.988 152.932 93.676C152.128 93.352 151.426 92.902 150.826 92.326C150.238 91.738 149.776 91.054 149.44 90.274C149.104 89.494 148.936 88.636 148.936 87.7C148.936 86.764 149.104 85.906 149.44 85.126C149.776 84.346 150.244 83.668 150.844 83.092C151.444 82.504 152.146 82.054 152.95 81.742C153.766 81.418 154.654 81.256 155.614 81.256C156.586 81.256 157.48 81.424 158.296 81.76C159.124 82.084 159.826 82.57 160.402 83.218L159.232 84.352C158.752 83.848 158.212 83.476 157.612 83.236C157.012 82.984 156.37 82.858 155.686 82.858C154.978 82.858 154.318 82.978 153.706 83.218C153.106 83.458 152.584 83.794 152.14 84.226C151.696 84.658 151.348 85.174 151.096 85.774C150.856 86.362 150.736 87.004 150.736 87.7C150.736 88.396 150.856 89.044 151.096 89.644C151.348 90.232 151.696 90.742 152.14 91.174C152.584 91.606 153.106 91.942 153.706 92.182C154.318 92.422 154.978 92.542 155.686 92.542C156.37 92.542 157.012 92.422 157.612 92.182C158.212 91.93 158.752 91.546 159.232 91.03L160.402 92.164C159.826 92.812 159.124 93.304 158.296 93.64C157.48 93.976 156.58 94.144 155.596 94.144ZM166.438 94.108C165.418 94.108 164.518 93.898 163.738 93.478C162.97 93.058 162.37 92.482 161.938 91.75C161.518 91.018 161.308 90.178 161.308 89.23C161.308 88.282 161.512 87.442 161.92 86.71C162.34 85.978 162.91 85.408 163.63 85C164.362 84.58 165.184 84.37 166.096 84.37C167.02 84.37 167.836 84.574 168.544 84.982C169.252 85.39 169.804 85.966 170.2 86.71C170.608 87.442 170.812 88.3 170.812 89.284C170.812 89.356 170.806 89.44 170.794 89.536C170.794 89.632 170.788 89.722 170.776 89.806H162.658V88.564H169.876L169.174 88.996C169.186 88.384 169.06 87.838 168.796 87.358C168.532 86.878 168.166 86.506 167.698 86.242C167.242 85.966 166.708 85.828 166.096 85.828C165.496 85.828 164.962 85.966 164.494 86.242C164.026 86.506 163.66 86.884 163.396 87.376C163.132 87.856 163 88.408 163 89.032V89.32C163 89.956 163.144 90.526 163.432 91.03C163.732 91.522 164.146 91.906 164.674 92.182C165.202 92.458 165.808 92.596 166.492 92.596C167.056 92.596 167.566 92.5 168.022 92.308C168.49 92.116 168.898 91.828 169.246 91.444L170.2 92.56C169.768 93.064 169.228 93.448 168.58 93.712C167.944 93.976 167.23 94.108 166.438 94.108ZM178.55 94.108C177.758 94.108 177.032 93.928 176.372 93.568C175.724 93.196 175.202 92.65 174.806 91.93C174.422 91.21 174.23 90.31 174.23 89.23C174.23 88.15 174.416 87.25 174.788 86.53C175.172 85.81 175.688 85.27 176.336 84.91C176.996 84.55 177.734 84.37 178.55 84.37C179.486 84.37 180.314 84.574 181.034 84.982C181.754 85.39 182.324 85.96 182.744 86.692C183.164 87.412 183.374 88.258 183.374 89.23C183.374 90.202 183.164 91.054 182.744 91.786C182.324 92.518 181.754 93.088 181.034 93.496C180.314 93.904 179.486 94.108 178.55 94.108ZM173.492 97.492V84.46H175.148V87.034L175.04 89.248L175.22 91.462V97.492H173.492ZM178.406 92.596C179.018 92.596 179.564 92.458 180.044 92.182C180.536 91.906 180.92 91.516 181.196 91.012C181.484 90.496 181.628 89.902 181.628 89.23C181.628 88.546 181.484 87.958 181.196 87.466C180.92 86.962 180.536 86.572 180.044 86.296C179.564 86.02 179.018 85.882 178.406 85.882C177.806 85.882 177.26 86.02 176.768 86.296C176.288 86.572 175.904 86.962 175.616 87.466C175.34 87.958 175.202 88.546 175.202 89.23C175.202 89.902 175.34 90.496 175.616 91.012C175.904 91.516 176.288 91.906 176.768 92.182C177.26 92.458 177.806 92.596 178.406 92.596ZM187.423 94V85.522L187.855 85.972H183.931V84.46H192.643V85.972H188.737L189.151 85.522V94H187.423ZM194.41 94V84.46H196.138V91.408L201.988 84.46H203.554V94H201.826V87.052L195.994 94H194.41ZM212.596 94.144C212.584 94.144 212.542 94.144 212.47 94.144C212.41 94.144 212.35 94.144 212.29 94.144C212.23 94.144 212.194 94.144 212.182 94.144C210.226 94.12 208.708 93.688 207.628 92.848C206.548 91.996 206.008 90.784 206.008 89.212C206.008 87.652 206.548 86.458 207.628 85.63C208.72 84.79 210.256 84.364 212.236 84.352C212.26 84.352 212.296 84.352 212.344 84.352C212.404 84.352 212.458 84.352 212.506 84.352C212.566 84.352 212.602 84.352 212.614 84.352C214.618 84.352 216.172 84.772 217.276 85.612C218.392 86.452 218.95 87.652 218.95 89.212C218.95 90.796 218.392 92.014 217.276 92.866C216.16 93.718 214.6 94.144 212.596 94.144ZM212.56 92.632C213.604 92.632 214.468 92.5 215.152 92.236C215.848 91.972 216.37 91.588 216.718 91.084C217.066 90.58 217.24 89.956 217.24 89.212C217.24 88.48 217.066 87.868 216.718 87.376C216.37 86.884 215.848 86.512 215.152 86.26C214.468 86.008 213.604 85.882 212.56 85.882C212.536 85.882 212.488 85.882 212.416 85.882C212.344 85.882 212.302 85.882 212.29 85.882C211.27 85.882 210.418 86.014 209.734 86.278C209.062 86.53 208.558 86.902 208.222 87.394C207.886 87.886 207.718 88.492 207.718 89.212C207.718 89.944 207.886 90.562 208.222 91.066C208.57 91.57 209.08 91.954 209.752 92.218C210.436 92.482 211.282 92.62 212.29 92.632C212.314 92.632 212.356 92.632 212.416 92.632C212.488 92.632 212.536 92.632 212.56 92.632ZM211.624 97.492V80.644H213.316V97.492H211.624ZM221.393 94V84.46H223.121V91.408L228.971 84.46H230.537V94H228.809V87.052L222.977 94H221.393ZM240.803 94L237.113 89.356L238.535 88.492L242.837 94H240.803ZM233.891 94V84.46H235.619V94H233.891ZM235.097 89.968V88.492H238.247V89.968H235.097ZM238.679 89.428L237.077 89.212L240.731 84.46H242.585L238.679 89.428ZM250.323 94V91.984L250.233 91.606V88.168C250.233 87.436 250.017 86.872 249.585 86.476C249.165 86.068 248.529 85.864 247.677 85.864C247.113 85.864 246.561 85.96 246.021 86.152C245.481 86.332 245.025 86.578 244.653 86.89L243.933 85.594C244.425 85.198 245.013 84.898 245.697 84.694C246.393 84.478 247.119 84.37 247.875 84.37C249.183 84.37 250.191 84.688 250.899 85.324C251.607 85.96 251.961 86.932 251.961 88.24V94H250.323ZM247.191 94.108C246.483 94.108 245.859 93.988 245.319 93.748C244.791 93.508 244.383 93.178 244.095 92.758C243.807 92.326 243.663 91.84 243.663 91.3C243.663 90.784 243.783 90.316 244.023 89.896C244.275 89.476 244.677 89.14 245.229 88.888C245.793 88.636 246.549 88.51 247.497 88.51H250.521V89.752H247.569C246.705 89.752 246.123 89.896 245.823 90.184C245.523 90.472 245.373 90.82 245.373 91.228C245.373 91.696 245.559 92.074 245.931 92.362C246.303 92.638 246.819 92.776 247.479 92.776C248.127 92.776 248.691 92.632 249.171 92.344C249.663 92.056 250.017 91.636 250.233 91.084L250.575 92.272C250.347 92.836 249.945 93.286 249.369 93.622C248.793 93.946 248.067 94.108 247.191 94.108ZM256.962 94V85.522L257.394 85.972H253.47V84.46H262.182V85.972H258.276L258.69 85.522V94H256.962ZM268.783 94V84.46H270.511V88.51H275.947V84.46H277.675V94H275.947V90.004H270.511V94H268.783ZM286.885 94V91.984L286.795 91.606V88.168C286.795 87.436 286.579 86.872 286.147 86.476C285.727 86.068 285.091 85.864 284.239 85.864C283.675 85.864 283.123 85.96 282.583 86.152C282.043 86.332 281.587 86.578 281.215 86.89L280.495 85.594C280.987 85.198 281.575 84.898 282.259 84.694C282.955 84.478 283.681 84.37 284.437 84.37C285.745 84.37 286.753 84.688 287.461 85.324C288.169 85.96 288.523 86.932 288.523 88.24V94H286.885ZM283.753 94.108C283.045 94.108 282.421 93.988 281.881 93.748C281.353 93.508 280.945 93.178 280.657 92.758C280.369 92.326 280.225 91.84 280.225 91.3C280.225 90.784 280.345 90.316 280.585 89.896C280.837 89.476 281.239 89.14 281.791 88.888C282.355 88.636 283.111 88.51 284.059 88.51H287.083V89.752H284.131C283.267 89.752 282.685 89.896 282.385 90.184C282.085 90.472 281.935 90.82 281.935 91.228C281.935 91.696 282.121 92.074 282.493 92.362C282.865 92.638 283.381 92.776 284.041 92.776C284.689 92.776 285.253 92.632 285.733 92.344C286.225 92.056 286.579 91.636 286.795 91.084L287.137 92.272C286.909 92.836 286.507 93.286 285.931 93.622C285.355 93.946 284.629 94.108 283.753 94.108ZM300.627 94.108C299.655 94.108 298.785 93.898 298.017 93.478C297.261 93.058 296.667 92.482 296.235 91.75C295.803 91.018 295.587 90.178 295.587 89.23C295.587 88.282 295.803 87.442 296.235 86.71C296.667 85.978 297.261 85.408 298.017 85C298.785 84.58 299.655 84.37 300.627 84.37C301.491 84.37 302.259 84.544 302.931 84.892C303.615 85.228 304.143 85.732 304.515 86.404L303.201 87.25C302.889 86.782 302.505 86.44 302.049 86.224C301.605 85.996 301.125 85.882 300.609 85.882C299.985 85.882 299.427 86.02 298.935 86.296C298.443 86.572 298.053 86.962 297.765 87.466C297.477 87.958 297.333 88.546 297.333 89.23C297.333 89.914 297.477 90.508 297.765 91.012C298.053 91.516 298.443 91.906 298.935 92.182C299.427 92.458 299.985 92.596 300.609 92.596C301.125 92.596 301.605 92.488 302.049 92.272C302.505 92.044 302.889 91.696 303.201 91.228L304.515 92.056C304.143 92.716 303.615 93.226 302.931 93.586C302.259 93.934 301.491 94.108 300.627 94.108ZM307.115 97.6C306.659 97.6 306.215 97.522 305.783 97.366C305.351 97.222 304.979 97.006 304.667 96.718L305.405 95.422C305.645 95.65 305.909 95.824 306.197 95.944C306.485 96.064 306.791 96.124 307.115 96.124C307.535 96.124 307.883 96.016 308.159 95.8C308.435 95.584 308.693 95.2 308.933 94.648L309.527 93.334L309.707 93.118L313.451 84.46H315.143L310.517 94.954C310.241 95.626 309.929 96.154 309.581 96.538C309.245 96.922 308.873 97.192 308.465 97.348C308.057 97.516 307.607 97.6 307.115 97.6ZM309.383 94.306L305.027 84.46H306.827L310.535 92.956L309.383 94.306ZM316.912 94V84.46H318.694L322.798 91.516H322.078L326.29 84.46H327.91V94H326.344V86.404L326.632 86.566L322.78 92.92H322.024L318.154 86.44L318.496 86.368V94H316.912ZM331.274 94V84.46H333.056L337.16 91.516H336.44L340.652 84.46H342.272V94H340.706V86.404L340.994 86.566L337.142 92.92H336.386L332.516 86.44L332.858 86.368V94H331.274ZM346.121 97.6C345.665 97.6 345.221 97.522 344.789 97.366C344.357 97.222 343.985 97.006 343.673 96.718L344.411 95.422C344.651 95.65 344.915 95.824 345.203 95.944C345.491 96.064 345.797 96.124 346.121 96.124C346.541 96.124 346.889 96.016 347.165 95.8C347.441 95.584 347.699 95.2 347.939 94.648L348.533 93.334L348.713 93.118L352.457 84.46H354.149L349.523 94.954C349.247 95.626 348.935 96.154 348.587 96.538C348.251 96.922 347.879 97.192 347.471 97.348C347.063 97.516 346.613 97.6 346.121 97.6ZM348.389 94.306L344.033 84.46H345.833L349.541 92.956L348.389 94.306Z" fill="url(#paint4_linear_68_428)"/>
<path d="M149.485 146V141.275L161.635 129.8C162.595 128.93 163.3 128.15 163.75 127.46C164.2 126.77 164.5 126.14 164.65 125.57C164.83 125 164.92 124.475 164.92 123.995C164.92 122.735 164.485 121.775 163.615 121.115C162.775 120.425 161.53 120.08 159.88 120.08C158.56 120.08 157.33 120.335 156.19 120.845C155.08 121.355 154.135 122.15 153.355 123.23L148.045 119.81C149.245 118.01 150.925 116.585 153.085 115.535C155.245 114.485 157.735 113.96 160.555 113.96C162.895 113.96 164.935 114.35 166.675 115.13C168.445 115.88 169.81 116.945 170.77 118.325C171.76 119.705 172.255 121.355 172.255 123.275C172.255 124.295 172.12 125.315 171.85 126.335C171.61 127.325 171.1 128.375 170.32 129.485C169.57 130.595 168.46 131.84 166.99 133.22L156.91 142.715L155.515 140.06H173.29V146H149.485ZM187.008 146.54C184.818 146.54 182.643 146.255 180.483 145.685C178.353 145.085 176.523 144.245 174.993 143.165L177.873 137.585C179.073 138.455 180.453 139.145 182.013 139.655C183.603 140.165 185.208 140.42 186.828 140.42C188.658 140.42 190.098 140.06 191.148 139.34C192.198 138.62 192.723 137.615 192.723 136.325C192.723 135.515 192.513 134.795 192.093 134.165C191.673 133.535 190.923 133.055 189.843 132.725C188.793 132.395 187.308 132.23 185.388 132.23H177.333L178.953 114.5H198.168V120.35H181.563L185.343 117.02L184.218 129.665L180.438 126.335H187.098C190.218 126.335 192.723 126.77 194.613 127.64C196.533 128.48 197.928 129.635 198.798 131.105C199.668 132.575 200.103 134.24 200.103 136.1C200.103 137.96 199.638 139.685 198.708 141.275C197.778 142.835 196.338 144.11 194.388 145.1C192.468 146.06 190.008 146.54 187.008 146.54ZM229.305 146.54C226.725 146.54 224.415 145.91 222.375 144.65C220.335 143.36 218.73 141.5 217.56 139.07C216.39 136.64 215.805 133.7 215.805 130.25C215.805 126.8 216.39 123.86 217.56 121.43C218.73 119 220.335 117.155 222.375 115.895C224.415 114.605 226.725 113.96 229.305 113.96C231.915 113.96 234.225 114.605 236.235 115.895C238.275 117.155 239.88 119 241.05 121.43C242.22 123.86 242.805 126.8 242.805 130.25C242.805 133.7 242.22 136.64 241.05 139.07C239.88 141.5 238.275 143.36 236.235 144.65C234.225 145.91 231.915 146.54 229.305 146.54ZM229.305 140.375C230.535 140.375 231.6 140.03 232.5 139.34C233.43 138.65 234.15 137.555 234.66 136.055C235.2 134.555 235.47 132.62 235.47 130.25C235.47 127.88 235.2 125.945 234.66 124.445C234.15 122.945 233.43 121.85 232.5 121.16C231.6 120.47 230.535 120.125 229.305 120.125C228.105 120.125 227.04 120.47 226.11 121.16C225.21 121.85 224.49 122.945 223.95 124.445C223.44 125.945 223.185 127.88 223.185 130.25C223.185 132.62 223.44 134.555 223.95 136.055C224.49 137.555 225.21 138.65 226.11 139.34C227.04 140.03 228.105 140.375 229.305 140.375ZM259.847 146.54C257.267 146.54 254.957 145.91 252.917 144.65C250.877 143.36 249.272 141.5 248.102 139.07C246.932 136.64 246.347 133.7 246.347 130.25C246.347 126.8 246.932 123.86 248.102 121.43C249.272 119 250.877 117.155 252.917 115.895C254.957 114.605 257.267 113.96 259.847 113.96C262.457 113.96 264.767 114.605 266.777 115.895C268.817 117.155 270.422 119 271.592 121.43C272.762 123.86 273.347 126.8 273.347 130.25C273.347 133.7 272.762 136.64 271.592 139.07C270.422 141.5 268.817 143.36 266.777 144.65C264.767 145.91 262.457 146.54 259.847 146.54ZM259.847 140.375C261.077 140.375 262.142 140.03 263.042 139.34C263.972 138.65 264.692 137.555 265.202 136.055C265.742 134.555 266.012 132.62 266.012 130.25C266.012 127.88 265.742 125.945 265.202 124.445C264.692 122.945 263.972 121.85 263.042 121.16C262.142 120.47 261.077 120.125 259.847 120.125C258.647 120.125 257.582 120.47 256.652 121.16C255.752 121.85 255.032 122.945 254.492 124.445C253.982 125.945 253.727 127.88 253.727 130.25C253.727 132.62 253.982 134.555 254.492 136.055C255.032 137.555 255.752 138.65 256.652 139.34C257.582 140.03 258.647 140.375 259.847 140.375ZM290.389 146.54C287.809 146.54 285.499 145.91 283.459 144.65C281.419 143.36 279.814 141.5 278.644 139.07C277.474 136.64 276.889 133.7 276.889 130.25C276.889 126.8 277.474 123.86 278.644 121.43C279.814 119 281.419 117.155 283.459 115.895C285.499 114.605 287.809 113.96 290.389 113.96C292.999 113.96 295.309 114.605 297.319 115.895C299.359 117.155 300.964 119 302.134 121.43C303.304 123.86 303.889 126.8 303.889 130.25C303.889 133.7 303.304 136.64 302.134 139.07C300.964 141.5 299.359 143.36 297.319 144.65C295.309 145.91 292.999 146.54 290.389 146.54ZM290.389 140.375C291.619 140.375 292.684 140.03 293.584 139.34C294.514 138.65 295.234 137.555 295.744 136.055C296.284 134.555 296.554 132.62 296.554 130.25C296.554 127.88 296.284 125.945 295.744 124.445C295.234 122.945 294.514 121.85 293.584 121.16C292.684 120.47 291.619 120.125 290.389 120.125C289.189 120.125 288.124 120.47 287.194 121.16C286.294 121.85 285.574 122.945 285.034 124.445C284.524 125.945 284.269 127.88 284.269 130.25C284.269 132.62 284.524 134.555 285.034 136.055C285.574 137.555 286.294 138.65 287.194 139.34C288.124 140.03 289.189 140.375 290.389 140.375ZM324.135 146V114.5H337.77C341.97 114.5 345.3 115.385 347.76 117.155C350.22 118.925 351.45 121.58 351.45 125.12C351.45 128.63 350.22 131.27 347.76 133.04C345.3 134.81 341.97 135.695 337.77 135.695H328.185L331.47 132.455V146H324.135ZM331.47 133.22L328.185 129.98H337.725C339.735 129.98 341.295 129.575 342.405 128.765C343.515 127.925 344.07 126.725 344.07 125.165C344.07 123.635 343.515 122.465 342.405 121.655C341.295 120.845 339.735 120.44 337.725 120.44H328.185L331.47 116.975V133.22ZM319.77 141.95V138.215H341.19V141.95H319.77Z" fill="white"/>
<path d="M149.485 146V141.275L161.635 129.8C162.595 128.93 163.3 128.15 163.75 127.46C164.2 126.77 164.5 126.14 164.65 125.57C164.83 125 164.92 124.475 164.92 123.995C164.92 122.735 164.485 121.775 163.615 121.115C162.775 120.425 161.53 120.08 159.88 120.08C158.56 120.08 157.33 120.335 156.19 120.845C155.08 121.355 154.135 122.15 153.355 123.23L148.045 119.81C149.245 118.01 150.925 116.585 153.085 115.535C155.245 114.485 157.735 113.96 160.555 113.96C162.895 113.96 164.935 114.35 166.675 115.13C168.445 115.88 169.81 116.945 170.77 118.325C171.76 119.705 172.255 121.355 172.255 123.275C172.255 124.295 172.12 125.315 171.85 126.335C171.61 127.325 171.1 128.375 170.32 129.485C169.57 130.595 168.46 131.84 166.99 133.22L156.91 142.715L155.515 140.06H173.29V146H149.485ZM187.008 146.54C184.818 146.54 182.643 146.255 180.483 145.685C178.353 145.085 176.523 144.245 174.993 143.165L177.873 137.585C179.073 138.455 180.453 139.145 182.013 139.655C183.603 140.165 185.208 140.42 186.828 140.42C188.658 140.42 190.098 140.06 191.148 139.34C192.198 138.62 192.723 137.615 192.723 136.325C192.723 135.515 192.513 134.795 192.093 134.165C191.673 133.535 190.923 133.055 189.843 132.725C188.793 132.395 187.308 132.23 185.388 132.23H177.333L178.953 114.5H198.168V120.35H181.563L185.343 117.02L184.218 129.665L180.438 126.335H187.098C190.218 126.335 192.723 126.77 194.613 127.64C196.533 128.48 197.928 129.635 198.798 131.105C199.668 132.575 200.103 134.24 200.103 136.1C200.103 137.96 199.638 139.685 198.708 141.275C197.778 142.835 196.338 144.11 194.388 145.1C192.468 146.06 190.008 146.54 187.008 146.54ZM229.305 146.54C226.725 146.54 224.415 145.91 222.375 144.65C220.335 143.36 218.73 141.5 217.56 139.07C216.39 136.64 215.805 133.7 215.805 130.25C215.805 126.8 216.39 123.86 217.56 121.43C218.73 119 220.335 117.155 222.375 115.895C224.415 114.605 226.725 113.96 229.305 113.96C231.915 113.96 234.225 114.605 236.235 115.895C238.275 117.155 239.88 119 241.05 121.43C242.22 123.86 242.805 126.8 242.805 130.25C242.805 133.7 242.22 136.64 241.05 139.07C239.88 141.5 238.275 143.36 236.235 144.65C234.225 145.91 231.915 146.54 229.305 146.54ZM229.305 140.375C230.535 140.375 231.6 140.03 232.5 139.34C233.43 138.65 234.15 137.555 234.66 136.055C235.2 134.555 235.47 132.62 235.47 130.25C235.47 127.88 235.2 125.945 234.66 124.445C234.15 122.945 233.43 121.85 232.5 121.16C231.6 120.47 230.535 120.125 229.305 120.125C228.105 120.125 227.04 120.47 226.11 121.16C225.21 121.85 224.49 122.945 223.95 124.445C223.44 125.945 223.185 127.88 223.185 130.25C223.185 132.62 223.44 134.555 223.95 136.055C224.49 137.555 225.21 138.65 226.11 139.34C227.04 140.03 228.105 140.375 229.305 140.375ZM259.847 146.54C257.267 146.54 254.957 145.91 252.917 144.65C250.877 143.36 249.272 141.5 248.102 139.07C246.932 136.64 246.347 133.7 246.347 130.25C246.347 126.8 246.932 123.86 248.102 121.43C249.272 119 250.877 117.155 252.917 115.895C254.957 114.605 257.267 113.96 259.847 113.96C262.457 113.96 264.767 114.605 266.777 115.895C268.817 117.155 270.422 119 271.592 121.43C272.762 123.86 273.347 126.8 273.347 130.25C273.347 133.7 272.762 136.64 271.592 139.07C270.422 141.5 268.817 143.36 266.777 144.65C264.767 145.91 262.457 146.54 259.847 146.54ZM259.847 140.375C261.077 140.375 262.142 140.03 263.042 139.34C263.972 138.65 264.692 137.555 265.202 136.055C265.742 134.555 266.012 132.62 266.012 130.25C266.012 127.88 265.742 125.945 265.202 124.445C264.692 122.945 263.972 121.85 263.042 121.16C262.142 120.47 261.077 120.125 259.847 120.125C258.647 120.125 257.582 120.47 256.652 121.16C255.752 121.85 255.032 122.945 254.492 124.445C253.982 125.945 253.727 127.88 253.727 130.25C253.727 132.62 253.982 134.555 254.492 136.055C255.032 137.555 255.752 138.65 256.652 139.34C257.582 140.03 258.647 140.375 259.847 140.375ZM290.389 146.54C287.809 146.54 285.499 145.91 283.459 144.65C281.419 143.36 279.814 141.5 278.644 139.07C277.474 136.64 276.889 133.7 276.889 130.25C276.889 126.8 277.474 123.86 278.644 121.43C279.814 119 281.419 117.155 283.459 115.895C285.499 114.605 287.809 113.96 290.389 113.96C292.999 113.96 295.309 114.605 297.319 115.895C299.359 117.155 300.964 119 302.134 121.43C303.304 123.86 303.889 126.8 303.889 130.25C303.889 133.7 303.304 136.64 302.134 139.07C300.964 141.5 299.359 143.36 297.319 144.65C295.309 145.91 292.999 146.54 290.389 146.54ZM290.389 140.375C291.619 140.375 292.684 140.03 293.584 139.34C294.514 138.65 295.234 137.555 295.744 136.055C296.284 134.555 296.554 132.62 296.554 130.25C296.554 127.88 296.284 125.945 295.744 124.445C295.234 122.945 294.514 121.85 293.584 121.16C292.684 120.47 291.619 120.125 290.389 120.125C289.189 120.125 288.124 120.47 287.194 121.16C286.294 121.85 285.574 122.945 285.034 124.445C284.524 125.945 284.269 127.88 284.269 130.25C284.269 132.62 284.524 134.555 285.034 136.055C285.574 137.555 286.294 138.65 287.194 139.34C288.124 140.03 289.189 140.375 290.389 140.375ZM324.135 146V114.5H337.77C341.97 114.5 345.3 115.385 347.76 117.155C350.22 118.925 351.45 121.58 351.45 125.12C351.45 128.63 350.22 131.27 347.76 133.04C345.3 134.81 341.97 135.695 337.77 135.695H328.185L331.47 132.455V146H324.135ZM331.47 133.22L328.185 129.98H337.725C339.735 129.98 341.295 129.575 342.405 128.765C343.515 127.925 344.07 126.725 344.07 125.165C344.07 123.635 343.515 122.465 342.405 121.655C341.295 120.845 339.735 120.44 337.725 120.44H328.185L331.47 116.975V133.22ZM319.77 141.95V138.215H341.19V141.95H319.77Z" fill="url(#paint5_linear_68_428)"/>
<path fill-rule="evenodd" clip-rule="evenodd" d="M347.218 37.9345V23.961C345.864 24.711 344.802 25.7219 344.034 26.9943C343.264 28.2668 342.88 29.5958 342.88 30.9819C342.88 32.4815 343.253 33.8448 343.999 35.0717C344.745 36.2986 345.818 37.2529 347.218 37.9345ZM353.278 30.9819C353.278 29.9595 353.095 28.9939 352.728 28.0849C352.039 26.3582 350.776 24.9836 348.94 23.961V37.9345C350.317 37.2529 351.385 36.2986 352.142 35.0717C352.9 33.8448 353.278 32.4815 353.278 30.9819ZM355 30.9819C355 33.254 354.311 35.2307 352.934 36.9121C351.878 38.1843 350.547 39.1841 348.94 39.9113V43.3194H347.218V39.9113C344.808 38.7525 343.121 37.2471 342.157 35.3841C341.491 34.1174 341.158 32.6518 341.158 30.9988C341.158 28.5905 341.95 26.5172 343.534 24.7678C344.498 23.7054 345.726 22.808 347.218 22.081V19.4964H348.94V22.0526C350.386 22.7569 351.603 23.6543 352.59 24.7449C354.197 26.5172 355 28.5962 355 30.9819ZM338.748 43.3194H336.992V25.0858L332.619 33.5382V43.3194H330.898V19.4622H332.619V30.13L338.748 18.6445V43.3194ZM338.163 15.6111C338.094 16.3041 337.865 16.8665 337.474 17.2926C336.946 17.8776 336.189 18.1674 335.202 18.1674C334.329 18.1674 333.618 17.9231 333.067 17.4289C332.516 16.9347 332.241 16.3267 332.241 15.6111H333.411C333.411 16.077 333.572 16.4575 333.893 16.7473C334.215 17.037 334.651 17.1789 335.202 17.1789C335.753 17.1789 336.189 17.037 336.51 16.7473C336.831 16.4575 336.992 16.077 336.992 15.6111H338.163ZM325.733 36.6394V22.7001C325.733 21.9276 325.544 21.3426 325.165 20.9449C324.786 20.5473 324.241 20.3483 323.529 20.3483C322.703 20.3483 322.106 20.6097 321.739 21.1323C321.464 21.5413 321.326 22.064 321.326 22.7001V36.6394H325.733ZM327.455 43.3194H325.733V38.139H321.326V43.3194H319.604V38.139H317.47L316.195 36.6394H319.604V23.0067C319.604 21.5755 319.92 20.5246 320.551 19.8543C321.183 19.184 322.141 18.8488 323.426 18.8488C325.102 18.8488 326.25 19.3488 326.869 20.3483C327.259 20.962 327.455 21.8481 327.455 23.0067V43.3194ZM315.335 43.3194H313.613V22.0071C311.846 23.5806 310.618 25.4663 309.929 27.6704C309.447 29.1926 309.206 30.9875 309.206 33.0552V43.3194H307.484V33.1574C307.484 30.2037 308.001 27.6249 309.034 25.4208C310.296 22.7172 312.397 20.4565 315.335 18.6332V43.3194ZM297.327 43.3194H295.605V25.0858L291.198 33.5382V43.3194H289.477V19.4622H291.198V30.13L297.327 18.6332V43.3194ZM287.48 20.996H284.519V43.3194H282.797V20.996H279.836V19.4964H287.48V20.996ZM276.289 39.9454V22.8704C276.289 21.9163 276.06 21.2345 275.601 20.8257C275.234 20.5075 274.728 20.3483 274.086 20.3483C273.512 20.3483 273.053 20.4847 272.708 20.7575C272.158 21.1892 271.882 21.8934 271.882 22.8704V39.9454C271.882 40.8542 272.112 41.5132 272.571 41.9219C272.961 42.263 273.466 42.4333 274.086 42.4333C274.705 42.4333 275.199 42.263 275.566 41.9219C276.048 41.4903 276.289 40.8316 276.289 39.9454ZM278.011 39.8091C278.011 41.1495 277.678 42.1719 277.013 42.8762C276.347 43.5807 275.371 43.9328 274.086 43.9328C272.8 43.9328 271.825 43.5807 271.159 42.8762C270.493 42.1719 270.161 41.1495 270.161 39.8091V38.139H267.027V43.3194H265.306V38.139H263.033L261.863 36.6394H265.306V19.4622H267.027V36.6394H270.161V23.0067C270.161 21.6663 270.488 20.6381 271.142 19.9225C271.796 19.2067 272.777 18.8488 274.086 18.8488C275.371 18.8488 276.347 19.2011 277.013 19.9054C277.678 20.6097 278.011 21.6437 278.011 23.0067V39.8091ZM259.969 40.3202V39.6386C259.969 39.1841 259.877 38.8433 259.693 38.6162C259.418 38.298 258.924 38.139 258.213 38.139H255.562V41.8198H258.213C258.97 41.8198 259.475 41.6493 259.728 41.3087C259.889 41.104 259.969 40.7745 259.969 40.3202ZM261.69 40.4905C261.69 41.445 261.392 42.1551 260.795 42.6207C260.199 43.0865 259.361 43.3194 258.282 43.3194H253.84V38.139H251.602L250.431 36.6394H253.84V19.4964H255.562V36.6394H258.316C259.693 36.6394 260.635 36.9121 261.14 37.4574C261.507 37.8664 261.69 38.5138 261.69 39.3999V40.4905ZM248.537 40.1497V39.8091C248.537 39.1046 248.342 38.6275 247.952 38.3775C247.7 38.2185 247.321 38.139 246.816 38.139H244.13V41.8198H246.816C247.55 41.8198 248.044 41.638 248.296 41.2745C248.457 41.0474 248.537 40.6724 248.537 40.1497ZM250.259 40.3202C250.259 41.0927 250.087 41.7061 249.743 42.1606C249.146 42.9331 248.056 43.3194 246.472 43.3194H242.409V38.139H240.171L239 36.6394H242.409V19.4964H250.259V20.996H244.13V36.6394H247.401C248.251 36.6394 248.893 36.7984 249.329 37.1166C249.949 37.5482 250.259 38.3093 250.259 39.3999V40.3202Z" fill="white"/>
<path fill-rule="evenodd" clip-rule="evenodd" d="M347.218 37.9345V23.961C345.864 24.711 344.802 25.7219 344.034 26.9943C343.264 28.2668 342.88 29.5958 342.88 30.9819C342.88 32.4815 343.253 33.8448 343.999 35.0717C344.745 36.2986 345.818 37.2529 347.218 37.9345ZM353.278 30.9819C353.278 29.9595 353.095 28.9939 352.728 28.0849C352.039 26.3582 350.776 24.9836 348.94 23.961V37.9345C350.317 37.2529 351.385 36.2986 352.142 35.0717C352.9 33.8448 353.278 32.4815 353.278 30.9819ZM355 30.9819C355 33.254 354.311 35.2307 352.934 36.9121C351.878 38.1843 350.547 39.1841 348.94 39.9113V43.3194H347.218V39.9113C344.808 38.7525 343.121 37.2471 342.157 35.3841C341.491 34.1174 341.158 32.6518 341.158 30.9988C341.158 28.5905 341.95 26.5172 343.534 24.7678C344.498 23.7054 345.726 22.808 347.218 22.081V19.4964H348.94V22.0526C350.386 22.7569 351.603 23.6543 352.59 24.7449C354.197 26.5172 355 28.5962 355 30.9819ZM338.748 43.3194H336.992V25.0858L332.619 33.5382V43.3194H330.898V19.4622H332.619V30.13L338.748 18.6445V43.3194ZM338.163 15.6111C338.094 16.3041 337.865 16.8665 337.474 17.2926C336.946 17.8776 336.189 18.1674 335.202 18.1674C334.329 18.1674 333.618 17.9231 333.067 17.4289C332.516 16.9347 332.241 16.3267 332.241 15.6111H333.411C333.411 16.077 333.572 16.4575 333.893 16.7473C334.215 17.037 334.651 17.1789 335.202 17.1789C335.753 17.1789 336.189 17.037 336.51 16.7473C336.831 16.4575 336.992 16.077 336.992 15.6111H338.163ZM325.733 36.6394V22.7001C325.733 21.9276 325.544 21.3426 325.165 20.9449C324.786 20.5473 324.241 20.3483 323.529 20.3483C322.703 20.3483 322.106 20.6097 321.739 21.1323C321.464 21.5413 321.326 22.064 321.326 22.7001V36.6394H325.733ZM327.455 43.3194H325.733V38.139H321.326V43.3194H319.604V38.139H317.47L316.195 36.6394H319.604V23.0067C319.604 21.5755 319.92 20.5246 320.551 19.8543C321.183 19.184 322.141 18.8488 323.426 18.8488C325.102 18.8488 326.25 19.3488 326.869 20.3483C327.259 20.962 327.455 21.8481 327.455 23.0067V43.3194ZM315.335 43.3194H313.613V22.0071C311.846 23.5806 310.618 25.4663 309.929 27.6704C309.447 29.1926 309.206 30.9875 309.206 33.0552V43.3194H307.484V33.1574C307.484 30.2037 308.001 27.6249 309.034 25.4208C310.296 22.7172 312.397 20.4565 315.335 18.6332V43.3194ZM297.327 43.3194H295.605V25.0858L291.198 33.5382V43.3194H289.477V19.4622H291.198V30.13L297.327 18.6332V43.3194ZM287.48 20.996H284.519V43.3194H282.797V20.996H279.836V19.4964H287.48V20.996ZM276.289 39.9454V22.8704C276.289 21.9163 276.06 21.2345 275.601 20.8257C275.234 20.5075 274.728 20.3483 274.086 20.3483C273.512 20.3483 273.053 20.4847 272.708 20.7575C272.158 21.1892 271.882 21.8934 271.882 22.8704V39.9454C271.882 40.8542 272.112 41.5132 272.571 41.9219C272.961 42.263 273.466 42.4333 274.086 42.4333C274.705 42.4333 275.199 42.263 275.566 41.9219C276.048 41.4903 276.289 40.8316 276.289 39.9454ZM278.011 39.8091C278.011 41.1495 277.678 42.1719 277.013 42.8762C276.347 43.5807 275.371 43.9328 274.086 43.9328C272.8 43.9328 271.825 43.5807 271.159 42.8762C270.493 42.1719 270.161 41.1495 270.161 39.8091V38.139H267.027V43.3194H265.306V38.139H263.033L261.863 36.6394H265.306V19.4622H267.027V36.6394H270.161V23.0067C270.161 21.6663 270.488 20.6381 271.142 19.9225C271.796 19.2067 272.777 18.8488 274.086 18.8488C275.371 18.8488 276.347 19.2011 277.013 19.9054C277.678 20.6097 278.011 21.6437 278.011 23.0067V39.8091ZM259.969 40.3202V39.6386C259.969 39.1841 259.877 38.8433 259.693 38.6162C259.418 38.298 258.924 38.139 258.213 38.139H255.562V41.8198H258.213C258.97 41.8198 259.475 41.6493 259.728 41.3087C259.889 41.104 259.969 40.7745 259.969 40.3202ZM261.69 40.4905C261.69 41.445 261.392 42.1551 260.795 42.6207C260.199 43.0865 259.361 43.3194 258.282 43.3194H253.84V38.139H251.602L250.431 36.6394H253.84V19.4964H255.562V36.6394H258.316C259.693 36.6394 260.635 36.9121 261.14 37.4574C261.507 37.8664 261.69 38.5138 261.69 39.3999V40.4905ZM248.537 40.1497V39.8091C248.537 39.1046 248.342 38.6275 247.952 38.3775C247.7 38.2185 247.321 38.139 246.816 38.139H244.13V41.8198H246.816C247.55 41.8198 248.044 41.638 248.296 41.2745C248.457 41.0474 248.537 40.6724 248.537 40.1497ZM250.259 40.3202C250.259 41.0927 250.087 41.7061 249.743 42.1606C249.146 42.9331 248.056 43.3194 246.472 43.3194H242.409V38.139H240.171L239 36.6394H242.409V19.4964H250.259V20.996H244.13V36.6394H247.401C248.251 36.6394 248.893 36.7984 249.329 37.1166C249.949 37.5482 250.259 38.3093 250.259 39.3999V40.3202Z" fill="url(#paint6_linear_68_428)"/>
<defs>
<radialGradient id="paint0_radial_68_428" cx="0" cy="0" r="1" gradientUnits="userSpaceOnUse" gradientTransform="translate(185 114) rotate(31.642) scale(217.304 247.173)">
<stop offset="0.435" stop-color="#F1D7A5"/>
<stop offset="1" stop-color="#E4BF78"/>
</radialGradient>
<linearGradient id="paint1_linear_68_428" x1="-26.7674" y1="198.075" x2="8.55801" y2="180.401" gradientUnits="userSpaceOnUse">
<stop stop-color="#434F52"/>
<stop offset="1" stop-color="#717577"/>
</linearGradient>
<linearGradient id="paint2_linear_68_428" x1="5.23216" y1="135.921" x2="111.208" y2="82.8974" gradientUnits="userSpaceOnUse">
<stop stop-color="#434F52"/>
<stop offset="1" stop-color="#717577"/>
</linearGradient>
<linearGradient id="paint3_linear_68_428" x1="-16.9582" y1="116.791" x2="28.4603" y2="94.0669" gradientUnits="userSpaceOnUse">
<stop stop-color="#434F52"/>
<stop offset="1" stop-color="#717577"/>
</linearGradient>
<linearGradient id="paint4_linear_68_428" x1="148" y1="88" x2="355" y2="88" gradientUnits="userSpaceOnUse">
<stop stop-color="#434F52"/>
<stop offset="1" stop-color="#717577"/>
</linearGradient>
<linearGradient id="paint5_linear_68_428" x1="148" y1="130" x2="354" y2="130" gradientUnits="userSpaceOnUse">
<stop stop-color="#434F52"/>
<stop offset="1" stop-color="#717577"/>
</linearGradient>
<linearGradient id="paint6_linear_68_428" x1="239" y1="29.772" x2="355" y2="29.772" gradientUnits="userSpaceOnUse">
<stop stop-color="#434F52"/>
<stop offset="1" stop-color="#717577"/>
</linearGradient>
</defs>
</svg>
