<svg width="38" height="38" viewBox="0 0 38 38" fill="none" xmlns="http://www.w3.org/2000/svg">
<path d="M18.5092 1.14963C18.614 0.61008 19.386 0.610068 19.4908 1.14964L22.1211 14.6924C22.2377 15.2928 22.7072 15.7623 23.3076 15.8789L36.8504 18.5092C37.3899 18.614 37.3899 19.386 36.8504 19.4908L23.3076 22.1211C22.7072 22.2377 22.2377 22.7072 22.1211 23.3076L19.4908 36.8504C19.386 37.3899 18.614 37.3899 18.5092 36.8504L15.8789 23.3076C15.7623 22.7072 15.2928 22.2377 14.6924 22.1211L1.14963 19.4908C0.61008 19.386 0.610068 18.614 1.14964 18.5092L14.6924 15.8789C15.2928 15.7623 15.7623 15.2928 15.8789 14.6924L18.5092 1.14963Z" stroke="white"/>
</svg>
