<svg width="28" height="28" viewBox="0 0 28 28" fill="none" xmlns="http://www.w3.org/2000/svg">
<circle cx="14" cy="14" r="14" fill="#3284FF"/>
<path d="M19.0496 13.8402C20.4983 11.8566 20.177 11.8194 20.5332 11.1997H17.7571C17.7571 11.1997 17.5598 11.8925 17.4995 12.0165C16.9663 13.1133 15.7704 14.7589 15.047 14.9271C14.3348 15.0928 14.4294 13.3906 14.4733 12.6532C14.5146 11.9697 14.5075 11.7305 14.4877 11.6125C14.4586 11.44 14.3155 11.3141 14.1437 11.2922C13.7897 11.2468 13.1472 11.1826 12.4277 11.2163L11.7841 11.2379C12.0378 11.8121 12.2093 11.6361 12.3027 12.3004C12.4083 13.078 12.3667 14.9703 11.6094 14.9703C10.3954 14.9703 9.0327 11.2828 8.98933 11.1997H6.5332L6.75793 11.7685C8.56914 16.3541 10.8344 18.478 13.9337 18.6546L14.3371 18.6664L14.3659 18.2702C14.4095 17.6585 14.7129 16.7779 15.2512 16.7779C16.0464 16.7779 16.2761 17.0121 16.8006 17.6675C17.3048 18.2958 17.6523 18.6664 18.466 18.6664H20.5332L20.2384 18.0668C19.778 17.1321 18.8547 16.3308 18.4941 15.8659C18.3634 15.6909 18.2348 15.4143 18.3679 15.0796C18.4768 14.7882 18.8008 14.1803 19.0496 13.8402Z" fill="white"/>
</svg>
